<?xml version="1.0" encoding="utf-8"?>
<!-- Generator: Adobe Illustrator 16.0.0, SVG Export Plug-In . SVG Version: 6.00 Build 0)  -->
<!DOCTYPE svg PUBLIC "-//W3C//DTD SVG 1.1//EN" "http://www.w3.org/Graphics/SVG/1.1/DTD/svg11.dtd">
<svg version="1.1" id="Layer_1" xmlns="http://www.w3.org/2000/svg" xmlns:xlink="http://www.w3.org/1999/xlink" x="0px" y="0px"
	 width="436.824px" height="438.447px" viewBox="87.614 176.773 436.824 438.447"
	 enable-background="new 87.614 176.773 436.824 438.447" xml:space="preserve">
<g>
	<path fill="#F5C260" d="M252.809,500.709c-31.556,0-57.255,25.699-57.255,57.256s25.699,57.256,57.255,57.256
		s57.256-25.699,57.256-57.256S284.365,500.709,252.809,500.709z M252.809,581.752c-13.148,0-23.787-10.639-23.787-23.787
		s10.638-23.787,23.787-23.787s23.787,10.639,23.787,23.787S265.957,581.752,252.809,581.752z"/>
	<path fill="#F5C260" d="M423.738,500.709c-31.557,0-57.256,25.699-57.256,57.256s25.699,57.256,57.256,57.256
		s57.256-25.699,57.256-57.256S455.295,500.709,423.738,500.709z M423.738,581.752c-13.148,0-23.787-10.639-23.787-23.787
		s10.639-23.787,23.787-23.787s23.787,10.639,23.787,23.787S436.887,581.752,423.738,581.752z"/>
	<path fill="#F5C260" d="M518.168,294.398c-5.498-6.933-13.627-10.758-22.472-10.758H205.833l-16.137-81.162
		c-1.315-6.813-6.694-12.073-13.507-13.268l-68.969-12.192c-9.084-1.554-17.811,4.423-19.364,13.627
		c-1.554,9.084,4.542,17.81,13.626,19.364l57.614,10.041l49.844,249.462c2.63,13.388,14.463,23.309,28.09,23.309h223.644
		c13.387,0,24.981-9.443,27.97-22.472l35.022-151.686C525.698,310.057,523.666,301.331,518.168,294.398z M456.968,459.352H240.975
		l-28.449-142.242H489.72L456.968,459.352z"/>
</g>
</svg>
