<svg fill="#228FA8" xmlns="http://www.w3.org/2000/svg" xmlns:xlink="http://www.w3.org/1999/xlink" version="1.1" x="0px" y="0px" viewBox="0 0 512 512" style="enable-background:new 0 0 512 512;" xml:space="preserve"><g><path d="M211.5,343.6c-26.4,0-47.9,21.5-47.9,47.9c0,26.4,21.5,47.9,47.9,47.9c26.4,0,47.9-21.5,47.9-47.9   C259.4,365.1,237.9,343.6,211.5,343.6z M211.5,411.4c-11,0-19.9-8.9-19.9-19.9s8.9-19.9,19.9-19.9s19.9,8.9,19.9,19.9   S222.5,411.4,211.5,411.4z"></path><path d="M354.5,343.6c-26.4,0-47.9,21.5-47.9,47.9c0,26.4,21.5,47.9,47.9,47.9c26.4,0,47.9-21.5,47.9-47.9   C402.4,365.1,380.9,343.6,354.5,343.6z M354.5,411.4c-11,0-19.9-8.9-19.9-19.9s8.9-19.9,19.9-19.9s19.9,8.9,19.9,19.9   S365.5,411.4,354.5,411.4z"></path><path d="M433.5,171c-4.6-5.8-11.4-9-18.8-9H172.2l-13.5-67.9c-1.1-5.7-5.6-10.1-11.3-11.1L89.7,72.8c-7.6-1.3-14.9,3.7-16.2,11.4   c-1.3,7.6,3.8,14.9,11.4,16.2l48.2,8.4l41.7,208.7c2.2,11.2,12.1,19.5,23.5,19.5h187.1c11.2,0,20.9-7.9,23.4-18.8l29.3-126.9   C439.8,184.1,438.1,176.8,433.5,171z M382.3,309H201.6l-23.8-119h231.9L382.3,309z"></path></g></svg>