<svg fill="#F5C260" xmlns="http://www.w3.org/2000/svg" xmlns:xlink="http://www.w3.org/1999/xlink" xml:space="preserve" version="1.1" style="shape-rendering:geometricPrecision;text-rendering:geometricPrecision;image-rendering:optimizeQuality;" viewBox="0 0 634 396" x="0px" y="0px" fill-rule="evenodd" clip-rule="evenodd"><defs><style type="text/css">
   
    .fil0 {fill:#F5C260}
   
  </style></defs><g><path class="fil0" d="M231 20l-12 7 0 -27 -30 24 0 20 -3 2 0 -14 -30 17 0 14 -25 15 0 88 -47 32 0 190 -46 0 0 -104c15,5 32,-6 32,-22 0,-9 -5,-17 -12,-21 1,-13 -10,-24 -23,-24 -13,0 -24,11 -24,24 0,1 -11,7 -11,21 0,16 16,27 32,22l0 104 -29 0 0 8 631 0 0 -10 -12 0 0 -172 -106 0 0 26 75 43 0 104 -7 0 0 -100 -68 -39 0 138 -6 0 0 -144 -46 0 -58 55 0 87 -9 0 0 -91 63 -60 50 0 0 -195 -140 0 -51 40 -74 -32c0,114 0,229 0,342l-14 0 0 -368zm381 212l-26 0 0 28 26 0 0 -28zm-50 107l-26 0 0 28 26 0 0 -28zm0 -50l-26 0 0 29 26 0 0 -29zm-152 -237l-25 0 0 32 25 0 0 -32zm85 264l-25 0 0 32 25 0 0 -32zm-43 0l-24 0 0 32 24 0 0 -32zm43 -44l-25 0 0 32 25 0 0 -32zm-85 -44l-25 0 0 32 25 0 0 -32zm0 -44l-25 0 0 32 25 0 0 -32zm42 0l-24 0 0 32 24 0 0 -32zm-42 -44l-25 0 0 32 25 0 0 -32zm42 0l-24 0 0 32 24 0 0 -32zm-42 -44l-25 0 0 32 25 0 0 -32zm42 0l-24 0 0 32 24 0 0 -32zm-192 248l0 44 5 0 0 -39 34 0 0 39 5 0 0 -44 -44 0zm18 -256l0 10 -22 0 0 -10 22 0zm0 17l0 10 -22 0 0 -10 22 0zm0 17l0 10 -22 0 0 -10 22 0zm0 17l0 9 -22 0 0 -9 22 0zm0 16l0 10 -22 0 0 -10 22 0zm0 17l0 10 -22 0 0 -10 22 0zm0 17l0 10 -22 0 0 -10 22 0zm0 17l0 10 -22 0 0 -10 22 0zm0 16l0 10 -22 0 0 -10 22 0zm0 17l0 10 -22 0 0 -10 22 0zm0 17l0 10 -22 0 0 -10 22 0zm0 17l0 10 -22 0 0 -10 22 0zm0 17l0 9 -22 0 0 -9 22 0zm0 16l0 10 -22 0 0 -10 22 0zm7 10l0 -10 22 0 0 10 -22 0zm0 -17l0 -9 22 0 0 9 -22 0zm0 -16l0 -10 22 0 0 10 -22 0zm0 -17l0 -10 22 0 0 10 -22 0zm0 -17l0 -10 22 0 0 10 -22 0zm0 -17l0 -10 22 0 0 10 -22 0zm0 -16l0 -10 22 0 0 10 -22 0zm0 -17l0 -10 22 0 0 10 -22 0zm0 -17l0 -10 22 0 0 10 -22 0zm0 -17l0 -10 22 0 0 10 -22 0zm0 -17l0 -9 22 0 0 9 -22 0zm0 -16l0 -10 22 0 0 10 -22 0zm0 -17l0 -10 22 0 0 10 -22 0zm0 -17l0 -10 22 0 0 10 -22 0zm-67 162l-76 0 0 9 76 0 0 -9zm0 110l-76 0 0 9 76 0 0 -9zm0 -18l-76 0 0 9 76 0 0 -9zm0 -18l-76 0 0 9 76 0 0 -9zm0 -19l-76 0 0 9 76 0 0 -9zm0 -18l-76 0 0 9 76 0 0 -9zm0 -18l-76 0 0 9 76 0 0 -9zm-4 -55l-16 0 0 26 16 0 0 -26zm-50 0l-16 0 0 26 16 0 0 -26zm25 0l-16 0 0 26 16 0 0 -26zm25 -37l-16 0 0 26 16 0 0 -26zm-50 0l-16 0 0 26 16 0 0 -26zm25 0l-16 0 0 26 16 0 0 -26zm25 -37l-16 0 0 26 16 0 0 -26zm-50 0l-16 0 0 26 16 0 0 -26zm25 0l-16 0 0 26 16 0 0 -26zm25 -37l-16 0 0 27 16 0 0 -27zm-50 0l-16 0 0 27 16 0 0 -27zm25 0l-16 0 0 27 16 0 0 -27zm25 -36l-16 0 0 26 16 0 0 -26zm-50 0l-16 0 0 26 16 0 0 -26zm25 0l-16 0 0 26 16 0 0 -26z"></path></g></svg>