<svg fill="#EC6421" xmlns="http://www.w3.org/2000/svg" xmlns:xlink="http://www.w3.org/1999/xlink" xml:space="preserve" version="1.1" style="shape-rendering:geometricPrecision;text-rendering:geometricPrecision;image-rendering:optimizeQuality;" viewBox="0 0 292 204" x="0px" y="0px" fill-rule="evenodd" clip-rule="evenodd"><defs><style type="text/css">
   
    .fil0 {fill:#EC6421}
   
  </style></defs><g><path class="fil0" d="M292 169l-8 0 0 -102 -50 0 0 102 -11 0 0 -55 -50 0 0 55 -6 0 0 -31 -36 0 0 -100 -4 0 -12 -38 -13 38 -4 0 0 131 -27 0 0 -85 -65 -36 0 121 -6 0 0 35 292 0 0 -35zm-171 -131l-13 0 7 -18 6 18zm-58 51l-9 0 0 12 9 0 0 -12zm-13 0l-9 0 0 12 9 0 0 -12zm13 19l-9 0 0 12 9 0 0 -12zm-13 0l-9 0 0 12 9 0 0 -12zm13 18l-9 0 0 13 9 0 0 -13zm-13 0l-9 0 0 13 9 0 0 -13zm13 19l-9 0 0 13 9 0 0 -13zm-13 0l-9 0 0 13 9 0 0 -13zm-14 -56l-8 0 0 12 8 0 0 -12zm-13 0l-9 0 0 12 9 0 0 -12zm13 19l-8 0 0 12 8 0 0 -12zm-13 0l-9 0 0 12 9 0 0 -12zm13 18l-8 0 0 13 8 0 0 -13zm-13 0l-9 0 0 13 9 0 0 -13zm13 19l-8 0 0 13 8 0 0 -13zm-13 0l-9 0 0 13 9 0 0 -13zm96 -18l-9 0 0 14 9 0 0 -14zm0 -40l-9 0 0 14 9 0 0 -14zm0 -41l-9 0 0 14 9 0 0 -14zm95 100l-12 0 0 16 12 0 0 -16zm-19 0l-12 0 0 16 12 0 0 -16zm19 -23l-12 0 0 16 12 0 0 -16zm-19 0l-12 0 0 16 12 0 0 -16zm80 23l-12 0 0 16 12 0 0 -16zm-19 0l-12 0 0 16 12 0 0 -16zm19 -23l-12 0 0 16 12 0 0 -16zm-19 -23l-12 0 0 16 12 0 0 -16zm19 -23l-12 0 0 16 12 0 0 -16zm-19 0l-12 0 0 16 12 0 0 -16z"></path></g></svg>