<svg fill="#EC6421" xmlns:dc="http://purl.org/dc/elements/1.1/" xmlns:cc="http://creativecommons.org/ns#" xmlns:rdf="http://www.w3.org/1999/02/22-rdf-syntax-ns#" xmlns:svg="http://www.w3.org/2000/svg" xmlns="http://www.w3.org/2000/svg" xmlns:sodipodi="http://sodipodi.sourceforge.net/DTD/sodipodi-0.dtd" xmlns:inkscape="http://www.inkscape.org/namespaces/inkscape" version="1.1" x="0px" y="0px" viewBox="0 0 100 100"><g transform="translate(0,-952.36218)"><path d="m 68.282732,957.67864 c -2.2359,2.235 -4.17697,6.2461 -5.21923,9.3713 -0.27445,1.4769 0.10739,2.974 0.53135,4.1549 0.48684,1.3462 1.0909,2.7324 1.43763,4.0609 0.34674,1.3285 0.43427,2.5555 0,3.7173 -0.33862,0.9059 -1.19172,1.8313 -2.46897,2.7489 -0.59271,-2.3111 -1.47345,-4.1884 -2.68775,-5.6228 -1.48205,-1.7509 -3.29222,-3.0381 -5.281745,-4.5295 -0.68815,-0.5097 -1.83351,0.3548 -1.53139,1.1559 1.57397,3.9329 1.79108,5.4684 1.84392,7.8093 -0.90436,-0.6309 -2.00984,-0.977 -2.90647,-1.1555 -0.70912,0 -1.22041,0.93 -0.84382,1.5306 1.38382,2.0749 2.21492,3.5271 2.59399,5.5291 l -3.21905,-1.9368 c -0.40909,-0.2571 -0.69697,-0.049 -1.0626,0 l -16.03272,9.68367 -2.46898,-4.1233 c -0.49665,-2.957 -0.99243,-5.26387 -1.93768,-7.15347 -0.96027,-1.9194 -2.44491,-3.3618 -4.59417,-4.4357 -0.20708,-0.1771 -0.46463,-0.067 -0.65621,-0.094 -0.49195,0.1046 -0.85514,0.6273 -0.78133,1.1246 0.36515,2.9949 0.73759,5.8461 1.0001,8.77757 -0.28841,2.2354 -1.35399,3.4927 -2.06269,5.4041 -0.64173,1.7308 -0.71309,3.8966 0.68756,7.05969 l -11.157279,6.7475 c -0.45762,0.2792 -0.60875,0.959 -0.31253,1.4056 l 2.00019,2.9989 c 0.27926,0.4404 0.93279,0.5889 1.37512,0.3124 l 3.46907,-2.1241 0,36.2669 c 5e-5,0.5234 0.47647,0.9995 1.0001,0.9996 l 62.005704,0 c 0.52363,-10e-5 1.00005,-0.4762 1.0001,-0.9996 l 0,-36.2669 3.46907,2.1241 c 0.44233,0.2765 1.09586,0.128 1.37512,-0.3124 l 2.00019,-2.9989 c 0.29622,-0.4466 0.14509,-1.1264 -0.31253,-1.4056 l -3.59408,-2.1866 c -0.42524,-7.62589 -3.21179,-12.34499 -6.87564,-15.30659 0.48046,-3.67977 1.03641,-6.50057 0.81258,-8.84027 -0.2263,-2.3656 -1.5417,-4.277 -4.18789,-5.5603 -3.74779,-4.7548 -4.68793,-9.3811 -4.68793,-17.212 0.0163,-0.4558 -0.33645,-0.8801 -0.76899,-1.0006 -0.40481,-0.1143 -0.66858,0.076 -0.95012,0.2821 z m -0.15626,3.7175 c 0.28069,6.3938 1.50145,11.1301 5.09422,15.6189 0.1005,0.1214 0.23019,0.2187 0.37503,0.2811 2.45791,1.1027 3.09548,2.1157 3.28155,4.061 0.18608,1.945 -0.37063,4.8691 -0.87508,8.90267 -0.0339,0.3445 0.12632,0.7019 0.40629,0.9058 3.25823,2.4427 5.80819,6.242 6.43809,12.90119 l -5.37549,-3.2487 c -0.72181,-2.87569 -2.1252,-4.77149 -3.8441,-6.06009 0.62505,-4.998 1.69752,-8.88037 -1.62515,-10.37087 -2.50023,-3.1238 -1.0001,-0.9996 -1.0001,-5.9977 -1.25011,1.2496 -3.37531,4.1234 -4.00036,5.9977 -1.25012,2.49897 2.62524,2.87387 -3.00028,5.99757 -0.62506,-3.7485 -2.50023,-2.1241 -5.00046,-3.99837 0.75196,1.89487 1.08129,3.14167 1.21886,3.99837 l -4.312905,-2.6239 c -0.21237,-2.06667 -0.81315,-3.69507 -1.62515,-5.27917 0.54784,0.3324 1.15636,0.7185 1.15636,0.7185 0.59371,0.4036 1.552295,-0.095 1.562655,-0.8122 0,-2.7841 -0.27183,-4.6477 -0.968845,-6.9973 0.775655,0.6422 1.744495,1.2911 2.343965,1.9992 1.26821,1.4981 2.1489,3.2971 2.62524,6.1538 0.0926,0.648 0.9369,1.0522 1.50014,0.7185 2.39179,-1.328 3.77833,-2.911 4.40666,-4.592 0.62832,-1.6807 0.46584,-3.3588 0.0625,-4.9042 -0.40333,-1.5454 -1.04938,-3.0018 -1.50014,-4.2484 -0.44604,-1.2334 -0.64813,-2.2434 -0.50004,-2.8738 0.86413,-2.2584 2.00698,-4.4645 3.15654,-6.2474 z m -42.878955,20.0546 c 0.80936,0.6659 1.48133,1.3994 1.96893,2.3741 0.7899,1.579 1.28581,3.74387 1.78142,6.71607 0.0297,0.123 0.083,0.2404 0.15626,0.3436 l 2.59399,4.3421 -1.96893,1.187 c -0.67056,-2.4693 -1.88636,-2.2403 -2.78151,-4.0297 0,0 -1.00009,2.4082 -1.00009,2.9989 -0.20982,1.6796 -0.59826,2.4969 -0.5313,3.6547 l -1.15635,0.6874 c -1.17271,-2.6693 -0.99132,-4.0168 -0.50005,-5.3417 0.55898,-1.5077 1.84124,-3.0993 2.1877,-5.8727 -0.14553,-2.41817 -0.47612,-5.02117 -0.75007,-7.05977 z m 24.75228,5.0917 36.565875,22.14766 -0.87508,1.312 -35.159495,-21.49159 c -0.31637,-0.1983 -0.74623,-0.1983 -1.0626,0 l -35.159489,21.49159 -0.87508,-1.312 z m 0,3.99847 30.002765,18.33659 0,23.4908 -9.00083,0 0,-8.9965 c -5e-5,-0.5234 -0.47646,-0.9995 -1.00009,-0.9996 -5.72362,0 -11.47988,0 -17.189085,0 -0.45844,0.087 -0.8208,0.5332 -0.81258,0.9996 l 0,8.9965 -32.002939,0 0,-23.4908 z m -14.56384,16.99339 -9.00083,5.9976 c -0.36448,0.2334 -0.54381,0.7208 -0.41749,1.1347 0.12631,0.4138 0.54727,0.7181 0.98004,0.7084 l 0,7.9968 c 5e-5,0.5234 0.47647,0.9995 1.00009,0.9996 l 16.00148,0 c 0.52363,-10e-5 1.00004,-0.4762 1.00009,-0.9996 l 0,-7.9968 c 0.43277,0.01 0.85373,-0.2946 0.98004,-0.7084 0.12632,-0.4139 -0.053,-0.9013 -0.41749,-1.1347 l -9.00083,-5.9976 c -0.45922,-0.3062 -0.69361,-0.1955 -1.1251,0 z m 0.5625,2.0305 7.00065,4.6544 0,8.153 -14.00129,0 0,-8.153 z m 18.00166,14.8066 15.001385,0 0,20.9918 -15.001385,0 z m 3.000285,9.4963 c -0.55234,0 -1.000105,0.4475 -1.000105,0.9996 0,0.5521 0.447765,0.9996 1.000105,0.9996 0.55233,0 1.00009,-0.4475 1.00009,-0.9996 0,-0.5521 -0.44776,-0.9996 -1.00009,-0.9996 z" style="text-indent:0;text-transform:none;direction:ltr;block-progression:tb;baseline-shift:baseline;color:#000000;enable-background:accumulate;" fill="#EC6421" fill-opacity="1" stroke="none" marker="none" visibility="visible" display="inline" overflow="visible"></path></g></svg>