<?xml version="1.0" encoding="utf-8"?>
<!-- Generator: Adobe Illustrator 23.0.1, SVG Export Plug-In . SVG Version: 6.00 Build 0)  -->
<svg version="1.1" id="Layer_1" xmlns="http://www.w3.org/2000/svg" xmlns:xlink="http://www.w3.org/1999/xlink" x="0px" y="0px"
	 viewBox="0 0 829.3 517.4" style="enable-background:new 0 0 829.3 517.4;" xml:space="preserve">
<style type="text/css">
	.st0{fill:#C0784D;}
	.st1{fill:#2A1D2A;}
	.st2{clip-path:url(#SVGID_2_);}
	.st3{fill:#E7A386;}
	.st4{clip-path:url(#SVGID_4_);}
	.st5{fill:#0E2438;}
	.st6{fill:#59595C;}
	.st7{fill:#1C3849;}
	.st8{fill:#FFFFFF;}
	.st9{fill:#794D30;}
	.st10{clip-path:url(#SVGID_6_);}
	.st11{opacity:0.51;fill:#BF774D;enable-background:new    ;}
	.st12{fill:#F2C15F;}
	.st13{fill:#DBA33F;}
	.st14{fill:#8E2640;}
	.st15{fill:#A8CADA;}
	.st16{fill:#B6D9E5;}
	.st17{fill:url(#SVGID_7_);}
	.st18{fill:#BF3552;}
	.st19{fill:#146976;}
	.st20{fill:#329EB2;}
	.st21{opacity:0.35;fill:#DCDDDE;enable-background:new    ;}
	.st22{fill:#221F1F;}
	.st23{fill:none;stroke:#FFFFFF;stroke-width:2.27;stroke-linecap:round;stroke-linejoin:round;}
	.st24{fill:none;stroke:#424143;stroke-width:2.27;stroke-linecap:round;stroke-linejoin:round;}
</style>
<title>Asset 3</title>
<g>
	<g>
		<g id="Layer_1-2">
			<path class="st0" d="M638,180.5c0-0.9-7.4,1.3-7.4,1.3c-3.6,22.8,5.5,45.8,23.6,60.1c2.3,1.8,4.6,3.4,7.1,4.9l29.2-8.5
				c-10.5-2-20.4-6.5-28.7-13.2c-4.5-3.6-8.5-7.7-12-12.3C642.4,202.9,638.3,191.5,638,180.5"/>
			<path class="st0" d="M639.1,176.5c0,0,1,2.4-0.9,6.8c2,6.3-0.7,56.8-8.7,0.6c-2.5-4.4-3.1-9.6-1.6-14.4c1.6-0.9,3.4-1.6,5.2-1.9
				c0.4-0.1,0.8,0.2,0.8,0.6c0,0,0,0,0,0l2,11.2l1.5-0.4l0.9-2.7L639.1,176.5z"/>
			<polygon class="st1" points="688,496.8 713.4,481.4 712.2,382.5 729.4,434 723,495 			"/>
			<g>
				<defs>
					<polygon id="SVGID_1_" points="688,496.8 713.4,481.4 712.2,382.5 729.4,434 723,495 					"/>
				</defs>
				<clipPath id="SVGID_2_">
					<use xlink:href="#SVGID_1_"  style="overflow:visible;"/>
				</clipPath>
				<g class="st2">
					
						<rect x="681.1" y="465.9" transform="matrix(0.9965 -8.315615e-02 8.315615e-02 0.9965 -38.3323 60.7159)" class="st1" width="57.2" height="49.3"/>
				</g>
			</g>
			<path class="st3" d="M739.1,427.2l8.8-8.7l45.1,17.2c1.3,0.5,2.2,1.8,2.2,3.3l-0.7,34.6l-9.7-24.7L739.1,427.2z"/>
			<g>
				<defs>
					<path id="SVGID_3_" d="M739.1,427.2l8.8-8.7l45.1,17.2c1.3,0.5,2.2,1.8,2.2,3.3l-0.7,34.6l-9.7-24.7L739.1,427.2z"/>
				</defs>
				<clipPath id="SVGID_4_">
					<use xlink:href="#SVGID_3_"  style="overflow:visible;"/>
				</clipPath>
				<g class="st4">
					
						<rect x="754.8" y="429.3" transform="matrix(0.5246 -0.8514 0.8514 0.5246 -10.9464 888.2796)" class="st5" width="70.2" height="49.3"/>
				</g>
			</g>
			<path class="st5" d="M772.6,450.5c-109.1-28.8-75.1-125-75.1-125l61.8-1c0,0-65,62.5,21.8,99.2c0,0-1.3,8.5-1.3,8.5
				C779.8,432.8,775,445,772.6,450.5z"/>
			<polygon class="st6" points="731.6,469.5 760,314.3 717.8,319.3 702.2,330.7 707.5,473.4 			"/>
			<polygon class="st7" points="731.6,469.5 760,314.3 717.8,319.3 702.2,330.7 707.5,473.4 			"/>
			<path class="st8" d="M741.3,224.5l6.7,48.6l0.8,9.3c9.4-1.6,17.2-21,10.1-31.7L741.3,224.5z"/>
			<path class="st9" d="M690.4,175.2c2.7,7.5,6.2,10.9,17.6,9.9s17.1-5.3,18.4-13.2c1.8-10.8-9.6-16.4-19.4-15.4
				C693.8,157.9,687.5,167.2,690.4,175.2z"/>
			<path class="st0" d="M687.5,180.5c2-12.6,9.8-16.4,22.4-15.1c8.6,0.9,7.6,13.2,6.1,21l7,5.3l4.5,16l-14.8,10.4l-2.7,0.4l-6.5-7.2
				c-2.8,1.5-5.8,2.7-8.8,3.8c-1.7-3.3-3.7-6.8-3.7-6.8l-1.5-0.5c-0.5-0.2-0.8-0.8-0.6-1.3c0,0,0,0,0,0l0.4-0.9l-2.3-5l-4-1.2
				c-1-0.2-1.6-1.2-1.4-2.2c0-0.1,0.1-0.3,0.1-0.4C685.7,191,687.1,189.9,687.5,180.5z"/>
			<g>
				<defs>
					<path id="SVGID_5_" d="M687.5,180.5c2-12.6,9.8-16.4,22.4-15.1c8.6,0.9,7.6,13.2,6.1,21l7,5.3l4.5,16l-14.8,10.4l-2.7,0.4
						l-6.5-7.2c-2.8,1.5-5.8,2.7-8.8,3.8c-1.7-3.3-3.7-6.8-3.7-6.8l-1.5-0.5c-0.5-0.2-0.8-0.8-0.6-1.3c0,0,0,0,0,0l0.4-0.9l-2.3-5
						l-4-1.2c-1-0.2-1.6-1.2-1.4-2.2c0-0.1,0.1-0.3,0.1-0.4C685.7,191,687.1,189.9,687.5,180.5z"/>
				</defs>
				<clipPath id="SVGID_6_">
					<use xlink:href="#SVGID_5_"  style="overflow:visible;"/>
				</clipPath>
				<g class="st10">
					<path class="st11" d="M709.4,200.7c0,0-0.6,10.3-14.6,16.3s17.9,1.1,17.9,1.1S713.5,206,709.4,200.7z"/>
				</g>
			</g>
			<path class="st9" d="M695.2,185.3c-0.7-0.4-1.4-0.8-2.1-1.2c-0.7-0.3-1.4-0.5-2.1-0.7c-0.7-0.2-1.5-0.3-2.2-0.4
				c-0.4,0-0.8-0.1-1.2-0.1c-0.4,0-0.9,0-1.3,0.1c0.1-0.1,0.1-0.2,0.2-0.3c0.1-0.1,0.2-0.2,0.3-0.3c0.2-0.2,0.4-0.3,0.6-0.4
				c1.3-0.7,2.8-1,4.2-0.6c0.9,0.2,1.8,0.7,2.4,1.4C694.8,183.4,695.2,184.4,695.2,185.3z"/>
			<path class="st9" d="M699.8,193.4c0,0,7.4,4.1,12.7,3.7c10.6-0.9,18.6-8.9,17.8-18s-10-15.7-20.6-14.8c-1.8,0.1-5.1,2.2-7.8,4
				c-2.6,1.8-4,4.9-3.8,8L699.8,193.4z"/>
			
				<ellipse transform="matrix(0.2496 -0.9684 0.9684 0.2496 345.4776 828.4388)" class="st0" cx="707.3" cy="191.3" rx="5.2" ry="3.5"/>
			<path class="st9" d="M685.5,163.1c-0.7,6.1,4.6,11.8,11.9,12.7s13.8-3.4,14.6-9.5c0.1-1,0.1-2.1-0.2-3.1c-1,5.9-7.4,9.9-14.5,9.1
				c-6-0.7-10.7-4.7-11.8-9.6C685.5,162.8,685.5,162.9,685.5,163.1z"/>
			<path class="st9" d="M716.6,163c0,0-21.3-5.3-25.2,7.9c6,7.1,16.6,0.6,16.6,0.6L716.6,163z"/>
			<path class="st12" d="M727.5,204.5c0,0-16.2,6.3-22.9,16.1c-12.5,24.5-8.4,39-8.4,39l-2.1,73c0,0,39.9-4.4,74.8-3.5
				c1.3-30.7-12.1-44.8-16-62.4s-5.5-45.4-22.1-53.1L727.5,204.5z"/>
			<path class="st13" d="M699,231.7c-12.5,24.5-2.7,27.9-2.7,27.9l-0.6,41c0,0,24-38.7,24-57.2C719.7,226.5,705.6,222,699,231.7z"/>
			<path class="st8" d="M661.2,220.6c13.6,7.9,22,11.5,36.1,10.4c31.9-2.5,17.7,31.6-9.3,27.8c-13.1-1.9-24.1-6.7-33.8-11.1
				C652.3,242.7,653.8,228.4,661.2,220.6z"/>
			<polygon class="st14" points="344.9,433.4 243.9,429 248.4,325.9 310.2,328.6 347.2,381.4 			"/>
			<path class="st15" d="M25.9,267.9l192.5,8.5c0.8,0,1.5,0.8,1.5,1.6l-6.5,147.4c0,0.8-0.8,1.5-1.6,1.5l-192.5-8.5
				c-0.8,0-1.5-0.8-1.5-1.6l6.5-147.4C24.3,268.6,25.1,267.9,25.9,267.9z"/>
			<path class="st16" d="M69.9,269.9l192.5,8.5c0.8,0,1.5,0.8,1.5,1.6l-6.5,147.4c0,0.8-0.8,1.5-1.6,1.5l-192.5-8.5
				c-0.8,0-1.5-0.8-1.5-1.6l6.5-147.4C68.4,270.5,69.1,269.9,69.9,269.9z"/>
			
				<linearGradient id="SVGID_7_" gradientUnits="userSpaceOnUse" x1="147.6889" y1="456.157" x2="381.3024" y2="456.157" gradientTransform="matrix(0.999 4.414248e-02 4.414248e-02 -0.999 -168.6243 694.2237)">
				<stop  offset="0" style="stop-color:#EEEDED"/>
				<stop  offset="1" style="stop-color:#F7F8F9"/>
			</linearGradient>
			<path class="st17" d="M0.4,223.4l43.9,1.9c0.2,0,163.4,7.4,163.4,7.5l23.8,43.8c0,0.2-163.2-6.9-163.4-6.9l-43.9-1.9
				c-0.2,0-0.3-0.2-0.4-0.4L0,223.7C0,223.5,0.2,223.3,0.4,223.4z"/>
			<polygon class="st18" points="363.6,434.2 262.6,429.8 267.1,326.8 328.9,329.5 365.9,382.2 			"/>
			<path class="st15" d="M364.9,405.5l-0.5,11.8l-14-0.6l0.4-8c0.1-2.1,1.9-3.8,4-3.7L364.9,405.5z"/>
			<path class="st15" d="M356.3,382l-83-1.5l1.7-39.8c0.1-2.7,2.4-4.8,5.1-4.7l44.1,2c1.5,0.1,2.9,0.8,3.8,2l28.3,39.7L356.3,382z"
				/>
			<path class="st1" d="M88,421.4c-1.9,16.5-16.7,28.3-33.2,26.4c-14.9-1.7-26.2-14.1-26.6-29.1L88,421.4z"/>
			<path class="st19" d="M79.9,421.1c-1.2,12-11.9,20.8-23.9,19.6c-11.1-1.1-19.5-10.4-19.7-21.5L79.9,421.1z"/>
			<path class="st1" d="M284.3,430.1c-1.9,16.5-16.7,28.3-33.2,26.4c-14.9-1.7-26.2-14.1-26.6-29.1L284.3,430.1z"/>
			<path class="st19" d="M276.2,429.7c-1.2,12-11.9,20.8-23.9,19.6c-11.1-1.1-19.5-10.4-19.7-21.5L276.2,429.7z"/>
			
				<rect x="19.8" y="389.5" transform="matrix(4.414246e-02 -0.999 0.999 4.414246e-02 -371.5428 404.7639)" class="st14" width="11.9" height="14"/>
			
				<rect x="50.3" y="390.9" transform="matrix(4.414246e-02 -0.999 0.999 4.414246e-02 -343.7622 436.4777)" class="st14" width="11.8" height="14"/>
			
				<rect x="66.4" y="389.5" transform="matrix(4.414246e-02 -0.999 0.999 4.414246e-02 -329.0843 453.2521)" class="st18" width="11.8" height="18.2"/>
			
				<rect x="278.2" y="382.6" transform="matrix(4.414248e-02 -0.999 0.999 4.414248e-02 -121.2385 654.9211)" class="st14" width="6.9" height="16.4"/>
			<path class="st19" d="M18.7,408.8L363.9,424c0.3,0,0.5,0.3,0.5,0.6l-0.4,9.6c0,0.3-0.3,0.5-0.6,0.5L18.2,419.4
				c-0.3,0-0.5-0.3-0.5-0.6l0.4-9.6C18.1,409,18.4,408.8,18.7,408.8z"/>
			<circle class="st1" cx="114.7" cy="421.5" r="30"/>
			<circle class="st1" cx="311.9" cy="430.1" r="30"/>
			<path class="st15" d="M290.9,244.4l-194.8-8.6c-0.2,0-0.4,0.1-0.4,0.3l-27.2,33.4c0,0.1,0.2,0.3,0.4,0.3l194.8,8.6
				c0.2,0,0.4-0.1,0.4-0.3l27.2-33.4C291.3,244.6,291.1,244.5,290.9,244.4z"/>
			<circle class="st19" cx="114.7" cy="421.5" r="21.8"/>
			<circle class="st8" cx="114.7" cy="421.5" r="16.6"/>
			<circle class="st15" cx="114.7" cy="421.5" r="12.6"/>
			<circle class="st16" cx="114.7" cy="421.5" r="5.7"/>
			<circle class="st19" cx="311.9" cy="430.1" r="21.8"/>
			<circle class="st8" cx="311.9" cy="430.1" r="16.6"/>
			<circle class="st15" cx="311.9" cy="430.1" r="12.6"/>
			<circle class="st16" cx="311.9" cy="430.1" r="5.7"/>
			<path class="st20" d="M639.4,342.8v-0.1c-0.3-2.1-1.5-4-3.3-5.1l2-27.7l-2.8-11.8l-11.5-34c-1.1-9.2-6.2-16.2-14.1-16.2h-4v-9.1
				c0.9,1.2,3,2.8,6.9,1.1c-1-1.1-1.6-2.5-1.7-4c0.4,1.1,1.6,1.7,2.7,1.4c0.1,0,0.3-0.1,0.4-0.2c-1.2-1.4-2.3-4.6-2.9-7.3
				c0.9-2.1,1.4-4.4,1.4-6.8c0-1.1-0.1-2.3-0.4-3.4c0.3,0,0.6-0.3,0.8-0.6h0.1v-7c0-3.7-2.6-6.8-5.8-6.8h-16.4c-3.2,0-5.8,3-5.8,6.8
				v4h-10.7c-0.6,0-1,0.4-1,1v1.6c0,0.6,0.4,1,1,1h11.2v3.9c-1.2,1.9-2.2,3.2-2.2,4c0,1,0.8,1.7,1.7,1.7h0.5v4.3
				c0,4.4,3.6,7.9,7.9,7.9h0.3v6.6c-12,2.2-16.9,17.7-16.9,27.8v2.7c0,6.1,0.4,22.6,0.8,36.1l-9.1-28.3c1.5-1.7,2.5-3.9,2.8-6.1
				c0.8-5-1.4-9.5-4.9-10H566c-0.3-2.4-1.3-4.7-2.9-6.5c3.6-4,4.5-10.3,1.6-16.1c-3.7-7.5-12.2-11.2-18.9-8.2
				c-5.5,2.4-8.1,8.5-6.9,14.7c-0.2,0.5-0.3,1.1-0.3,1.6l-2.8,2.9l2.8,1.2l0.1,3c0.1,4.5,3.5,8.3,8,8.8l0.3,6.8l-0.2,0l-31,3.2
				l-10.1-27.9c1.4-1.2,2.1-2.9,2-4.7c0,0,0-0.1,0-0.1l-0.1-9.1l-2.7,4.5l-2.8-9l-4.9,1.7L498,252c0.5,1.2,1.4,2.1,2.6,2.5l4.9,30
				v0.1c0.2,1.9,1.6,3.4,3.4,3.8l25.2,5.6c0,13.9,0.2,36.9,0.2,36.9s2.6,0.1,3,0.1c-11.1,43.6-1.4,106.5-1.4,106.5l-7.7,6.9h56.5
				l7.3-58.3l4.5,0.1l1.1-10.5l1.5,10.4l5.1-0.4l8.2,50.8l-13.8,7.9H621l-1.9-59.6l2.9-0.2c-1.4-17.1-2.4-40.7-2.8-49.7h2.6
				c0,0,0.8-19.5,1.4-37.3l3.9,7.8l1.9,32.6c-1.3,0.9-2.2,2.3-2.5,3.8l-0.2,3c-0.1,3,2.5,5.6,5.8,5.8l0.9,0.1c1.8,0.1,3.6-0.6,4.8-2
				l2.9-0.5L639.4,342.8z M544.6,443.3l0.9-67l10.9,61.1L544.6,443.3z M576.1,436.5l-11.4,6.4c-1.2-10.3-7.9-75,1.8-126.7l11.2,15.6
				l-4.8,53.6l5.4,0.2L576.1,436.5z"/>
			<path class="st20" d="M517.7,402.7c-1-6.2-3.6-18.5-5.7-29.5c-1-5-6.2-7.8-10.7-9.3l-0.1-2.4c3.5,0.1,6.9-1.7,8.8-4.6
				c0.2,0.1,0.5,0.2,0.7,0.2c1.8,0.2,3.4-1,3.6-2.8c0.1-0.9-0.2-1.9-0.8-2.6c0.1-0.1,0.2-0.2,0.3-0.3c1.4-0.5,2.8-1.1,4.1-1.9
				c-4.8-3.5-0.5-12-8.3-15.6c-3.7-1.7-6.3-0.8-8.1,0.7c-7.3-0.5-10.1,3.3-11.1,7c-1.3,0.4-2.8,0.4-4.1-0.1c0.4,2.5,1.7,4.7,3.7,6.2
				c0,0.2,0,0.3,0,0.4c0,0.2-0.1,0.4-0.1,0.7c-0.6,4,1,7.9,4.3,10.3l-0.8,3.3c-4.8,0.1-19.6,1.2-19.6,1.2l-14.6-13.3l-14-24.4
				L435,290.9c0.1-1.8,0.3-3.4,0.5-4.6c0.1-0.4-0.1-0.7-0.3-1c-2.9-2.8-6.5-4.9-10.4-5.8l0.4-9.7c0.9-0.9,1.6-2,2.2-3.1
				c1.1,0.3,2.3,0,3.1-0.7c1.6-1.4,2-3.7,0.8-5.5c-0.2-0.2-0.4-0.5-0.6-0.7c0.3-0.1,0.6-0.3,1-0.5c2.8-1.6,1.2-8.6-2.7-13.5
				c3-0.8,4.9-3.5,4.3-6.2c-0.1-0.7-0.4-1.3-0.9-1.9l2-0.7c-5.5-7.9-14.7-1.4-12.9,3.2c0,0.2-0.1,0.4-0.1,0.6c-2-0.4-4.1,0-5.8,1.3
				c-1.1,0.7-1.9,1.8-2.3,3c-1.5,0.1-2.9,0.5-4.1,1.4c-1.8,1.4-1,2.8,0,2.9c0.1,0,0.2,0,0.4,0c-1.3,1.5-2.2,3.3-2.9,5.1
				c-0.3,0.8-0.5,1.5-0.7,2.3l-0.5-0.1c-0.9-0.2-1.8,0.4-2,1.4c-0.2,0.9,0.4,1.8,1.3,2l0.6,0.1c-0.4,5.3,1.4,9.9,4.1,12.4
				c1.6,0.5,3.3,0.9,5,1l0.2,5.8c-3.4,0.6-6.6,2.1-9.4,4.1c-0.1,0.1-1,1.6-2.1,6l-18.2,21.9l-15.5,11.4l-2.9,0.9l-13.8,4l9.5,2.8
				l-1.9,4.8l9.2-9.2l19.5-7l11.3-12.3c-0.9,8.7-1.6,20.4-1.8,36c1,0.2,2.3,0.3,3.7,0.5l-3,74h2.4L401,437l-10.6,6.9h19.2l2.6-26.7
				h8.2l2,26.7H441l-10.1-6.9l-0.2-19.8h2.8l-0.9-72.8c0.9,0,1.7,0,2.3-0.1c-0.7-8-1.1-16-1-24l4,10.2l22.5,22.5l9.2,17l15.8,1.1
				c-4.1,7.9-8.2,17.3-9.4,27l1.8,43.3l-7,2.9h16.7l1.6-31.7l4.1,0.5l4,31.3H514l-6.7-2.8c-0.1-2.2-2.3-33.5-4.2-44.2
				c0,0-0.5-17.6-0.3-19.8c2.2,4.2,6.4,14.4,14.5,28.7l1.2,3.9l0.3-2.6l4.8,1l-5.2-5L517.7,402.7z"/>
			<path class="st20" d="M710.4,59.2h-91C602,59.3,588,73.3,588,90.6c0,0.7,0,1.4,0.1,2.1h-48.6c-4.2,0-7.7,3.5-7.7,7.7v1.4
				c0,1.2,0.3,2.4,0.8,3.5h-31.9c-4.2,0-7.7,3.5-7.7,7.7v1.4c0,4.2,3.4,7.7,7.7,7.7h209.7c8.3,0,16.3-3.3,22.2-9.2
				c5.4-5.4,8.6-12.6,9.1-20.2c0-0.7,0.1-1.4,0.1-2.1C741.7,73.3,727.7,59.3,710.4,59.2z"/>
			<path class="st20" d="M394.9,168.5h55.7c3.8,0,6.9,3.1,6.9,6.9v1.2c0,3.8-3.1,6.9-6.9,6.9h-55.7c-3.8,0-6.9-3.1-6.9-6.9v-1.2
				C388,171.6,391.1,168.5,394.9,168.5z"/>
			<path class="st20" d="M427.5,154.3h21.1c7.4,0,13.4,6,13.4,13.4v2.4c0,7.4-6,13.4-13.4,13.4h-21.1c-7.4,0-13.4-6-13.4-13.4v-2.4
				C414.2,160.3,420.1,154.3,427.5,154.3z"/>
			<polygon class="st21" points="127.1,118.4 111.1,130.9 155.5,133.2 167.6,118.8 			"/>
			<circle class="st8" cx="125.1" cy="108.4" r="75.7"/>
			<path class="st22" d="M84.8,90.5c-3.2-0.1-11.9,16.4-8.3,28.7c0,3.7-2.8,7.6,1,10.1c1.6,1,66.3,3,66.3,3l35.7-3.5
				c0.9-3.1,0.7-6.5-0.5-9.5c-0.6-4.8-13-7.9-25-13.6s-39.2-24.4-39.2-24.4s-11,4.7-4.6,14.4c2.8,7-12.5,6.9-15.8,3.7
				S84.8,90.5,84.8,90.5z"/>
			<line class="st23" x1="130" y1="92.8" x2="125.2" y2="101.7"/>
			<line class="st23" x1="136.7" y1="96.9" x2="133.1" y2="104.6"/>
			<line class="st23" x1="143.3" y1="100.8" x2="139.6" y2="107.8"/>
			<line class="st23" x1="149.7" y1="104.8" x2="146.2" y2="111.4"/>
			<path class="st24" d="M79,120.6l55.4,2.5c6.1,0.3,12.3,0.1,18.4-0.4l23.8-2.1"/>
		</g>
	</g>
</g>
</svg>
