<svg fill="#EC6421" xmlns="http://www.w3.org/2000/svg" xmlns:xlink="http://www.w3.org/1999/xlink" xml:space="preserve" version="1.1" style="shape-rendering:geometricPrecision;text-rendering:geometricPrecision;image-rendering:optimizeQuality;" viewBox="0 0 276 175" x="0px" y="0px" fill-rule="evenodd" clip-rule="evenodd"><defs><style type="text/css">
   
    .fil2 {fill:#EC6421}
    .fil1 {fill:#EC6421}
    .fil3 {fill:#EC6421;fill-rule:nonzero}
    .fil0 {fill:#EC6421;fill-rule:nonzero}
   
  </style></defs><g><path class="fil0" d="M137 129l26 -5c1,0 2,1 2,1l4 7c0,1 -1,1 -2,2l-31 5c-1,0 -2,0 -2,-1l2 -7c0,-1 0,-2 1,-2zm27 -3l-27 5 -1 6 31 -5 -3 -6z"></path><path class="fil1" d="M134 141l36 -7c0,0 1,1 1,1l2 9c0,0 -1,1 -1,1l1 5c0,0 0,1 -1,1l-3 0c0,1 -1,0 -1,0l-1 -5 -26 5 1 5c0,0 -1,0 -1,0l-3 1c-1,0 -1,0 -1,-1l-1 -5c-1,0 -1,0 -1,-1l-2 -8c0,-1 1,-1 1,-1zm32 -3c1,0 3,1 3,2 0,1 -1,3 -2,3 -2,0 -3,-1 -3,-2 0,-1 1,-3 2,-3zm-27 5c1,0 3,1 3,2 0,1 -1,3 -2,3 -1,0 -3,-1 -3,-2 0,-2 1,-3 2,-3z"></path><path class="fil1" d="M118 127c4,-4 9,3 7,5 -2,3 -3,7 -8,2 -5,-5 1,-7 1,-7z"></path><path class="fil1" d="M191 139c4,3 -1,8 -3,7 -2,-2 -4,-4 -1,-8 0,-1 4,1 4,1z"></path><path class="fil2" d="M180 133c2,2 -1,4 -2,4 -1,-1 -4,-1 0,-5 2,-2 2,1 2,1z"></path><polygon class="fil1" points="19,0 61,0 58,6 51,6 51,6 50,7 43,16 43,16 40,26 40,14 29,14 29,32 38,32 38,32 39,38 29,38 29,56 33,56 30,60 29,60 30,61 31,63 29,63 29,78 19,82 "></polygon><path class="fil1" d="M203 96c2,1 0,4 -1,4 -2,-1 -3,-2 -2,-5 1,-1 3,1 3,1z"></path><path class="fil1" d="M14 88c2,1 -1,4 -2,4 -2,-1 -5,-1 0,-6 2,-2 2,2 2,2z"></path><path class="fil1" d="M13 95c2,-2 4,1 4,2 -2,2 -3,5 -6,-1 -1,-3 2,-1 2,-1z"></path><path class="fil1" d="M9 97c0,-1 -2,0 -2,1 0,1 0,3 3,1 2,-2 -1,-2 -1,-2z"></path><path class="fil1" d="M212 104c3,2 -2,7 -3,6 -3,-1 -4,-3 -2,-7 1,-2 4,1 5,1z"></path><path class="fil1" d="M65 0l38 0 0 158 96 0c-3,-59 -15,-74 -22,-84 6,16 0,32 -15,36 5,-4 8,-6 10,-10 -3,1 -6,-1 -9,-2 4,-2 10,-4 11,-8 -2,1 -4,0 -7,-1 10,-4 5,-14 6,-22 0,0 0,-1 -1,0 -10,21 -16,29 -41,28 7,-3 9,-3 13,-4 -3,0 -5,-1 -7,-4 6,0 15,-1 20,-4 -4,1 -6,1 -9,-1 9,-1 17,-9 24,-16 1,0 1,0 0,-1 -11,2 -23,4 -31,11 1,-3 2,-4 3,-6 -4,2 -9,4 -13,8 0,-2 1,-5 4,-7 -4,0 -12,4 -16,4 18,-11 34,-17 54,-10 -4,-7 -2,-19 -13,-20 2,-1 4,-3 6,-3 -3,-3 -8,-3 -13,-4 2,-2 5,-4 7,-4 -3,-3 -6,-5 -12,-7 21,-2 29,13 25,38 0,0 1,0 1,0 22,-10 30,-6 18,16 1,-6 2,-9 1,-11 -1,3 -5,6 -7,8 1,-4 4,-10 3,-12 -1,3 -3,5 -6,8 5,-11 -4,-7 -9,-8 14,20 27,38 29,92l57 0c-11,-25 -11,-39 -9,-61 -3,11 -11,16 -23,13 5,-1 8,-2 11,-4 -2,0 -4,-2 -5,-4 3,0 8,0 10,-2 -2,0 -2,-2 -4,-3 8,1 8,-9 12,-14 0,0 0,-1 0,0 -16,11 -28,16 -45,6 4,1 9,2 12,1 -2,0 -4,-2 -5,-5 5,2 11,5 16,4 -3,-1 -5,-2 -6,-4 7,3 20,-1 28,-3 0,0 0,0 0,0 -8,-4 -18,-6 -26,-4 1,-2 3,-2 4,-4 -4,0 -8,0 -12,1 1,-1 2,-2 5,-3 -3,-2 -10,-2 -13,-3 17,-2 31,0 43,12 -1,-6 5,-14 -3,-19 3,0 4,0 6,1 0,-4 -5,-6 -8,-8 2,-1 5,-2 7,-1 -1,-3 -3,-5 -7,-9 16,6 17,20 5,37 0,0 0,0 0,0 20,1 24,7 7,18 4,-3 5,-6 5,-8 -2,2 -5,3 -8,4 3,-2 7,-6 7,-8 -2,2 -4,2 -7,4 7,-6 -1,-7 -4,-9 -1,22 2,56 13,75l10 0 0 17 -276 0 0 -17 19 0 0 -73 11 -4 10 0 0 -4 0 0 2 -1 -1 -2 -1 -2 0 -9 -6 0 -1 -2 5 -5 2 0 0 -2 4 -5 1 -1 0 0 -4 -16 5 -14 1 -2 0 16 10 0 0 -18 -8 0 3 -5 8 0 1 0 0 -1 4 -8zm17 87l10 0 0 18 -10 0 0 -18zm-17 0l10 0 0 18 -10 0 0 -18zm-18 0l10 0 0 18 -10 0 0 -18zm-18 0l11 0 0 18 -11 0 0 -18zm53 -24l10 0 0 18 -10 0 0 -18zm-17 0l10 0 0 18 -10 0 0 -18zm-18 0l10 0 0 18 -10 0 0 -18zm35 -25l10 0 0 18 -10 0 0 -18zm-17 0l10 0 0 18 -10 0 0 -18zm-18 0l10 0 0 18 -10 0 0 -18zm35 -24l10 0 0 18 -10 0 0 -18zm-17 0l10 0 0 18 -10 0 0 -18z"></path><polygon class="fil3" points="185,49 237,49 237,47 185,47 "></polygon><polygon class="fil3" points="107,49 152,49 152,47 107,47 "></polygon><polygon class="fil3" points="111,117 156,117 156,116 111,116 "></polygon><polygon class="fil3" points="203,117 248,117 248,116 203,116 "></polygon><polygon class="fil3" points="129,108 156,108 156,107 129,107 "></polygon><polygon class="fil3" points="220,126 248,126 248,125 220,125 "></polygon><path class="fil1" d="M233 147c2,1 -1,4 -2,4 -2,-1 -5,-1 0,-6 2,-2 2,2 2,2z"></path></g></svg>