<?xml version="1.0" encoding="utf-8"?>
<!-- Generator: Adobe Illustrator 16.0.0, SVG Export Plug-In . SVG Version: 6.00 Build 0)  -->
<!DOCTYPE svg PUBLIC "-//W3C//DTD SVG 1.1//EN" "http://www.w3.org/Graphics/SVG/1.1/DTD/svg11.dtd">
<svg version="1.1" id="Layer_1" xmlns="http://www.w3.org/2000/svg" xmlns:xlink="http://www.w3.org/1999/xlink" x="0px" y="0px"
	 width="612px" height="792px" viewBox="0 0 612 792" enable-background="new 0 0 612 792" xml:space="preserve">
<g display="none">
	<rect y="90.092" display="inline" width="612" height="612"/>
</g>
<g>
	<path fill="#EC6421" d="M354.825,222.89L205.932,371.783c-0.165,0.159-0.397,0.208-0.557,0.373
		c-7.014,7.014-10.496,16.273-10.471,25.521c-0.025,9.247,3.452,18.501,10.471,25.521c0.165,0.165,0.392,0.208,0.557,0.373
		l148.894,148.894c13.984,13.984,36.867,13.984,50.845,0c13.979-13.984,13.984-36.866,0-50.845L281.74,397.671l123.937-123.937
		c13.984-13.984,13.984-36.867,0-50.845S368.81,208.905,354.825,222.89z"/>
</g>
</svg>
