<?xml version="1.0" encoding="utf-8"?>
<!-- Generator: Adobe Illustrator 16.0.0, SVG Export Plug-In . SVG Version: 6.00 Build 0)  -->
<!DOCTYPE svg PUBLIC "-//W3C//DTD SVG 1.1//EN" "http://www.w3.org/Graphics/SVG/1.1/DTD/svg11.dtd">
<svg version="1.1" id="Layer_1" xmlns="http://www.w3.org/2000/svg" xmlns:xlink="http://www.w3.org/1999/xlink" x="0px" y="0px"
	 width="612px" height="792px" viewBox="0 0 612 792" enable-background="new 0 0 612 792" xml:space="preserve">
<g display="none">
	<rect y="90.092" display="inline" width="612" height="612"/>
</g>
<g>
	<path fill="#EC6421" d="M256.238,572.452l148.894-148.894c0.165-0.159,0.397-0.208,0.557-0.374
		c7.014-7.013,10.496-16.272,10.472-25.52c0.024-9.248-3.452-18.501-10.472-25.521c-0.165-0.165-0.392-0.208-0.557-0.373
		L256.238,222.89c-13.984-13.984-36.867-13.984-50.845,0c-13.979,13.984-13.984,36.867,0,50.845l123.936,123.937L205.387,521.606
		c-13.984,13.984-13.984,36.867,0,50.846C219.372,586.436,242.254,586.436,256.238,572.452z"/>
</g>
</svg>
