<svg fill="#EC6421" xmlns="http://www.w3.org/2000/svg" data-name="Layer 1" viewBox="0 0 100 100" x="0px" y="0px"><title>Artboard 1 copy 14</title><path d="M31.16,54.15A1.84,1.84,0,0,0,33,52.32v-3.4a1.77,1.77,0,0,0-.35-1.06,1.81,1.81,0,0,0-1.49-.77H31a1.84,1.84,0,0,0-1.64,1.82v3.4A1.83,1.83,0,0,0,31.16,54.15Z"></path><path d="M36.46,54.15a1.84,1.84,0,0,0,1.84-1.83v-3.4a1.84,1.84,0,0,0-3.64-.37,2.31,2.31,0,0,0,0,.37v3.4A1.83,1.83,0,0,0,36.46,54.15Z"></path><path d="M48.42,54.15a1.83,1.83,0,0,0,1.84-1.83v-3.4a1.63,1.63,0,0,0,0-.31,1.84,1.84,0,0,0-1.81-1.52,1.84,1.84,0,0,0-1.79,1.44,1.72,1.72,0,0,0,0,.39v3.4A1.83,1.83,0,0,0,48.42,54.15Z"></path><path d="M48.42,45.59a1.83,1.83,0,0,0,1.84-1.83v-3.4a1.84,1.84,0,1,0-3.67,0v3.4A1.83,1.83,0,0,0,48.42,45.59Zm-.88-5.23a.89.89,0,1,1,1.77,0v3.4a.89.89,0,0,1-1.77,0Z"></path><path d="M53,45.43a1.86,1.86,0,0,0,.74.16,1.83,1.83,0,0,0,1.84-1.83v-3.4a1.84,1.84,0,1,0-3.67,0v3.4A1.83,1.83,0,0,0,53,45.43Z"></path><path d="M48.42,37.3a1.84,1.84,0,0,0,1.84-1.84V32.07a1.82,1.82,0,0,0-.42-1.17,1.83,1.83,0,0,0-2.83,0,1.82,1.82,0,0,0-.42,1.17v3.39A1.83,1.83,0,0,0,48.42,37.3Z"></path><path d="M53.72,37.3a1.84,1.84,0,0,0,1.84-1.84V32.07A1.83,1.83,0,0,0,54,30.25l-.24,0a1.83,1.83,0,0,0-1.83,1.84v3.39A1.83,1.83,0,0,0,53.72,37.3Zm.89-5.23v3.39a.89.89,0,1,1-1.77,0V32.07a.89.89,0,1,1,1.77,0Z"></path><path d="M48.42,63.81a1.83,1.83,0,0,0-1.83,1.83V69a1.84,1.84,0,0,0,3.67,0v-3.4A1.83,1.83,0,0,0,48.42,63.81ZM49.31,69a.89.89,0,0,1-1.77,0v-3.4a.89.89,0,0,1,1.77,0Z"></path><path d="M51.89,65.64V69a1.84,1.84,0,0,0,3.67,0v-3.4a1.84,1.84,0,0,0-3.67,0Zm2.72,0V69a.89.89,0,0,1-1.77,0v-3.4a.89.89,0,0,1,1.77,0Z"></path><path d="M53.72,71.82a1.84,1.84,0,0,0-1.83,1.84v3.4a1.84,1.84,0,0,0,3.67,0v-3.4A1.84,1.84,0,0,0,53.72,71.82Z"></path><path d="M53.72,80.25a1.84,1.84,0,0,0-1.83,1.84v3.4a1.84,1.84,0,0,0,3.67,0v-3.4A1.84,1.84,0,0,0,53.72,80.25Z"></path><path d="M65.69,63.81a1.83,1.83,0,0,0-1.84,1.83V69a1.84,1.84,0,0,0,3.67,0v-3.4A1.83,1.83,0,0,0,65.69,63.81Z"></path><path d="M71,63.81a1.84,1.84,0,0,0-1.84,1.83V69a1.84,1.84,0,0,0,3.67,0v-3.4A1.83,1.83,0,0,0,71,63.81Z"></path><path d="M65.69,71.82a1.84,1.84,0,0,0-1.84,1.84v3.4a1.84,1.84,0,0,0,3.67,0v-3.4A1.84,1.84,0,0,0,65.69,71.82Zm.88,5.24a.89.89,0,0,1-1.77,0v-3.4a.89.89,0,0,1,1.77,0Z"></path><path d="M71,71.82a1.85,1.85,0,0,0-1.84,1.84v3.4a1.84,1.84,0,0,0,3.67,0v-3.4A1.84,1.84,0,0,0,71,71.82Z"></path><path d="M65.69,80.25a1.84,1.84,0,0,0-1.84,1.84v3.4a1.84,1.84,0,0,0,3.67,0v-3.4A1.84,1.84,0,0,0,65.69,80.25Z"></path><path d="M71,80.25a1.85,1.85,0,0,0-1.84,1.84v3.4a1.84,1.84,0,0,0,3.67,0v-3.4A1.84,1.84,0,0,0,71,80.25Z"></path><path d="M73.43,42.87A1.83,1.83,0,0,0,75.27,41V39a1.84,1.84,0,1,0-3.67,0v2A1.83,1.83,0,0,0,73.43,42.87Z"></path><path d="M74.18,65.64V69a1.84,1.84,0,0,0,3.67,0v-3.4a1.84,1.84,0,0,0-3.67,0Z"></path><path d="M76,71.82a1.84,1.84,0,0,0-1.84,1.84v3.4a1.84,1.84,0,0,0,3.67,0v-3.4A1.84,1.84,0,0,0,76,71.82Zm.88,5.24a.89.89,0,0,1-1.77,0v-3.4a.89.89,0,0,1,1.77,0Z"></path><path d="M76,80.25a1.84,1.84,0,0,0-1.84,1.84v3.4a1.84,1.84,0,0,0,3.67,0v-3.4A1.84,1.84,0,0,0,76,80.25Z"></path><path d="M92.46,59.1A3.11,3.11,0,0,0,89.7,56a5.7,5.7,0,0,0-7.24-4.92,4,4,0,0,0-1.24-2l0,0h0V44a.67.67,0,0,0-.68-.68H79.14V35.74a.67.67,0,0,0-.68-.68H77.1V31.52a.68.68,0,0,0-.68-.68H65.28a.68.68,0,0,0-.68.68v3.54H63a.67.67,0,0,0-.68.68v4.47a7,7,0,0,0-3.13,4.56V41.12A22.69,22.69,0,0,0,29.54,8.25a7.91,7.91,0,0,0-13.4,5.69c0,.17,0,.34,0,.51a4.82,4.82,0,0,0-3.57,4.65,4.9,4.9,0,0,0,.61,2.35,5.56,5.56,0,0,0-2.74,2.21,4.07,4.07,0,0,0-1-.12,4.4,4.4,0,1,0,0,8.8,4.89,4.89,0,0,0,.85-.08h8a22.72,22.72,0,0,0,7.56,13v19A5.28,5.28,0,0,0,23.72,68a3.53,3.53,0,0,0-1.4.48,3,3,0,0,0-.56.39s0,0,0,0a3.75,3.75,0,0,0-1.13,1.81,5.57,5.57,0,0,0-1.41-.19A5.24,5.24,0,0,0,14,75.19a2.9,2.9,0,0,0-.85,5.51l0,.23h.83a2.48,2.48,0,0,0,.86,0H18.6a4.5,4.5,0,0,0,1.16,0h6.1V94.32a.67.67,0,0,0,.68.68H41.22a.68.68,0,0,0,.68-.68V80.93h1.22V94.32a.68.68,0,0,0,.68.68H58.48a.67.67,0,0,0,.68-.68V62.17h1.23V94.32a.67.67,0,0,0,.67.68H80.5a.67.67,0,0,0,.68-.68V62.17h2.24a5.31,5.31,0,0,0,1.26,0h4.2a10.89,10.89,0,0,0,1.73-.23A3.13,3.13,0,0,0,92.46,59.1ZM79.82,44.71v3.56a4.21,4.21,0,0,0-.61-.16l-.19,0a5.66,5.66,0,0,0-1.63-3.37h2.43ZM66,32.2h9.78v2.86H66Zm-2.31,4.22H77.78v6.93H75.26a5.63,5.63,0,0,0-2.93-.25,7.09,7.09,0,0,0-2.23-2.65V39a1.84,1.84,0,1,0-3.67,0v.13H66a6.91,6.91,0,0,0-2.37.42Zm3.74,2.84V39a.88.88,0,1,1,1.76,0v.87A6.8,6.8,0,0,0,67.39,39.26ZM40.61,6.72A21.32,21.32,0,0,1,59.16,38.59V28a.67.67,0,0,0-.68-.68H57.12V23.77a.67.67,0,0,0-.68-.67H51.75V13.44a.68.68,0,1,0-1.36,0v9.48a6.38,6.38,0,0,0-7.56-3.14,4.46,4.46,0,0,0-1.42-2.37l0-.05a2.78,2.78,0,0,0-.41-.3,4.49,4.49,0,0,0-1.81-.73l-.28,0a6.47,6.47,0,0,0-6.43-5.8,7,7,0,0,0-1.21.11,8.23,8.23,0,0,0-.78-1.31A21.22,21.22,0,0,1,40.61,6.72ZM51,24.45h4.8v2.86H46.38V24.45H51ZM18.09,30.9h-8a2.79,2.79,0,0,1-.64.07,3,3,0,1,1,0-6.08,3,3,0,0,1,1.07.2l.57.21.28-.54a4.22,4.22,0,0,1,.92-1.21.68.68,0,0,0,.44-.19,4.05,4.05,0,0,1,1.83-.87l.72-.12a6.09,6.09,0,0,1,1.13,0,4.2,4.2,0,0,1,2,.72,3.49,3.49,0,0,1,.83.84.7.7,0,0,0,.33.26.85.85,0,0,0,.23,0l.17,0a.66.66,0,0,0,.5-.59c.27-2.88,2.15-3.31,3.26-3.31a.68.68,0,0,0,0-1.36,4.43,4.43,0,0,0-2.89.95,4.74,4.74,0,0,0-1.45,2.24,4.31,4.31,0,0,0-.63-.42A5.6,5.6,0,0,0,16.57,21a7.21,7.21,0,0,0-2,.09A3.44,3.44,0,0,1,17,15.68l.7-.09-.11-.69a7.75,7.75,0,0,1-.07-1A6.54,6.54,0,0,1,28.32,9a6.9,6.9,0,0,1,.95,1,6.72,6.72,0,0,1,.92,1.66l.22.59.6-.18a5.36,5.36,0,0,1,1.43-.2,5.12,5.12,0,0,1,5.06,4.42,6.54,6.54,0,0,0-2.82,1.07.68.68,0,0,0,.37,1.25.7.7,0,0,0,.37-.11,5.19,5.19,0,0,1,2.12-.84v0l.72,0h.17a2.38,2.38,0,0,1,.46,0,3.69,3.69,0,0,1,1.41.58,3.17,3.17,0,0,1,1.29,2.49l0,1.06,1-.46a5,5,0,0,1,6.36,1.76H45.71a.67.67,0,0,0-.68.67v3.54H43.8a.68.68,0,0,0-.68.68V30.9H26a7.42,7.42,0,0,1-1.49,0H18.09Zm1.59,1.36h4.76a9.65,9.65,0,0,0,1.7,0h17v17c-.4,0-.81.08-1.22.11V40a.68.68,0,0,0-.68-.68H26.54a.67.67,0,0,0-.68.68v3.52A21.37,21.37,0,0,1,19.68,32.26ZM43.12,67a3.91,3.91,0,0,0-1.07-.51c0-.1,0-.2,0-.3a6.74,6.74,0,0,0-.16-1.43V50.72c.41,0,.82-.06,1.22-.1ZM40.54,43.48H27.22V40.63H40.54Zm-13.32,2.9V44.84H40.54V62.07a6.47,6.47,0,0,0-2.24-1.7v-3a1.84,1.84,0,1,0-3.67,0v2.52a6,6,0,0,0-1.63.49v-3a1.84,1.84,0,1,0-3.67,0v3.4a1.82,1.82,0,0,0,1.11,1.68,6.12,6.12,0,0,0-.6,1,5.14,5.14,0,0,0-.88-.07,5.25,5.25,0,0,0-1.74.29Zm8.41,13.41h-.05V57.35a.89.89,0,0,1,1.77,0V60A6.55,6.55,0,0,0,35.63,59.79Zm4.91,33.85H36.73V91.7a2.79,2.79,0,0,0-5.57,0v1.88s0,0,0,.06h-4V80.93h2.52a1.82,1.82,0,0,0-.41,1.16v3.4a1.84,1.84,0,0,0,3.67,0v-3.4a1.83,1.83,0,0,0-.42-1.16H34A6.26,6.26,0,0,0,35,81a1.89,1.89,0,0,0-.39,1.14v3.4a1.84,1.84,0,0,0,3.67,0v-3.4a1.88,1.88,0,0,0-.41-1.16h2.65ZM37.35,82.09v3.4a.89.89,0,0,1-1.77,0v-3.4a.89.89,0,1,1,1.77,0Zm4.55-2.52H35.22a5.53,5.53,0,0,1-1.15,0H19.64a3.54,3.54,0,0,1-.92,0H14.61a1.51,1.51,0,0,1-.52,0H14a1.54,1.54,0,0,1,.31-3h.2l.79.1,0-.83v-.08a3.87,3.87,0,0,1,5.54-3.49l.95.45,0-1.06a2.38,2.38,0,0,1,1-1.9,2.94,2.94,0,0,1,1-.4,2.07,2.07,0,0,1,.35,0h.13l.72,0h0a3.68,3.68,0,0,1,.82.26,4.73,4.73,0,0,1,.65.36.7.7,0,0,0,.37.11.67.67,0,0,0,.34-.09.8.8,0,0,0,.23-.22.69.69,0,0,0-.2-.94l0,0a5.77,5.77,0,0,0-1.36-.65,5.69,5.69,0,0,0-.77-.18,3.87,3.87,0,0,1,.77-1.74,4,4,0,0,1,1.36-1.12A3.87,3.87,0,0,1,29,64.7a4,4,0,0,1,.6,0,3.88,3.88,0,0,1,.49.11h0l.51.15.1,0,.06-.15.16-.44a.78.78,0,0,0,.05-.14,4.44,4.44,0,0,1,.24-.49,5.14,5.14,0,0,1,3.53-2.58,5.64,5.64,0,0,1,.93-.08h0a5.06,5.06,0,0,1,1.41.21,4.59,4.59,0,0,1,.91.38,5.08,5.08,0,0,1,2.54,3.2,4.93,4.93,0,0,1,.16,1.28,6.3,6.3,0,0,1-.05.75l-.1.69.69.08a2.91,2.91,0,0,1,.66.17,2.65,2.65,0,0,1,1.22,1,2.61,2.61,0,0,1,.41,1.4,2.54,2.54,0,0,1-.41,1.39l0,0a5.9,5.9,0,0,0-1.19-.07l-.33,0a5,5,0,0,0-1,.21,4.26,4.26,0,0,0-1.17.58,3.63,3.63,0,0,0-1.74-2.06,4.18,4.18,0,0,0-.53-.21,4.06,4.06,0,0,0-1.25-.18.59.59,0,0,0-.23,0,.69.69,0,0,0-.37.32.66.66,0,0,0-.08.32.69.69,0,0,0,.68.68,2.17,2.17,0,0,1,2,1.08,3.49,3.49,0,0,1,.42,1.4v0a.69.69,0,0,0,.5.59.55.55,0,0,0,.18,0,.67.67,0,0,0,.56-.29,2.53,2.53,0,0,1,1-.86,3.27,3.27,0,0,1,1.17-.32h.19a3.61,3.61,0,0,1,.66,0l.56.09h.05l.09,0a3.09,3.09,0,0,1,1.22.48,3.5,3.5,0,0,1,.43.33,3.3,3.3,0,0,1,.67.9l.28.54.57-.21.16,0a2,2,0,0,1,.64-.1l.31,0a2.27,2.27,0,0,1,2,2.26A2.26,2.26,0,0,1,49,78.8a2.3,2.3,0,0,1-1.77.84,2.61,2.61,0,0,1-.48,0l-.07,0H41.9Zm7.41-5.2a3.63,3.63,0,0,0-1.77-.63v-.08a.89.89,0,0,1,1.77,0ZM57.8,93.64H54s0,0,0-.06V91.7a2.79,2.79,0,0,0-5.58,0v1.88s0,0,0,.06h-4V80.93h2.06A3,3,0,0,0,47,81a1.8,1.8,0,0,0-.37,1.1v3.4a1.84,1.84,0,0,0,3.67,0v-3.4a1.84,1.84,0,0,0-1.07-1.67,3.63,3.63,0,0,0,1.68-3.06,3.67,3.67,0,0,0-.61-2V73.66a1.84,1.84,0,1,0-3.67,0v.12h-.08a4.55,4.55,0,0,0-2-1.65v-.07a3.87,3.87,0,0,0,.41-1.74,4,4,0,0,0-.41-1.75V28.67H57.8v18.4a4.3,4.3,0,0,0-1.87,3.54,4.37,4.37,0,0,0,.5,2,5.09,5.09,0,0,0-1.12.62,1.79,1.79,0,0,0,.25-.92v-3.4a1.84,1.84,0,0,0-3.67,0v3.4a1.83,1.83,0,0,0,1.83,1.83,1.77,1.77,0,0,0,.8-.18,5.12,5.12,0,0,0-.4.52,3.75,3.75,0,0,0-.82-.09,3.94,3.94,0,0,0-3.37,1.91,1.83,1.83,0,0,0-3.34,1v3.4a1.84,1.84,0,0,0,3.67,0,3.92,3.92,0,0,0,2.32,1.38,1.84,1.84,0,0,0,2.3,0H57.8Zm22,0H73.56a.13.13,0,0,0,0-.06V91.7a2.79,2.79,0,0,0-5.57,0v1.94H61.74V62.17h2.8a1.78,1.78,0,0,0,1.15.41,1.82,1.82,0,0,0,1.11-.38,6,6,0,0,0,1,0h2a1.78,1.78,0,0,0,1.15.41,1.82,1.82,0,0,0,1.15-.41h2.73a1.78,1.78,0,0,0,1.15.41,1.82,1.82,0,0,0,1.15-.41h2.65ZM89.7,60.82h0a1.52,1.52,0,0,1-.6,0H84.57a4.44,4.44,0,0,1-1,0H67.74l-.22,0a7.51,7.51,0,0,1-1,0H53.91l-.07,0a2.48,2.48,0,0,1-.54.06,2.14,2.14,0,0,1-.45,0,2.45,2.45,0,0,1-1-.38,2.55,2.55,0,0,1,.8-4.62,2.43,2.43,0,0,1,.61-.08,2.51,2.51,0,0,1,.9.16l.57.22.11-.22.17-.33a3.58,3.58,0,0,1,.76-1,.61.61,0,0,0,.41-.19,3.31,3.31,0,0,1,1.53-.72h0l.61-.1a4.64,4.64,0,0,1,.75,0h.2a3.9,3.9,0,0,1,1,.24,2.93,2.93,0,0,1,1.35,1l0,.06a.68.68,0,0,0,.56.3l.17,0a.69.69,0,0,0,.51-.6,3.22,3.22,0,0,1,.83-2.08,2.32,2.32,0,0,1,.47-.37,2.18,2.18,0,0,1,.47-.21,3.3,3.3,0,0,1,1-.15.68.68,0,1,0,0-1.36,5,5,0,0,0-1,.1l-.47.13c-.17.06-.33.13-.48.2a4,4,0,0,0-1.9,2.3L61.74,53a4.73,4.73,0,0,0-1.35-.61,6.63,6.63,0,0,0-.89-.16l-.34,0a6.09,6.09,0,0,0-1.35.09h0a3,3,0,0,1-.51-1.65A2.9,2.9,0,0,1,57.8,49a2.84,2.84,0,0,1,1.36-1.08,2.77,2.77,0,0,1,.7-.18l.53-.06.16,0-.1-.69a5.9,5.9,0,0,1-.06-.83,5.57,5.57,0,0,1,.73-2.76,5.49,5.49,0,0,1,1.17-1.45A5.42,5.42,0,0,1,63.65,41,5.52,5.52,0,0,1,66,40.48l.41,0a5.06,5.06,0,0,1,1,.15,5.8,5.8,0,0,1,1.69.74,6.18,6.18,0,0,1,.76.59,5.78,5.78,0,0,1,1.08,1.37,5.56,5.56,0,0,1,.37.78l.21.58h.06l.55-.16a4.28,4.28,0,0,1,2.9.16,4.38,4.38,0,0,1,2.64,3.36h0l-.5.09-.49.15a6.09,6.09,0,0,0-1.41.69l-.11.09a.69.69,0,0,0-.09.85l.09.11a.69.69,0,0,0,.48.2.62.62,0,0,0,.37-.11,5.44,5.44,0,0,1,.92-.48l.48-.15a1.83,1.83,0,0,1,.32-.07l.15,0a3.76,3.76,0,0,1,1.13,0,3.67,3.67,0,0,1,.84.3l.27.16a2.67,2.67,0,0,1,1.09,1.69,2.2,2.2,0,0,1,0,.44l0,1.06,1-.45a4.24,4.24,0,0,1,1.85-.42,4.32,4.32,0,0,1,4.32,4.31s0,.06,0,.08l0,.84.79-.1h.22A1.75,1.75,0,0,1,91.1,59.1,1.77,1.77,0,0,1,89.7,60.82Z"></path></svg>