<svg xmlns="http://www.w3.org/2000/svg" xmlns:xlink="http://www.w3.org/1999/xlink" viewBox="0 0 823.14 421.17"><defs><style>.cls-1{fill:#b26a43;}.cls-2,.cls-30{fill:#b6d9e5;}.cls-3,.cls-33{fill:#fff;}.cls-4{fill:#a8cada;}.cls-5{isolation:isolate;}.cls-6{fill:#bf3552;}.cls-7{fill:#dba33f;}.cls-10,.cls-11,.cls-8{fill:#2a1d2a;}.cls-10,.cls-18,.cls-28,.cls-8{stroke:#2a1d2a;}.cls-10,.cls-22,.cls-25,.cls-26,.cls-27,.cls-29,.cls-8{stroke-miterlimit:10;}.cls-8{stroke-width:0.41px;}.cls-9{fill:#f2c15f;}.cls-10{stroke-width:0.3px;}.cls-12{clip-path:url(#clip-path);}.cls-13,.cls-20{fill:#bf774d;}.cls-13,.cls-17,.cls-29,.cls-30,.cls-31{mix-blend-mode:multiply;}.cls-14{clip-path:url(#clip-path-2);}.cls-15{fill:#da9e7a;}.cls-16{fill:#4dc2cb;}.cls-17{fill:#8b2b1c;opacity:0.5;}.cls-18,.cls-22,.cls-25,.cls-26,.cls-27,.cls-28,.cls-29,.cls-32,.cls-37{fill:none;}.cls-18,.cls-28,.cls-32,.cls-36,.cls-37{stroke-linecap:round;stroke-linejoin:round;}.cls-18{stroke-width:1.54px;}.cls-19{fill:#f0a68f;}.cls-21{clip-path:url(#clip-path-3);}.cls-22{stroke:#32b5c3;stroke-width:1.76px;}.cls-23{clip-path:url(#clip-path-4);}.cls-24{clip-path:url(#clip-path-5);}.cls-25,.cls-27{stroke:#8b2b1c;}.cls-25{stroke-width:0.78px;}.cls-26{stroke:#4dc2cb;stroke-width:3.29px;}.cls-27{stroke-width:0.88px;}.cls-28{stroke-width:2.56px;}.cls-29{stroke:#bf774d;stroke-width:1.02px;}.cls-32,.cls-36{stroke:#fff;}.cls-32{stroke-width:4.51px;}.cls-33{fill-rule:evenodd;}.cls-34{fill:#dcddde;opacity:0.35;}.cls-35,.cls-36{fill:#221f1f;}.cls-36,.cls-37{stroke-width:2.27px;}.cls-37{stroke:#424143;}</style><clipPath id="clip-path"><path class="cls-1" d="M352.79,132.28c-.07,4-5.31,10.37-8.83,19.08a25.47,25.47,0,0,1-3.48,6.08,28.76,28.76,0,0,1-7,6.45c-10.19,6.76-23.56,7.37-27.65,4.12a16.84,16.84,0,0,1-6.62-11.36c0-.09,0-.18,0-.26s-.07-.44-.09-.67l0-.17c-.79-7,1.38-15.83,6.89-25.22.12-.22.24-.41.34-.58l-3.5-47.51,30.59-3.48,12.13-1.39,4.78,51.46a3.63,3.63,0,0,1,2.45,2.68A3.25,3.25,0,0,1,352.79,132.28Z"/></clipPath><clipPath id="clip-path-2"><path class="cls-1" d="M278.93,44.18c-6.14,23.21-3.24,45.57,11.61,69.29,2.51,4,8.71,5.68,13.36,4.84l.08,0c17.66-3.24,31.24-13.42,42.33-27.8,0,0,1.09-38.77.85-46.1-20.53-7.22-50-31-50-31S284.79,22.05,278.93,44.18Z"/></clipPath><clipPath id="clip-path-3"><rect class="cls-2" x="334.04" y="338.43" width="63.37" height="34.32" rx="17.16" transform="translate(731.45 711.19) rotate(-180)"/></clipPath><clipPath id="clip-path-4"><path class="cls-3" d="M219.63,274.69H28.35V92.4a10,10,0,0,1,10-10h167A14.46,14.46,0,0,1,219.63,97Z"/></clipPath><clipPath id="clip-path-5"><path class="cls-4" d="M212.92,274.69H28.35V95.56A9.74,9.74,0,0,1,38,85.72H199.13c7.62,0,13.79,6.42,13.79,14.35Z"/></clipPath></defs><title>Asset 2</title><g class="cls-5"><g id="Layer_2" data-name="Layer 2"><g id="Layer_1-2" data-name="Layer 1"><path class="cls-6" d="M331.26,172H475.12a0,0,0,0,1,0,0V353.49a0,0,0,0,1,0,0H436.38A105.13,105.13,0,0,1,331.26,248.36V172A0,0,0,0,1,331.26,172Z" transform="translate(791.78 546.64) rotate(-176.94)"/><path class="cls-7" d="M443.69,337.43,333.1,327.88,317.19,226.75c-11-46.83-12.81-24.33,5.49-28,16.81-3.37,14.63-1.29,27.43-1.65,26.81-.77,24-14.89,20.31,11,0,0,13.28-15.53,23.6-13.72,11.52,48.3,53.09,130.49,53.09,130.49A12.82,12.82,0,0,1,443.69,337.43Z"/><path class="cls-8" d="M323.69,154.06c0,18.12-15.16,32.81-33.85,32.81S256,172.18,256,154.06a32.72,32.72,0,0,1,14.37-26.83c6.53-4.54,30.08-12.73,37.25-25.71C316.65,85.16,323.69,136,323.69,154.06Z"/><path class="cls-7" d="M309.51,306.43c-6-51.55-38.05-118.11-38.05-118.11-9.15-40.29,17.56-51.81,35.85-55.4,16.82-3.31,57.44-1.8,70.24-2.16,26.81-.75,32.95,25.29,29.27,50.73l-61.64,23.2,2.19,96.6S315.54,358,309.51,306.43Z"/><path class="cls-9" d="M309.51,306.43C357.07,286.2,321.94,246,296,206.81s-8.05-69.93,10.24-73.53c16.82-3.31,58.54-2.16,71.34-2.52,26.81-.75,32.95,25.29,29.27,50.73L364.75,213.4l19.75,82.31S261.74,326.74,309.51,306.43Z"/><ellipse class="cls-10" cx="293.16" cy="28.46" rx="24.54" ry="24.98"/><path class="cls-11" d="M292.34,53.44a26.56,26.56,0,0,1-12-2.64,26.36,26.36,0,0,1-9.54-8A26.07,26.07,0,0,1,266.15,31a26.63,26.63,0,0,1,1.62-12.69,27.23,27.23,0,0,1,7.61-10.48,27.69,27.69,0,0,1,11.76-5.75,30.63,30.63,0,0,1,6.62-.62A27.82,27.82,0,0,1,312.07,9l-3.59,3.65a23.21,23.21,0,0,0-9.39-5.91,24.21,24.21,0,0,0-5.54-1.12,27.13,27.13,0,0,0-5.69.24,23.76,23.76,0,0,0-17.73,13.46,24.48,24.48,0,0,0-2.07,11.51A24.58,24.58,0,0,0,271.81,42a25.68,25.68,0,0,0,8.78,8.21A26.37,26.37,0,0,0,292.34,53.44Z"/><path class="cls-1" d="M352.79,132.28c-.07,4-5.31,10.37-8.83,19.08a25.47,25.47,0,0,1-3.48,6.08,28.76,28.76,0,0,1-7,6.45c-10.19,6.76-23.56,7.37-27.65,4.12a16.84,16.84,0,0,1-6.62-11.36c0-.09,0-.18,0-.26s-.07-.44-.09-.67l0-.17c-.79-7,1.38-15.83,6.89-25.22.12-.22.24-.41.34-.58l-3.5-47.51,30.59-3.48,12.13-1.39,4.78,51.46a3.63,3.63,0,0,1,2.45,2.68A3.25,3.25,0,0,1,352.79,132.28Z"/><g class="cls-12"><path class="cls-13" d="M302.49,132.25c-10.58,3.75-.94-12.17.85-13.83,9.49-8.77,16.26-12.35,20.57-13.75a5.08,5.08,0,0,1,6.61,5.71C329.46,116.22,324.34,126.1,302.49,132.25Z"/></g><path class="cls-1" d="M278.93,44.18c-6.14,23.21-3.24,45.57,11.61,69.29,2.51,4,8.71,5.68,13.36,4.84l.08,0c17.66-3.24,31.24-13.42,42.33-27.8,0,0,1.09-38.77.85-46.1-20.53-7.22-50-31-50-31S284.79,22.05,278.93,44.18Z"/><g class="cls-14"><path class="cls-15" d="M268.35,21c0,1.66,0,3.34,0,5,0,6.5-4.8,15.1-4.29,21.84,2.12,27.91,10.58,45.66,19.72,66.23.25.21,3,7.7,3.22,7.89,2.93-.16,14.5,0,14.5,0S276.2,77,290.54,27.45c2.77-5.29,6.59,4.64,13.63,4.07a114.73,114.73,0,0,1,31.71,2.1L289,1.66Z"/></g><path class="cls-16" d="M99.14,376.39H298.59c3.78-.05,6.82-2.7,6.84-6.47l.34-56.68-206.24.7Z"/><path class="cls-3" d="M99.35,365.61H290.76c3.79,0,6.85-4.43,6.87-8.23l.17-44.28H99.54Z"/><rect class="cls-4" x="185.42" y="349.19" width="17.6" height="6.49" rx="3.25"/><rect class="cls-4" x="212.02" y="349.19" width="17.6" height="6.49" rx="3.25"/><rect class="cls-4" x="238.62" y="349.19" width="17.6" height="6.49" rx="3.25"/><rect class="cls-4" x="265.21" y="349.19" width="17.6" height="6.49" rx="3.25"/><rect class="cls-4" x="132.22" y="349.19" width="17.6" height="6.49" rx="3.25"/><rect class="cls-4" x="158.82" y="349.19" width="17.6" height="6.49" rx="3.25"/><rect class="cls-4" x="185.42" y="336.2" width="17.6" height="6.49" rx="3.25"/><rect class="cls-4" x="212.02" y="336.2" width="17.6" height="6.49" rx="3.25"/><rect class="cls-4" x="238.62" y="336.2" width="17.6" height="6.49" rx="3.25"/><rect class="cls-4" x="265.21" y="336.2" width="17.6" height="6.49" rx="3.25"/><rect class="cls-4" x="132.22" y="336.2" width="17.6" height="6.49" rx="3.25"/><rect class="cls-4" x="158.82" y="336.2" width="17.6" height="6.49" rx="3.25"/><path class="cls-4" d="M225.22,329.05h-35.4c-2.42,0-4.4-1.46-4.4-3.24s2-3.25,4.4-3.25h35.4c2.42,0,4.4,1.46,4.4,3.25S227.64,329.05,225.22,329.05Z"/><rect class="cls-4" x="238.62" y="322.56" width="17.6" height="6.49" rx="3.25"/><rect class="cls-4" x="265.21" y="322.56" width="17.6" height="6.49" rx="3.25"/><rect class="cls-4" x="132.22" y="322.56" width="17.6" height="6.49" rx="3.25"/><rect class="cls-4" x="158.82" y="322.56" width="17.6" height="6.49" rx="3.25"/><path class="cls-1" d="M292.76,42.81c-5.72,24.07-10.33,31.49-13.18,38a3.19,3.19,0,0,0,.55,3.66l16,6.14,7.66-3.18C305.05,84,292.76,42.81,292.76,42.81Z"/><path class="cls-17" d="M295.86,99.39c7.81-1.55,14.3-5.3,18.18-9.94-3.07,12-17.82,21.46-25.88,10.67A37.34,37.34,0,0,0,295.86,99.39Z"/><path class="cls-18" d="M285.85,98.49c5.12,3,18.94,2.18,27.39-7.29"/><path class="cls-19" d="M334.37,313.54l.05,0,.09-.09Z"/><path class="cls-20" d="M370.42,311.81s-82.87,18.85-99.78,22.61c-.32.38-12.29,7.76-21.42-4.15-7.77-3.5-16.13-6.48-19-3.94A96.93,96.93,0,0,0,218,339a8.22,8.22,0,0,1-10.43,2c-4.67-2.67-10.28-5.84-10.28-5.84,5.28-13.21,20.27-29.93,36.44-31.76,7.81,2.43,22.53,6.11,30,8.9,11.73-1.91,102-31.12,102-31.12"/><rect class="cls-2" x="334.04" y="338.43" width="63.37" height="34.32" rx="17.16" transform="translate(731.45 711.19) rotate(-180)"/><g class="cls-21"><line class="cls-22" x1="355.75" y1="335.21" x2="355.75" y2="378.04"/></g><path class="cls-7" d="M304.88,132.25a31.83,31.83,0,0,0-5.14,10.92,29.82,29.82,0,0,0-.69,12A32,32,0,0,0,303,166.38a45.58,45.58,0,0,0,7.26,9.5l.19.19,0,.3L314.05,205l-1.32-1.19,12.29-.21v3.08l-12.29-.22-1.21,0-.11-1.16-2.58-28.73.22.49A47.31,47.31,0,0,1,301.9,167a32.94,32.94,0,0,1-3.67-11.75,30.31,30.31,0,0,1,1.11-12.17A32.16,32.16,0,0,1,304.88,132.25Z"/><path class="cls-3" d="M219.63,274.69H28.35V92.4a10,10,0,0,1,10-10h167A14.46,14.46,0,0,1,219.63,97Z"/><g class="cls-23"><rect class="cls-3" y="3.4" width="192.07" height="288.65"/></g><path class="cls-4" d="M212.92,274.69H28.35V95.56A9.74,9.74,0,0,1,38,85.72H199.13c7.62,0,13.79,6.42,13.79,14.35Z"/><g class="cls-24"><rect class="cls-4" x="0.99" y="8.11" width="185.34" height="283.65"/></g><rect class="cls-4" x="75.37" y="202.06" width="57.87" height="72.63"/><rect class="cls-3" x="201.4" y="225.76" width="13.11" height="10.09"/><rect class="cls-3" x="201.4" y="242.99" width="13.11" height="10.09"/><path class="cls-7" d="M171.74,299.67c76.62-30.25,88.1-97,101.18-141.15,12-5.76,4.47,59.63,17.56,57.44-1.73,9.1,12.4,7.11,9.79,14.37-14,38.95-49.65,56.66-97.07,82.24a16.78,16.78,0,0,1-19-2.08Z"/><path class="cls-20" d="M157.42,289.37c7.21.29,16.43,4.11,27,7,9.57-4.31,22.86,7,9.29,14.07-.18.39-8.7,9.43-19.21,1.37-7.42-1.21-15.23-1.84-17.13,1a88.63,88.63,0,0,0-8.07,15,5.37,5.37,0,0,1-6.29,3c-4.79-1.26-11.64-3-11.64-3C132.84,315.4,144.05,294.63,157.42,289.37Z"/><path class="cls-25" d="M159,294.65s-15.69,3.27-23.6,33.81"/><path class="cls-25" d="M164.69,297.94s-15.23,4.34-23.33,32.47"/><path class="cls-20" d="M175.12,303.63a62.32,62.32,0,0,0-14.82,17,4.07,4.07,0,0,0,2.3,5.93h0a4,4,0,0,0,4.58-1.64c2.48-3.81,7.79-10.76,14.88-13.26"/><rect class="cls-16" x="28.35" y="265.76" width="191.28" height="10.76"/><polygon class="cls-4" points="114.14 387.87 51.21 387.87 66.69 178.4 129.63 178.4 114.14 387.87"/><polygon class="cls-4" points="117.13 377.48 110.89 377.48 124.18 202.06 130.42 202.06 117.13 377.48"/><path class="cls-4" d="M180.3,387.87H56.49V372H164.43a15.86,15.86,0,0,1,15.87,15.86Z"/><path class="cls-26" d="M355.6,354.56H322.82a4.58,4.58,0,0,0-4.62,4.53v42.28a18.34,18.34,0,0,1-18.51,18.16h-139c-10.23,0-18.51-8.72-18.51-24.64V366.32"/><path class="cls-20" d="M226.23,307.63a59.49,59.49,0,0,0-22.93,1.1,2.85,2.85,0,0,0-1.75,4.16h0a2.83,2.83,0,0,0,3.25,1.34c3.36-.93,9.95-2.34,14.39-.44C225.35,316.43,242.07,309.83,226.23,307.63Z"/><path class="cls-9" d="M264.51,309.62l89.09-26.89-5.07-86.16,58.29-19.39-3,116.56a27.46,27.46,0,0,1-23,26.29L274.09,337.6Z"/><path class="cls-27" d="M237.29,306.9s-18.11-1-35.73,30.07"/><path class="cls-27" d="M242.58,312.18s-17.93.27-35.06,28.68"/><ellipse class="cls-11" cx="278.68" cy="62.52" rx="2.57" ry="3.46"/><ellipse class="cls-11" cx="307.22" cy="62.01" rx="3.29" ry="3.97"/><path class="cls-28" d="M282.35,43.83S278,47.16,276,51"/><path class="cls-11" d="M373.49,105.62c-2.37-2.79-3-6.62-5.63-9.39-1.27-1.66-7.13-7.78-2.39-14,12.29-16.13,3.58-50.7,1.54-55C345.9-17.67,297.9,6.36,297.37,7c-5.12,5.8-6.65,8.59-6.66,8.7-2.12,21.15,27.14,37,51,46.94.85,14.52-1,51.29-14.68,100.7C310.81,221.83,446.37,191.3,373.49,105.62Z"/><path class="cls-11" d="M363.36,91.71a154.36,154.36,0,0,1,20.87,21.81,94.48,94.48,0,0,1,8.3,12.69,58.35,58.35,0,0,1,5.54,14.19,37.9,37.9,0,0,1,.61,15.22,34.74,34.74,0,0,1-5.87,13.93,46.18,46.18,0,0,1-4.81,5.79l-2.75,2.56-.69.64-.74.58-1.48,1.15a67.73,67.73,0,0,1-6.13,4.26c-1,.72-2.15,1.26-3.22,1.89l-3.25,1.81,3.17-1.95c1-.67,2.14-1.25,3.13-2a69.57,69.57,0,0,0,5.9-4.5l1.41-1.2.71-.6.65-.66,2.59-2.63a44.71,44.71,0,0,0,4.44-5.84,33,33,0,0,0,5-13.51A35.59,35.59,0,0,0,395.59,141a55.92,55.92,0,0,0-5.84-13.25,89.82,89.82,0,0,0-8.52-11.86,148.81,148.81,0,0,0-21.16-20.29Z"/><path class="cls-11" d="M293.34,19.72a15,15,0,0,0-.51,3.51,14,14,0,0,0,.43,3.49c.19.58.29,1.18.53,1.75l.71,1.73c.25.57.61,1.11.9,1.68a14.79,14.79,0,0,0,1,1.65,45.82,45.82,0,0,0,5,6.16c.95.94,1.88,1.91,2.85,2.84l3.05,2.68c1,.92,2.11,1.71,3.17,2.55s2.14,1.69,3.25,2.48L317,52.58c1.13.77,2.23,1.58,3.41,2.28,2.32,1.44,4.61,3,7,4.34l7.15,4.09-7.45-3.53c-2.48-1.19-4.89-2.53-7.34-3.8-1.23-.61-2.41-1.34-3.6-2l-3.58-2.09c-1.19-.72-2.32-1.51-3.49-2.26s-2.34-1.49-3.44-2.36l-3.35-2.5c-1.08-.89-2.13-1.83-3.2-2.74a48.78,48.78,0,0,1-5.86-6.22A16.34,16.34,0,0,1,292,34c-.39-.62-.84-1.21-1.19-1.86l-1-2c-.34-.67-.55-1.42-.83-2.13a18.59,18.59,0,0,1-.93-4.61,20.32,20.32,0,0,1,.29-4.66Z"/><path class="cls-1" d="M339.7,61.93s16.72,2,2.39,20.14S339.7,61.93,339.7,61.93Z"/><path class="cls-29" d="M288.83,56.46a80.47,80.47,0,0,1-9.21,25,1.43,1.43,0,0,0,.8,1.84l10.46,4.09"/><path class="cls-17" d="M342.77,70.8c0,2.58-1.68,4.68-3.77,4.78,0-.57,0-1.14,0-1.7q0-4-.34-7.85h.17C341,66,342.77,68.16,342.77,70.8Z"/><rect class="cls-3" x="483.27" y="191.72" width="339.87" height="84.14" rx="4.45"/><rect class="cls-6" x="736.72" y="237" width="68.14" height="22.93" rx="5.13"/><rect class="cls-30" x="504.14" y="237.79" width="202.35" height="6.41" rx="1"/><rect class="cls-30" x="602.39" y="222.06" width="128.77" height="6.41" rx="1"/><rect class="cls-30" x="504.14" y="253.52" width="215.18" height="6.41" rx="1"/><g class="cls-31"><path class="cls-11" d="M506.92,223.69a7.36,7.36,0,0,0,1.8,1.15,4.83,4.83,0,0,0,1.95.44,2.59,2.59,0,0,0,1.59-.4,1.27,1.27,0,0,0,.53-1.07,1.23,1.23,0,0,0-.15-.61,1.48,1.48,0,0,0-.45-.45,3.49,3.49,0,0,0-.7-.37l-.89-.39-2-.83a5.9,5.9,0,0,1-1.13-.61,5.09,5.09,0,0,1-1-.87,4,4,0,0,1-.69-1.17,4.14,4.14,0,0,1-.25-1.5,4.08,4.08,0,0,1,.39-1.76,4.45,4.45,0,0,1,1.12-1.44,5.12,5.12,0,0,1,1.71-1,6.6,6.6,0,0,1,2.18-.35,7.1,7.1,0,0,1,2.62.51,6.63,6.63,0,0,1,2.27,1.49l-1.75,2.17a6.36,6.36,0,0,0-1.49-.9,4.15,4.15,0,0,0-1.65-.31,2.45,2.45,0,0,0-1.41.36,1.16,1.16,0,0,0-.52,1,1,1,0,0,0,.17.6,1.76,1.76,0,0,0,.49.44,4.51,4.51,0,0,0,.73.37l.91.39,2,.79a5.29,5.29,0,0,1,2.2,1.54,3.9,3.9,0,0,1,.8,2.58,4.29,4.29,0,0,1-.38,1.81,4.47,4.47,0,0,1-1.12,1.49,5.61,5.61,0,0,1-1.8,1,7.12,7.12,0,0,1-2.43.39,8.66,8.66,0,0,1-3-.55,7.9,7.9,0,0,1-2.64-1.64Z"/><path class="cls-11" d="M519,216.4h3.42v6.73a3.08,3.08,0,0,0,.35,1.73,1.29,1.29,0,0,0,1.1.46,1.89,1.89,0,0,0,1.09-.3,4.26,4.26,0,0,0,1-1V216.4h3.42V228h-2.79l-.26-1.61h-.07a6.56,6.56,0,0,1-1.59,1.39,4,4,0,0,1-2,.5,3.1,3.1,0,0,1-2.74-1.24,5.92,5.92,0,0,1-.85-3.42Z"/><path class="cls-11" d="M536.2,228.87v3.37h-3.43V216.4h2.8l.23,1.14h.09a6.45,6.45,0,0,1,1.53-1,4.05,4.05,0,0,1,1.76-.41,4,4,0,0,1,3.31,1.61,5.79,5.79,0,0,1,.89,1.85,8.62,8.62,0,0,1,.32,2.41,8,8,0,0,1-.41,2.65,6.11,6.11,0,0,1-1.09,2,4.71,4.71,0,0,1-1.57,1.23,4.09,4.09,0,0,1-1.8.42,3.51,3.51,0,0,1-1.45-.32,4.78,4.78,0,0,1-1.3-.89Zm0-4.17a2.79,2.79,0,0,0,.93.58,2.69,2.69,0,0,0,.91.16,1.88,1.88,0,0,0,1.51-.8,4.25,4.25,0,0,0,.63-2.6c0-2.08-.67-3.12-2-3.12a2.76,2.76,0,0,0-2,1.05Z"/><path class="cls-11" d="M550,228.87v3.37h-3.42V216.4h2.79l.23,1.14h.1a6.59,6.59,0,0,1,1.52-1,4.09,4.09,0,0,1,1.76-.41,4.17,4.17,0,0,1,1.89.42,4.06,4.06,0,0,1,1.42,1.19,5.6,5.6,0,0,1,.9,1.85,8.63,8.63,0,0,1,.31,2.41,7.72,7.72,0,0,1-.41,2.65,5.92,5.92,0,0,1-1.09,2,4.77,4.77,0,0,1-1.56,1.23,4.14,4.14,0,0,1-1.81.42,3.47,3.47,0,0,1-1.44-.32,4.83,4.83,0,0,1-1.31-.89Zm0-4.17a2.79,2.79,0,0,0,.93.58,2.73,2.73,0,0,0,.91.16,1.86,1.86,0,0,0,1.51-.8A4.25,4.25,0,0,0,554,222c0-2.08-.66-3.12-2-3.12a2.76,2.76,0,0,0-2,1.05Z"/><path class="cls-11" d="M560.4,211.63h3.42v12.88a1.06,1.06,0,0,0,.2.74.57.57,0,0,0,.41.21h.2a.73.73,0,0,0,.22,0l.42,2.54a5.3,5.3,0,0,1-.71.2,6,6,0,0,1-1,.08,3.67,3.67,0,0,1-1.49-.28,2.47,2.47,0,0,1-1-.78,3.42,3.42,0,0,1-.53-1.21,7.17,7.17,0,0,1-.16-1.6Z"/><path class="cls-11" d="M569.23,214.7a2,2,0,0,1-1.42-.5,1.62,1.62,0,0,1-.56-1.29,1.59,1.59,0,0,1,.56-1.28,2.32,2.32,0,0,1,2.85,0,1.61,1.61,0,0,1,.55,1.28,1.64,1.64,0,0,1-.55,1.29A2,2,0,0,1,569.23,214.7Zm-1.7,1.7H571V228h-3.42Z"/><path class="cls-11" d="M573.75,222.18a6.63,6.63,0,0,1,.46-2.53,5.93,5.93,0,0,1,1.23-1.91,5.28,5.28,0,0,1,1.73-1.2,5.41,5.41,0,0,1,4.18,0,4.18,4.18,0,0,1,1.54,1.17,4.84,4.84,0,0,1,.92,1.76,7.7,7.7,0,0,1,.3,2.2,7.46,7.46,0,0,1,0,.85c0,.25-.07.45-.1.59h-6.92a2.86,2.86,0,0,0,1,1.92,3.2,3.2,0,0,0,2,.6,4.78,4.78,0,0,0,2.49-.77l1.14,2.07a7.51,7.51,0,0,1-2,1,7,7,0,0,1-2.13.35,6.43,6.43,0,0,1-2.3-.41,5.29,5.29,0,0,1-1.87-1.19,5.43,5.43,0,0,1-1.23-1.9A6.8,6.8,0,0,1,573.75,222.18ZM581.2,221a2.8,2.8,0,0,0-.44-1.63,1.7,1.7,0,0,0-1.49-.63,2.09,2.09,0,0,0-1.44.55A2.81,2.81,0,0,0,577,221Z"/><path class="cls-11" d="M587.47,224.49a6.81,6.81,0,0,0,1.51.9,3.63,3.63,0,0,0,1.47.31,2,2,0,0,0,1.12-.26.85.85,0,0,0,.35-.72.74.74,0,0,0-.2-.5,2,2,0,0,0-.54-.41,5.4,5.4,0,0,0-.76-.34c-.27-.1-.56-.21-.86-.34s-.71-.3-1.07-.48a4.81,4.81,0,0,1-1-.69,3.45,3.45,0,0,1-.72-1,2.67,2.67,0,0,1-.28-1.27,3.42,3.42,0,0,1,.32-1.46,3.22,3.22,0,0,1,.89-1.15,4.53,4.53,0,0,1,1.4-.73,5.75,5.75,0,0,1,1.82-.27,5.66,5.66,0,0,1,2.33.46,9.26,9.26,0,0,1,1.74,1l-1.53,2a5.92,5.92,0,0,0-1.24-.72,3.1,3.1,0,0,0-1.21-.26c-.87,0-1.3.31-1.3.91a.68.68,0,0,0,.18.48,2,2,0,0,0,.5.36,5.72,5.72,0,0,0,.73.31l.85.32a11.82,11.82,0,0,1,1.1.48,4.56,4.56,0,0,1,1,.66,3,3,0,0,1,.74,1,3.14,3.14,0,0,1,.28,1.36,3.43,3.43,0,0,1-.31,1.47,3.18,3.18,0,0,1-.9,1.17,4.66,4.66,0,0,1-1.5.8,6.77,6.77,0,0,1-4.39-.16,7.09,7.09,0,0,1-2.08-1.16Z"/></g><circle class="cls-6" cx="71.6" cy="84.2" r="59.76"/><polyline class="cls-32" points="26.44 64.49 43.42 64.49 61.41 102.08 95.37 102.08 108.86 74.02 58.25 74.02"/><g class="cls-5"><path class="cls-33" d="M98.67,113.76A5.67,5.67,0,1,1,93,108.09a5.67,5.67,0,0,1,5.67,5.67"/></g><g class="cls-5"><path class="cls-33" d="M68.31,113.76a5.68,5.68,0,1,1-5.67-5.67,5.67,5.67,0,0,1,5.67,5.67"/></g><path class="cls-3" d="M73.9,92.37h2.89V84.68H74.3v-1.9a9.6,9.6,0,0,0,3.31-1.21h2.26v10.8h2.49v2.49H73.9Z"/><polygon class="cls-34" points="556.41 97.45 540.4 110 584.77 112.27 596.93 97.9 556.41 97.45"/><circle class="cls-3" cx="554.42" cy="87.5" r="75.73"/><path class="cls-35" d="M514.12,69.52c-3.21-.14-11.92,16.4-8.26,28.73-.05,3.74-2.76,7.59,1,10.13,1.56,1,66.3,3,66.3,3l35.69-3.5a14.76,14.76,0,0,0-.52-9.54c-.62-4.85-13-7.94-25-13.55s-39.23-24.44-39.23-24.44S533,65.05,539.45,74.74c2.81,7-12.48,6.9-15.83,3.73S514.12,69.52,514.12,69.52Z"/><line class="cls-36" x1="559.34" y1="71.8" x2="554.47" y2="80.73"/><line class="cls-36" x1="566.01" y1="75.96" x2="562.41" y2="83.62"/><line class="cls-36" x1="572.58" y1="79.87" x2="568.89" y2="86.81"/><line class="cls-36" x1="579.02" y1="83.9" x2="575.47" y2="90.48"/><path class="cls-37" d="M508.32,99.69l55.44,2.54a136.3,136.3,0,0,0,18.41-.4L606,99.71"/></g></g></g></svg>