<svg xmlns="http://www.w3.org/2000/svg" xmlns:xlink="http://www.w3.org/1999/xlink" viewBox="0 0 829.3 517.42"><defs><style>.cls-1{fill:#2a1d2a;}.cls-2{fill:#e7a386;}.cls-3{fill:#c0784d;}.cls-4{isolation:isolate;}.cls-5{fill:#4dc2cb;}.cls-6{clip-path:url(#clip-path);}.cls-7{clip-path:url(#clip-path-2);}.cls-8{fill:#0e2438;}.cls-9{fill:#59595c;}.cls-10{fill:#1c3849;}.cls-11{fill:#fff;}.cls-12{fill:#794d30;}.cls-13{clip-path:url(#clip-path-3);}.cls-14{fill:#bf774d;opacity:0.51;mix-blend-mode:multiply;}.cls-15{fill:#f2c15f;}.cls-16{fill:#dba33f;}.cls-17{fill:#8e2640;}.cls-18{fill:#a8cada;}.cls-19{fill:#b6d9e5;}.cls-20{fill:url(#New_Gradient_Swatch);}.cls-21{fill:#bf3552;}.cls-22{fill:#146976;}.cls-23{fill:#329eb2;}.cls-24{fill:#dcddde;opacity:0.35;}.cls-25,.cls-26{fill:#221f1f;}.cls-26{stroke:#fff;}.cls-26,.cls-27{stroke-linecap:round;stroke-linejoin:round;stroke-width:2.27px;}.cls-27{fill:none;stroke:#424143;}</style><clipPath id="clip-path"><polygon class="cls-1" points="688.04 496.75 713.39 481.36 712.24 382.46 729.36 433.99 723.01 495.03 688.04 496.75"/></clipPath><clipPath id="clip-path-2"><path class="cls-2" d="M739.12,427.18l8.82-8.68,45.14,17.17a3.42,3.42,0,0,1,2.19,3.26l-.68,34.62-9.69-24.69Z"/></clipPath><clipPath id="clip-path-3"><path class="cls-3" d="M687.5,180.51c2-12.64,9.85-16.4,22.43-15.09,8.57.89,7.59,13.22,6.09,21l7,5.32,4.51,16-14.84,10.41-2.65.43-6.49-7.22a77.21,77.21,0,0,1-8.77,3.82c-1.74-3.3-3.67-6.78-3.67-6.78l-1.51-.54a1,1,0,0,1-.6-1.3l.36-.91-2.27-5-4-1.16a1.86,1.86,0,0,1-1.26-2.61C685.7,191,687.07,189.88,687.5,180.51Z"/></clipPath><linearGradient id="New_Gradient_Swatch" x1="135.85" y1="88.14" x2="369.46" y2="88.14" gradientTransform="translate(-132.78 150.99) rotate(2.53)" gradientUnits="userSpaceOnUse"><stop offset="0" stop-color="#eeeded"/><stop offset="1" stop-color="#f7f8f9"/></linearGradient></defs><title>Asset 3</title><g class="cls-4"><g id="Layer_2" data-name="Layer 2"><g id="Layer_1-2" data-name="Layer 1"><path class="cls-5" d="M358,0,303.15,218.55C274.46,332.83,360.87,443.62,478.7,443.62H812.85V36.42A36.43,36.43,0,0,0,776.43,0Z"/><path class="cls-3" d="M638,180.48c0-.92-7.39,1.27-7.39,1.27a63.94,63.94,0,0,0,23.64,60.12,67.76,67.76,0,0,0,7.07,4.91l29.17-8.49a64.9,64.9,0,0,1-28.7-13.23,67.15,67.15,0,0,1-11.95-12.27c-7.44-9.93-11.51-21.33-11.84-32.31"/><path class="cls-3" d="M639.08,176.5s.95,2.42-.93,6.77c2,6.27-.71,56.83-8.65.61a17.9,17.9,0,0,1-1.62-14.41,16.34,16.34,0,0,1,5.22-1.95.71.71,0,0,1,.84.57l2,11.23,1.45-.44.94-2.68Z"/><polygon class="cls-1" points="688.04 496.75 713.39 481.36 712.24 382.46 729.36 433.99 723.01 495.03 688.04 496.75"/><g class="cls-6"><rect class="cls-1" x="681.12" y="465.81" width="57.24" height="49.32" transform="translate(1457.78 920.28) rotate(175.23)"/></g><path class="cls-2" d="M739.12,427.18l8.82-8.68,45.14,17.17a3.42,3.42,0,0,1,2.19,3.26l-.68,34.62-9.69-24.69Z"/><g class="cls-7"><rect class="cls-8" x="754.8" y="429.32" width="70.2" height="49.32" transform="translate(1590.74 19.6) rotate(121.64)"/></g><path class="cls-8" d="M772.61,450.5c-109.12-28.76-75.1-125-75.1-125l61.79-.95s-65,62.53,21.76,99.25c0,0-1.33,8.51-1.33,8.53C779.75,432.76,775,445,772.61,450.5Z"/><polygon class="cls-9" points="731.59 469.47 760.05 314.26 717.85 319.33 702.22 330.69 707.54 473.41 731.59 469.47"/><polygon class="cls-10" points="731.59 469.47 760.05 314.26 717.85 319.33 702.22 330.69 707.54 473.41 731.59 469.47"/><path class="cls-11" d="M741.29,224.49,748,273.1l.84,9.34c9.39-1.57,17.21-21,10.13-31.68Z"/><path class="cls-12" d="M690.38,175.18c2.68,7.47,6.21,10.87,17.63,9.92s17.11-5.33,18.39-13.16c1.77-10.81-9.6-16.41-19.4-15.41C693.75,157.88,687.54,167.24,690.38,175.18Z"/><path class="cls-3" d="M687.5,180.51c2-12.64,9.85-16.4,22.43-15.09,8.57.89,7.59,13.22,6.09,21l7,5.32,4.51,16-14.84,10.41-2.65.43-6.49-7.22a77.21,77.21,0,0,1-8.77,3.82c-1.74-3.3-3.67-6.78-3.67-6.78l-1.51-.54a1,1,0,0,1-.6-1.3l.36-.91-2.27-5-4-1.16a1.86,1.86,0,0,1-1.26-2.61C685.7,191,687.07,189.88,687.5,180.51Z"/><g class="cls-13"><path class="cls-14" d="M709.42,200.73S708.82,211,694.78,217s17.94,1.15,17.94,1.15S713.49,206,709.42,200.73Z"/></g><path class="cls-12" d="M695.23,185.31a21.21,21.21,0,0,0-2.11-1.21,11.87,11.87,0,0,0-2.06-.69,16.7,16.7,0,0,0-2.21-.37c-.39,0-.79-.07-1.19-.08a4.68,4.68,0,0,0-1.28.07,1.67,1.67,0,0,1,.21-.33,3.7,3.7,0,0,1,.28-.28,3.32,3.32,0,0,1,.62-.44,5.6,5.6,0,0,1,4.18-.6,4.91,4.91,0,0,1,2.43,1.36A4.29,4.29,0,0,1,695.23,185.31Z"/><path class="cls-12" d="M699.84,193.38s7.41,4.14,12.71,3.7c10.61-.88,18.59-8.94,17.84-18s-10-15.69-20.57-14.8c-1.77.14-5.07,2.18-7.75,4a8.79,8.79,0,0,0-3.75,8Z"/><ellipse class="cls-3" cx="707.43" cy="192.85" rx="5.19" ry="3.5" transform="matrix(0.25, -0.97, 0.97, 0.25, 343.33, 829.31)"/><path class="cls-12" d="M685.49,163.07c-.73,6.14,4.6,11.83,11.93,12.71s13.85-3.38,14.59-9.52a9.17,9.17,0,0,0-.15-3.14c-1,5.89-7.38,9.92-14.52,9.06-6.05-.72-10.74-4.73-11.78-9.56C685.53,162.77,685.51,162.92,685.49,163.07Z"/><path class="cls-12" d="M716.63,163s-21.34-5.3-25.15,7.91c6,7.13,16.59.61,16.59.61Z"/><path class="cls-15" d="M727.53,204.54s-16.21,6.31-22.88,16.05c-12.49,24.46-8.36,39-8.36,39l-2.13,73s39.87-4.42,74.77-3.46c1.33-30.68-12.07-44.82-16-62.37s-5.52-45.41-22.12-53.1Z"/><path class="cls-16" d="M699,231.69c-12.49,24.46-2.66,27.9-2.66,27.9l-.6,41.05s24-38.71,24-57.2C719.65,226.46,705.62,222,699,231.69Z"/><path class="cls-11" d="M661.21,220.55c13.6,7.9,21.95,11.46,36.12,10.35,31.93-2.5,17.66,31.61-9.28,27.78-13.13-1.87-24.1-6.73-33.78-11.06C652.29,242.67,653.76,228.35,661.21,220.55Z"/><polygon class="cls-17" points="344.93 433.4 243.87 428.95 248.41 325.93 310.23 328.65 347.22 381.4 344.93 433.4"/><rect class="cls-18" x="20.99" y="272.11" width="195.77" height="150.59" rx="1.53" transform="translate(15.42 -4.9) rotate(2.53)"/><rect class="cls-19" x="65.02" y="274.06" width="195.77" height="150.59" rx="1.53" transform="translate(15.55 -6.84) rotate(2.53)"/><path class="cls-20" d="M.38,223.36l43.9,1.94c.21,0,163.4,7.36,163.4,7.54l23.82,43.83c0,.19-163.22-6.86-163.42-6.87l-43.9-1.93a.37.37,0,0,1-.36-.35L0,223.68A.36.36,0,0,1,.38,223.36Z"/><polygon class="cls-21" points="363.64 434.23 262.58 429.77 267.13 326.75 328.94 329.48 365.94 382.23 363.64 434.23"/><path class="cls-18" d="M364.91,405.54l-.52,11.83-14-.61.35-8a3.88,3.88,0,0,1,4-3.7Z"/><path class="cls-18" d="M356.29,382l-83-1.54L275,340.68a4.89,4.89,0,0,1,5.1-4.67L324.25,338A4.91,4.91,0,0,1,328,340l28.34,39.74Z"/><path class="cls-1" d="M88,421.42a30,30,0,0,1-59.8-2.64Z"/><path class="cls-22" d="M79.89,421.06a21.84,21.84,0,0,1-43.57-1.92Z"/><path class="cls-1" d="M284.33,430.07a30,30,0,0,1-59.8-2.63Z"/><path class="cls-22" d="M276.21,429.72a21.84,21.84,0,0,1-43.57-1.93Z"/><rect class="cls-17" x="19.83" y="389.49" width="11.85" height="14.04" transform="translate(-371.51 404.77) rotate(-87.47)"/><rect class="cls-17" x="50.29" y="390.84" width="11.85" height="14.04" transform="translate(-343.74 436.48) rotate(-87.47)"/><rect class="cls-21" x="66.39" y="389.46" width="11.85" height="18.21" transform="translate(-329.05 453.25) rotate(-87.47)"/><rect class="cls-17" x="273.48" y="387.36" width="16.37" height="6.87" transform="translate(17.49 -12.03) rotate(2.53)"/><rect class="cls-22" x="17.78" y="416.39" width="346.63" height="10.67" rx="0.54" transform="translate(18.77 -8.01) rotate(2.53)"/><circle class="cls-1" cx="114.67" cy="421.45" r="29.95"/><circle class="cls-1" cx="311.88" cy="430.14" r="29.95"/><path class="cls-18" d="M290.9,244.45l-194.84-8.6c-.2,0-.37.11-.38.26L68.45,269.55c0,.15.15.27.36.28l194.83,8.6a.34.34,0,0,0,.39-.26l27.23-33.44C291.26,244.58,291.1,244.46,290.9,244.45Z"/><circle class="cls-22" cx="114.67" cy="421.45" r="21.83"/><circle class="cls-11" cx="114.67" cy="421.45" r="16.59"/><circle class="cls-18" cx="114.67" cy="421.45" r="12.6"/><circle class="cls-19" cx="114.67" cy="421.45" r="5.72"/><circle class="cls-22" cx="311.88" cy="430.14" r="21.83"/><circle class="cls-11" cx="311.88" cy="430.14" r="16.59"/><circle class="cls-18" cx="311.88" cy="430.14" r="12.6"/><circle class="cls-19" cx="311.88" cy="430.14" r="5.72"/><path class="cls-23" d="M639.36,342.79v-.13a7.42,7.42,0,0,0-3.32-5.11l2-27.74L635.25,298l-11.51-34c-1.1-9.19-6.25-16.19-14.12-16.19h-4v-9.08c.92,1.19,3,2.83,6.9,1.1a6.31,6.31,0,0,1-1.73-4,2.13,2.13,0,0,0,3.06,1.19c-1.17-1.42-2.29-4.62-2.87-7.27a16.09,16.09,0,0,0,1.36-6.76,14.42,14.42,0,0,0-.41-3.38,1,1,0,0,0,.77-.56h.1v-7c0-3.74-2.6-6.77-5.8-6.77H590.59c-3.2,0-5.8,3-5.8,6.77v4H574.07a1,1,0,0,0-1,1v1.58a1,1,0,0,0,1,1h11.19v3.92c-1.18,1.88-2.2,3.2-2.2,4a1.74,1.74,0,0,0,1.73,1.73h.47v4.33a7.94,7.94,0,0,0,7.92,7.92h.27v6.55c-12.05,2.25-16.89,17.69-16.89,27.84v2.68c0,6.06.41,22.56.77,36.14l-9.11-28.33a11.72,11.72,0,0,0,2.8-6.12c.78-5-1.41-9.51-4.9-10H566a11.47,11.47,0,0,0-2.91-6.48c3.63-4,4.46-10.32,1.6-16.12-3.71-7.5-12.17-11.19-18.9-8.25-5.48,2.4-8.13,8.46-6.94,14.67a9.74,9.74,0,0,0-.35,1.64l-2.77,2.91,2.75,1.24.06,3a9.08,9.08,0,0,0,8,8.8l.35,6.79-.21.05-31,3.22-10.08-27.88a5.75,5.75,0,0,0,2-4.66s0-.07,0-.11l-.09-9.12-2.73,4.47-2.78-9-4.85,1.71.88,14.83a4.76,4.76,0,0,0,2.57,2.54l4.89,30,0,.08a4.39,4.39,0,0,0,3.41,3.83L534.06,294c0,13.93.22,36.88.22,36.88s2.59.15,3,.09c-11.08,43.61-1.38,106.49-1.38,106.49l-7.69,6.9h56.49l7.3-58.29,4.45.15,1.14-10.52,1.5,10.4,5.07-.35,8.24,50.75-13.85,7.86H621l-1.89-59.63,2.92-.2c-1.4-17.06-2.41-40.68-2.77-49.68h2.61s.76-19.48,1.37-37.34l3.93,7.8,1.93,32.56a6.09,6.09,0,0,0-2.46,3.79l-.21,3c-.14,3,2.5,5.57,5.8,5.82l.93.07a5.78,5.78,0,0,0,4.78-2l2.92-.52ZM544.59,443.32l.87-67,10.9,61.12Zm31.54-6.82-11.36,6.44c-1.17-10.27-7.9-75,1.75-126.72l11.19,15.63-4.81,53.56,5.44.19Z"/><path class="cls-23" d="M517.68,402.69c-1-6.25-3.59-18.49-5.71-29.52-1-5-6.22-7.77-10.68-9.29l-.12-2.36a10.28,10.28,0,0,0,8.82-4.6,3.5,3.5,0,0,0,.74.2,3.21,3.21,0,0,0,2.79-5.34,2.19,2.19,0,0,0,.35-.27,20.46,20.46,0,0,0,4.14-1.94c-4.83-3.47-.49-12-8.31-15.57-3.66-1.68-6.32-.75-8.1.66-7.31-.49-10.08,3.3-11.08,7a6.38,6.38,0,0,1-4.11-.09,10,10,0,0,0,3.71,6.22c0,.19,0,.33.05.39-.05.22-.11.44-.15.67a10.75,10.75,0,0,0,4.28,10.32l-.84,3.3c-4.82.1-19.6,1.18-19.6,1.18l-14.59-13.26-14-24.4L435,290.93c.14-1.78.29-3.35.46-4.62a1.16,1.16,0,0,0-.34-1,22.82,22.82,0,0,0-10.42-5.84l.4-9.72a13.5,13.5,0,0,0,2.18-3.14,3.31,3.31,0,0,0,3.11-.71,4.33,4.33,0,0,0,.84-5.55,3.45,3.45,0,0,0-.58-.67,7.53,7.53,0,0,0,.95-.46c2.82-1.63,1.23-8.58-2.73-13.54,3-.84,4.87-3.53,4.31-6.22a4.47,4.47,0,0,0-.87-1.9l2-.66c-5.49-7.94-14.7-1.44-12.91,3.2a3.45,3.45,0,0,0-.07.55,7,7,0,0,0-5.78,1.32,5.37,5.37,0,0,0-2.28,3,7.9,7.9,0,0,0-4.15,1.37c-1.77,1.39-1.05,2.81-.05,2.9a2.93,2.93,0,0,0,.37,0,16.51,16.51,0,0,0-2.88,5.12,23.15,23.15,0,0,0-.66,2.32l-.48-.1a1.73,1.73,0,0,0-.69,3.39l.64.13c-.36,5.29,1.38,9.87,4.07,12.39a22.07,22.07,0,0,0,5.05,1l.18,5.77a22.73,22.73,0,0,0-9.4,4.15c-.08.06-1,1.56-2.12,6l-18.21,21.92L369.42,322.7l-2.86.89-13.83,4,9.49,2.78-1.93,4.82,9.25-9.25,19.48-7,11.33-12.28c-.91,8.67-1.63,20.36-1.76,36,1,.18,2.26.34,3.71.5l-3.05,74h2.35L401,437l-10.61,6.9h19.18l2.58-26.72h8.18l2,26.72H441L430.91,437l-.18-19.82h2.82l-.89-72.83c.88,0,1.66,0,2.3-.06a222.48,222.48,0,0,1-.95-24l4,10.22,22.5,22.5,9.25,17,15.75,1.1c-4.07,7.94-8.17,17.29-9.41,27l1.78,43.31-7,2.93h16.73l1.61-31.73,4.08.46,4,31.27h16.73l-6.72-2.83c-.15-2.21-2.31-33.49-4.19-44.24,0,0-.52-17.65-.33-19.81,2.22,4.23,6.4,14.39,14.46,28.7l1.2,3.86.27-2.58,4.83,1-5.18-5Z"/><path class="cls-23" d="M710.36,59.23h-91a31.5,31.5,0,0,0-31.41,31.41c0,.69,0,1.38.07,2.06H539.44a7.71,7.71,0,0,0-7.68,7.69v1.4a7.62,7.62,0,0,0,.85,3.49H500.66A7.71,7.71,0,0,0,493,113v1.4a7.71,7.71,0,0,0,7.68,7.69h209.7a31.31,31.31,0,0,0,22.18-9.23A31.39,31.39,0,0,0,741.7,92.7c0-.68.07-1.37.07-2.06A31.51,31.51,0,0,0,710.36,59.23Z"/><rect class="cls-23" x="388.02" y="168.49" width="69.46" height="14.94" rx="6.86"/><rect class="cls-23" x="414.16" y="154.3" width="47.8" height="29.13" rx="13.37"/><polygon class="cls-24" points="127.11 118.4 111.1 130.95 155.47 133.22 167.63 118.85 127.11 118.4"/><circle class="cls-11" cx="125.12" cy="108.45" r="75.73"/><path class="cls-25" d="M84.82,90.47c-3.21-.14-11.91,16.4-8.26,28.73,0,3.73-2.76,7.59,1,10.13,1.56,1,66.3,3,66.3,3l35.69-3.5a14.76,14.76,0,0,0-.52-9.54c-.62-4.85-13-7.94-25-13.55s-39.23-24.44-39.23-24.44-11,4.67-4.63,14.36c2.81,7-12.48,6.9-15.83,3.73S84.82,90.47,84.82,90.47Z"/><line class="cls-26" x1="130.04" y1="92.75" x2="125.17" y2="101.68"/><line class="cls-26" x1="136.71" y1="96.9" x2="133.11" y2="104.57"/><line class="cls-26" x1="143.28" y1="100.82" x2="139.59" y2="107.76"/><line class="cls-26" x1="149.72" y1="104.85" x2="146.17" y2="111.43"/><path class="cls-27" d="M79,120.64l55.45,2.54a136.18,136.18,0,0,0,18.4-.4l23.83-2.12"/></g></g></g></svg>