<svg xmlns="http://www.w3.org/2000/svg" xmlns:xlink="http://www.w3.org/1999/xlink" viewBox="0 0 706.95 490.76"><defs><style>.cls-1{fill:#e7a386;}.cls-2{fill:#c0784d;}.cls-3{isolation:isolate;}.cls-4{fill:#4dc2cb;}.cls-5{fill:#329eb2;}.cls-6{fill:#fff;}.cls-7{clip-path:url(#clip-path);}.cls-8{fill:#0e2438;}.cls-9{clip-path:url(#clip-path-2);}.cls-10{fill:#1c3849;}.cls-11{fill:#794d30;}.cls-12{clip-path:url(#clip-path-3);}.cls-13{fill:#bf774d;opacity:0.51;}.cls-13,.cls-17,.cls-18,.cls-22{mix-blend-mode:multiply;}.cls-14,.cls-23,.cls-24{fill:none;stroke-linecap:round;stroke-linejoin:round;}.cls-14{stroke:#794d30;stroke-width:1.29px;}.cls-15{fill:#f2c15f;}.cls-16{fill:#dba33f;}.cls-17{fill:#b6d9e5;}.cls-19{fill:#2a1d2a;}.cls-20{fill:#32b5c3;}.cls-21{fill:#bf3552;}.cls-22{fill:#f1c060;}.cls-23,.cls-24{stroke:#fff;stroke-width:8px;}.cls-24{stroke-dasharray:0 13.67;}</style><clipPath id="clip-path"><polygon class="cls-1" points="194.12 450.43 163.93 439.14 150.01 322.2 137.76 385.68 155.24 452.26 194.12 450.43"/></clipPath><clipPath id="clip-path-2"><polygon class="cls-1" points="121.36 313.86 90.21 313.53 89.31 460.3 128.85 455.29 103.79 444.15 121.36 313.86"/></clipPath><clipPath id="clip-path-3"><path class="cls-2" d="M148,80c-4.28-14.63-14.16-17.84-28.82-14.36-10,2.38-6.92,16.78-4,25.75l-7.47,7.35-2.86,19.57,19.13,10,3.2.09,6.55-9.52A92.69,92.69,0,0,0,144.73,122c1.54-4.16,3.29-8.57,3.29-8.57l1.69-.86a1.19,1.19,0,0,0,.51-1.63l-.56-1,1.91-6.19,4.59-2c1.26-.55,2-2.23,1.09-3.28C151.74,92,150,90.94,148,80Z"/></clipPath></defs><title>Asset 1</title><g class="cls-3"><g id="Layer_2" data-name="Layer 2"><g id="Layer_1-2" data-name="Layer 1"><path class="cls-4" d="M36.42,0H495.36L425.45,313.75H0V36.42A36.43,36.43,0,0,1,36.42,0Z"/><path class="cls-5" d="M165.62,29.73H106A20.64,20.64,0,0,0,85.43,50.3c0,.46,0,.91,0,1.35H53.7a5.06,5.06,0,0,0-5,5v.92a5.06,5.06,0,0,0,.56,2.29H28.3a5,5,0,0,0-5,5v.92a5,5,0,0,0,5,5H165.62a20.5,20.5,0,0,0,14.53-6,22.31,22.31,0,0,0,1.91-2.2,21.59,21.59,0,0,0,1.75-2.74,20.51,20.51,0,0,0,2.34-8.24c0-.44,0-.89,0-1.35A20.63,20.63,0,0,0,165.62,29.73Z"/><path d="M258.65,111.86a.57.57,0,0,0-.68.27c-1.92,3.58-15.39,28.65-16.21,30.91s13.09,5.12,15.69,5.65a.58.58,0,0,0,.63-.3l16.47-30.76a.59.59,0,0,0-.33-.83Z"/><polygon class="cls-6" points="258.72 114.99 247.24 137.41 259.34 141.38 271.31 118.62 258.72 114.99"/><path class="cls-2" d="M242.41,141.73c.7-.83,5.94,6.67,5.94,6.67a76.08,76.08,0,0,1-66.6,38.48,78.32,78.32,0,0,1-10.22-.67l-20.88-29.53a77.26,77.26,0,0,0,36.55,8.95,79.9,79.9,0,0,0,20.22-2.57c14.3-3.74,26.55-11.34,35-21.33"/><path class="cls-2" d="M222.93,128.64c.94-.68,7.86,5.45,7.86,5.45-17.1,18.56-50.37,31.09-88.56,30.95q-6.9,0-13.57-.59L101,140.34c14,4.65,30.62,7.39,48.51,7.46a170.51,170.51,0,0,0,26.87-2c19-3,35.29-9.08,46.53-17.16"/><path class="cls-2" d="M244.35,137.23s-2.67,1.56-4.15,7c-6.47,4.38-41.47,53.46,7.61,7A21.34,21.34,0,0,0,260,139a19.56,19.56,0,0,0-3.42-5.67.85.85,0,0,0-1.21-.1l-10.16,9-1-1.48,1.11-3.2Z"/><path class="cls-2" d="M219.77,130.55l1.84-2.79a10,10,0,0,1,9.88-4.39c4.88.75,11.33,2.12,15,4.47-10.19,2.44-12.19,2.8-12.19,2.8l6.67,1.45a.26.26,0,0,1,0,.5c-2.93,1.23-13.34,5.62-15.92,6.82"/><polygon class="cls-1" points="194.12 450.43 163.93 439.14 150.01 322.2 137.76 385.68 155.24 452.26 194.12 450.43"/><g class="cls-7"><rect class="cls-8" x="135.56" y="419.97" width="68.15" height="58.72" transform="translate(-20.91 8.46) rotate(-2.69)"/></g><polygon class="cls-1" points="121.36 313.86 90.21 313.53 89.31 460.3 128.85 455.29 103.79 444.15 121.36 313.86"/><g class="cls-9"><rect class="cls-8" x="64.45" y="422.95" width="83.58" height="58.72" transform="translate(-21.12 5.49) rotate(-2.69)"/></g><path class="cls-8" d="M109.11,432.61l28.43-173.94-52,2.45s9.6,20-.91,168.05C83.65,428.76,109.11,432.61,109.11,432.61Z"/><polygon class="cls-10" points="140.61 427.92 83.02 249.06 133.62 248.53 153.84 259.52 169.61 428.85 140.61 427.92"/><path class="cls-6" d="M91.29,140.18l-1.07,44,.32,8.41c-11.31-.18-23.29-16.38-16.43-26.81Z"/><path class="cls-11" d="M143.78,74.1c-2,9.23-5.65,13.8-19.28,14.44s-21-3.66-23.75-12.7C97,63.35,109.56,55,121.27,54.65,137.13,54.2,145.91,64.29,143.78,74.1Z"/><path class="cls-2" d="M148,80c-4.28-14.63-14.16-17.84-28.82-14.36-10,2.38-6.92,16.78-4,25.75l-7.47,7.35-2.86,19.57,19.13,10,3.2.09,6.55-9.52A92.69,92.69,0,0,0,144.73,122c1.54-4.16,3.29-8.57,3.29-8.57l1.69-.86a1.19,1.19,0,0,0,.51-1.63l-.56-1,1.91-6.19,4.59-2c1.26-.55,2-2.23,1.09-3.28C151.74,92,150,90.94,148,80Z"/><g class="cls-12"><path class="cls-13" d="M125.26,107.21s2.29,12,19.79,16.92-21,4.13-21,4.13S121.26,114,125.26,107.21Z"/></g><path class="cls-11" d="M139.62,86.81a27.91,27.91,0,0,1,2.3-1.76,14.29,14.29,0,0,1,2.33-1.13,19.59,19.59,0,0,1,2.56-.77c.45-.1.91-.21,1.39-.28a5,5,0,0,1,1.52-.12,2,2,0,0,0-.3-.36l-.37-.29a4.45,4.45,0,0,0-.81-.42,6.73,6.73,0,0,0-1.69-.46,6.94,6.94,0,0,0-3.33.39,6,6,0,0,0-2.66,2A5.06,5.06,0,0,0,139.62,86.81Z"/><path class="cls-14" d="M151.53,109.39s-3.1,1-9.17-1.08"/><path class="cls-11" d="M135.42,97.05s-8.1,6-14.43,6.33c-12.66.6-23.33-7.69-23.84-18.5s9.34-20,22-20.65c2.1-.1,6.32,1.8,9.78,3.58a10.45,10.45,0,0,1,5.65,8.87Z"/><ellipse class="cls-2" cx="126.39" cy="97.6" rx="4.17" ry="6.18" transform="translate(-27.34 54.4) rotate(-21.98)"/><ellipse class="cls-11" cx="146.64" cy="88.82" rx="1.63" ry="1.97" transform="matrix(1, -0.05, 0.05, 1, -4.01, 6.98)"/><path class="cls-11" d="M147.68,59.05c1.82,7.13-3.6,14.67-12.11,16.84s-16.88-1.84-18.7-9a11.24,11.24,0,0,1-.32-3.73c2.09,6.8,10.26,10.57,18.56,8.46,7-1.8,11.94-7.25,12.42-13.11C147.59,58.7,147.63,58.87,147.68,59.05Z"/><path class="cls-11" d="M110.91,63.77s24.38-9.55,30.91,5.46c-6,9.35-19.49,3.29-19.49,3.29Z"/><path class="cls-15" d="M104.46,114.51s20.12,4.94,29.49,15.41c18.53,27,15.9,44.75,15.9,44.75l13.34,91.47s-47.3-4.67-88.36,1.85c-6.31-36,7.33-54.77,9.28-76.1s-.5-54.48,17.91-66.12Z"/><path class="cls-16" d="M142.4,142.14c18.53,27,7.45,32.53,7.45,32.53L156.9,223s-34.32-42-37.15-63.82C117.15,139.17,133,131.67,142.4,142.14Z"/><path class="cls-6" d="M191.07,161.86c-18.52-2.72-28.94-5.6-41.32-17.14-27.88-26-39.89,16.36-11.95,32.76,13.61,8,27.44,11.6,39.68,14.74C183,189.08,192.24,174.65,191.07,161.86Z"/><rect class="cls-6" x="367.08" y="77.29" width="339.87" height="84.14" rx="4.45"/><rect class="cls-15" x="623.53" y="123.27" width="68.14" height="22.93" rx="5.13"/><rect class="cls-17" x="391.51" y="139.79" width="212.35" height="6.41" rx="1"/><rect class="cls-17" x="391.51" y="124.05" width="191.52" height="6.41" rx="1"/><g class="cls-18"><path class="cls-19" d="M393.21,95.91h3.45v8.5a5.34,5.34,0,0,0,.67,3.12,2.31,2.31,0,0,0,2,.89,2.39,2.39,0,0,0,2-.89,5.23,5.23,0,0,0,.7-3.12v-8.5h3.31v8.15c0,2.55-.51,4.4-1.53,5.57a5.61,5.61,0,0,1-4.46,1.74,5.76,5.76,0,0,1-4.52-1.74c-1-1.17-1.56-3-1.56-5.57Z"/><path class="cls-19" d="M409,99.54h2.79l.24,2h.09a4.47,4.47,0,0,1,1.51-1.75,3.32,3.32,0,0,1,1.77-.56,4.47,4.47,0,0,1,.81.06,2.94,2.94,0,0,1,.57.17l-.56,3a5.79,5.79,0,0,0-.61-.14,4.11,4.11,0,0,0-.65,0,2.49,2.49,0,0,0-1.36.46,3.37,3.37,0,0,0-1.18,1.66v6.71H409Z"/><path class="cls-19" d="M417.76,113.08a2.69,2.69,0,0,1,1.65-2.33v-.1a2.54,2.54,0,0,1-.76-.77,2.05,2.05,0,0,1-.31-1.18,2.16,2.16,0,0,1,.38-1.2,3.44,3.44,0,0,1,.93-1v-.09a3.87,3.87,0,0,1-1.09-1.2,3.49,3.49,0,0,1-.47-1.81,4,4,0,0,1,.39-1.83,4,4,0,0,1,1.06-1.3,4.52,4.52,0,0,1,1.53-.78,6.25,6.25,0,0,1,1.79-.26,5.2,5.2,0,0,1,1.8.28h4.21V102H427a2.26,2.26,0,0,1,.27.66,3.33,3.33,0,0,1,.1.86,4,4,0,0,1-.34,1.73,3.31,3.31,0,0,1-1,1.21,4.2,4.2,0,0,1-1.45.72,6.72,6.72,0,0,1-1.78.23,4.76,4.76,0,0,1-1.4-.23,1.08,1.08,0,0,0-.32.37,1.13,1.13,0,0,0-.09.49.69.69,0,0,0,.38.65,3.1,3.1,0,0,0,1.36.21h1.87a6.34,6.34,0,0,1,3.27.69,2.41,2.41,0,0,1,1.13,2.24,3.13,3.13,0,0,1-.46,1.67,4,4,0,0,1-1.29,1.3,6.76,6.76,0,0,1-2,.87,10.41,10.41,0,0,1-2.67.31,10.17,10.17,0,0,1-1.9-.17,5.93,5.93,0,0,1-1.54-.53,2.72,2.72,0,0,1-1-.91A2.3,2.3,0,0,1,417.76,113.08Zm2.82-.54a1.07,1.07,0,0,0,.7,1,4.38,4.38,0,0,0,1.86.34,4,4,0,0,0,1.91-.41,1.18,1.18,0,0,0,.75-1,.72.72,0,0,0-.46-.73,3.7,3.7,0,0,0-1.31-.18h-1.19a8.78,8.78,0,0,1-1,0,4.72,4.72,0,0,1-.65-.1A1.55,1.55,0,0,0,420.58,112.54Zm2.28-7.18a1.48,1.48,0,0,0,1.13-.47,2.08,2.08,0,0,0,.46-1.46,1.93,1.93,0,0,0-.46-1.38,1.49,1.49,0,0,0-1.13-.48,1.52,1.52,0,0,0-1.13.46,2,2,0,0,0-.45,1.4,2.08,2.08,0,0,0,.45,1.46A1.5,1.5,0,0,0,422.86,105.36Z"/><path class="cls-19" d="M430.29,105.32a6.59,6.59,0,0,1,.47-2.53,6.08,6.08,0,0,1,1.22-1.91,5.43,5.43,0,0,1,1.74-1.2,5.08,5.08,0,0,1,2-.42,5.14,5.14,0,0,1,2.16.42,4.35,4.35,0,0,1,1.54,1.17,5,5,0,0,1,.92,1.75,7.77,7.77,0,0,1,.3,2.21,7.34,7.34,0,0,1-.05.85c0,.25-.06.45-.09.59H433.6a2.86,2.86,0,0,0,1,1.92,3.18,3.18,0,0,0,2,.6,4.78,4.78,0,0,0,2.49-.77l1.14,2.07a7.65,7.65,0,0,1-2,1,6.69,6.69,0,0,1-2.13.35,6.52,6.52,0,0,1-2.31-.4,5.27,5.27,0,0,1-3.09-3.09A6.8,6.8,0,0,1,430.29,105.32Zm7.46-1.19a2.73,2.73,0,0,0-.45-1.63,1.68,1.68,0,0,0-1.49-.63,2.07,2.07,0,0,0-1.43.55,2.75,2.75,0,0,0-.8,1.71Z"/><path class="cls-19" d="M443.5,99.54h2.8l.23,1.47h.09a9.24,9.24,0,0,1,1.63-1.22,4,4,0,0,1,2.08-.53,3.06,3.06,0,0,1,2.73,1.24,5.92,5.92,0,0,1,.85,3.42v7.18h-3.42v-6.74a3.06,3.06,0,0,0-.34-1.72,1.25,1.25,0,0,0-1.08-.47,2.1,2.1,0,0,0-1.12.29,6.65,6.65,0,0,0-1,.83v7.81H443.5Z"/><path class="cls-19" d="M457.76,102.22h-1.59V99.68l1.77-.14.4-3.07h2.84v3.07H464v2.68h-2.77v4.64a2,2,0,0,0,.41,1.4,1.41,1.41,0,0,0,1.08.44,2.78,2.78,0,0,0,.57-.07,4.74,4.74,0,0,0,.53-.17l.53,2.5c-.31.09-.67.18-1.09.27a6.44,6.44,0,0,1-1.47.14,4.61,4.61,0,0,1-1.83-.32,3.17,3.17,0,0,1-1.23-.91,3.74,3.74,0,0,1-.7-1.41,7,7,0,0,1-.22-1.83Z"/><path class="cls-19" d="M466.68,94.77h3.42v12.88a1.07,1.07,0,0,0,.2.74.57.57,0,0,0,.41.21h.2a.79.79,0,0,0,.22,0l.42,2.54a4.21,4.21,0,0,1-.71.19,5.15,5.15,0,0,1-1,.08,3.67,3.67,0,0,1-1.49-.27,2.41,2.41,0,0,1-1-.79,3.12,3.12,0,0,1-.53-1.21,7,7,0,0,1-.16-1.59Z"/><path class="cls-19" d="M474.43,112.87a2.24,2.24,0,0,0,1.73-.38,2.6,2.6,0,0,0,.7-1.09l.16-.61-4.45-11.25H476l1.65,5c.17.53.33,1.07.47,1.61l.44,1.68h.09c.13-.55.26-1.09.39-1.65s.27-1.09.41-1.64l1.39-5h3.29l-4,11.67a16,16,0,0,1-.87,1.92,5.34,5.34,0,0,1-1,1.38,4.08,4.08,0,0,1-1.35.82,5.08,5.08,0,0,1-1.78.28,7.64,7.64,0,0,1-.91,0,4.21,4.21,0,0,1-.72-.18l.6-2.61Z"/><path class="cls-19" d="M492,95.91h3.52l4,7.54,1.49,3.36h.09q-.12-1.22-.27-2.7c-.1-1-.15-1.94-.15-2.85V95.91h3.26V111.1h-3.52l-4-7.58-1.49-3.3h-.09q.12,1.26.27,2.7a26.94,26.94,0,0,1,.15,2.79v5.39H492Z"/><path class="cls-19" d="M507,105.32a6.41,6.41,0,0,1,.47-2.53,5.91,5.91,0,0,1,1.22-1.91,5.28,5.28,0,0,1,1.73-1.2,5.41,5.41,0,0,1,4.18,0,4.18,4.18,0,0,1,1.54,1.17,4.88,4.88,0,0,1,.92,1.75,7.76,7.76,0,0,1,.31,2.21,7.34,7.34,0,0,1,0,.85c0,.25-.06.45-.09.59h-6.92a2.86,2.86,0,0,0,1,1.92,3.22,3.22,0,0,0,2,.6,4.76,4.76,0,0,0,2.49-.77l1.15,2.07a7.65,7.65,0,0,1-2,1,6.69,6.69,0,0,1-2.13.35,6.44,6.44,0,0,1-2.31-.4,5.25,5.25,0,0,1-1.86-1.19,5.45,5.45,0,0,1-1.24-1.9A7,7,0,0,1,507,105.32Zm7.45-1.19a2.73,2.73,0,0,0-.44-1.63,1.68,1.68,0,0,0-1.49-.63,2.07,2.07,0,0,0-1.43.55,2.81,2.81,0,0,0-.81,1.71Z"/><path class="cls-19" d="M519.53,105.32a6.59,6.59,0,0,1,.47-2.53,6.08,6.08,0,0,1,1.22-1.91,5.22,5.22,0,0,1,1.74-1.2,5,5,0,0,1,2-.42,5.17,5.17,0,0,1,2.16.42,4.23,4.23,0,0,1,1.53,1.17,4.73,4.73,0,0,1,.92,1.75,7.43,7.43,0,0,1,.31,2.21,7.34,7.34,0,0,1,0,.85c0,.25-.06.45-.09.59h-6.92a2.82,2.82,0,0,0,1,1.92,3.17,3.17,0,0,0,2,.6,4.79,4.79,0,0,0,2.5-.77l1.14,2.07a7.65,7.65,0,0,1-2,1,6.69,6.69,0,0,1-2.13.35,6.48,6.48,0,0,1-2.31-.4,5.34,5.34,0,0,1-1.86-1.19,5.45,5.45,0,0,1-1.24-1.9A7,7,0,0,1,519.53,105.32Zm7.46-1.19a2.73,2.73,0,0,0-.45-1.63,1.68,1.68,0,0,0-1.49-.63,2.07,2.07,0,0,0-1.43.55,2.75,2.75,0,0,0-.8,1.71Z"/><path class="cls-19" d="M532.13,105.32a7.39,7.39,0,0,1,.41-2.54,6.11,6.11,0,0,1,1.07-1.9,4.77,4.77,0,0,1,1.54-1.2,4.07,4.07,0,0,1,1.78-.42,3.47,3.47,0,0,1,1.61.33,5.72,5.72,0,0,1,1.23.88l-.14-1.77V94.77h3.43V111.1h-2.8L540,110h-.09a5.41,5.41,0,0,1-1.42,1,3.72,3.72,0,0,1-1.66.4,4.55,4.55,0,0,1-1.94-.41,4.13,4.13,0,0,1-1.49-1.2,5.66,5.66,0,0,1-1-1.9A9,9,0,0,1,532.13,105.32Zm3.52,0a4.48,4.48,0,0,0,.55,2.52,1.76,1.76,0,0,0,1.55.79,2.24,2.24,0,0,0,1-.23,2.64,2.64,0,0,0,.87-.82V102.8a2.68,2.68,0,0,0-1-.58,3,3,0,0,0-1-.16,1.83,1.83,0,0,0-1.44.78A3.84,3.84,0,0,0,535.65,105.27Z"/><path class="cls-19" d="M545.88,105.32a6.59,6.59,0,0,1,.46-2.53,5.93,5.93,0,0,1,1.23-1.91,5.28,5.28,0,0,1,1.73-1.2,5.41,5.41,0,0,1,4.18,0,4.18,4.18,0,0,1,1.54,1.17,4.88,4.88,0,0,1,.92,1.75,7.77,7.77,0,0,1,.3,2.21,7.46,7.46,0,0,1,0,.85c0,.25-.07.45-.1.59h-6.92a2.9,2.9,0,0,0,1,1.92,3.2,3.2,0,0,0,2,.6,4.78,4.78,0,0,0,2.49-.77l1.14,2.07a7.49,7.49,0,0,1-2,1,6.69,6.69,0,0,1-2.13.35,6.43,6.43,0,0,1-2.3-.4,5.29,5.29,0,0,1-1.87-1.19,5.43,5.43,0,0,1-1.23-1.9A6.8,6.8,0,0,1,545.88,105.32Zm7.45-1.19a2.8,2.8,0,0,0-.44-1.63,1.7,1.7,0,0,0-1.49-.63,2.09,2.09,0,0,0-1.44.55,2.81,2.81,0,0,0-.8,1.71Z"/><path class="cls-19" d="M558.48,105.32a7.16,7.16,0,0,1,.41-2.54,6.11,6.11,0,0,1,1.07-1.9,4.57,4.57,0,0,1,1.54-1.2,4,4,0,0,1,1.78-.42,3.39,3.39,0,0,1,1.6.33,5.77,5.77,0,0,1,1.24.88L566,98.7V94.77h3.42V111.1h-2.79l-.23-1.15h-.1a5.25,5.25,0,0,1-1.42,1,3.65,3.65,0,0,1-1.65.4,4.57,4.57,0,0,1-2-.41,4.21,4.21,0,0,1-1.49-1.2,5.65,5.65,0,0,1-.95-1.9A8.63,8.63,0,0,1,558.48,105.32Zm3.52,0a4.58,4.58,0,0,0,.54,2.52,1.77,1.77,0,0,0,1.55.79,2.28,2.28,0,0,0,1-.23,2.64,2.64,0,0,0,.87-.82V102.8a2.71,2.71,0,0,0-1-.58,2.92,2.92,0,0,0-.95-.16,1.85,1.85,0,0,0-1.45.78A3.91,3.91,0,0,0,562,105.27Z"/><path class="cls-19" d="M572.8,109.23a2.13,2.13,0,0,1,.6-1.55,2.08,2.08,0,0,1,3,0,2.17,2.17,0,0,1,.59,1.55,2.14,2.14,0,0,1-.59,1.53,2.1,2.1,0,0,1-3,0A2.1,2.1,0,0,1,572.8,109.23Z"/><path class="cls-19" d="M580.26,109.23a2.17,2.17,0,0,1,.59-1.55,2.08,2.08,0,0,1,3,0,2.13,2.13,0,0,1,.59,1.55,2.1,2.1,0,0,1-.59,1.53,2.1,2.1,0,0,1-3,0A2.14,2.14,0,0,1,580.26,109.23Z"/><path class="cls-19" d="M587.71,109.23a2.13,2.13,0,0,1,.6-1.55,2.06,2.06,0,0,1,3,0,2.13,2.13,0,0,1,.6,1.55,2.1,2.1,0,0,1-.6,1.53,2.09,2.09,0,0,1-3,0A2.1,2.1,0,0,1,587.71,109.23Z"/></g><rect class="cls-6" x="287.8" y="187.07" width="339.87" height="84.14" rx="4.45"/><rect class="cls-20" x="544.25" y="233.05" width="68.14" height="22.93" rx="5.13"/><rect class="cls-17" x="311.5" y="232.32" width="220.03" height="6.41" rx="1"/><g class="cls-18"><path class="cls-19" d="M311.49,208.28h3.63l1.82,7.08c.23.84.44,1.65.61,2.43s.39,1.6.62,2.44h.1c.21-.84.41-1.65.6-2.44s.39-1.59.61-2.43l1.79-7.08h3.49l-4.56,15.19h-4.12Z"/><path class="cls-19" d="M325.46,217.69a6.69,6.69,0,0,1,.47-2.57,5.42,5.42,0,0,1,1.25-1.9A5.26,5.26,0,0,1,329,212a5.66,5.66,0,0,1,4.23,0,5.31,5.31,0,0,1,1.79,1.18,5.56,5.56,0,0,1,1.25,1.9,7.41,7.41,0,0,1,0,5.14,5.56,5.56,0,0,1-1.25,1.9,5.47,5.47,0,0,1-1.79,1.18,5.66,5.66,0,0,1-4.23,0,5.45,5.45,0,0,1-3.05-3.08A6.69,6.69,0,0,1,325.46,217.69Zm3.52,0a4.8,4.8,0,0,0,.52,2.4,1.74,1.74,0,0,0,1.6.88,1.72,1.72,0,0,0,1.58-.88,5.6,5.6,0,0,0,0-4.8,1.73,1.73,0,0,0-1.58-.89,1.75,1.75,0,0,0-1.6.89A4.8,4.8,0,0,0,329,217.69Z"/><path class="cls-19" d="M339.53,207.14H343V220a1.08,1.08,0,0,0,.19.74.59.59,0,0,0,.41.21h.2a.73.73,0,0,0,.22,0l.42,2.54a4,4,0,0,1-.71.19,5,5,0,0,1-1,.09,3.63,3.63,0,0,1-1.49-.28,2.43,2.43,0,0,1-1-.78,3.22,3.22,0,0,1-.52-1.22,7,7,0,0,1-.17-1.59Z"/><path class="cls-19" d="M346.54,211.91H350v6.73a3,3,0,0,0,.35,1.73,1.27,1.27,0,0,0,1.09.46,1.92,1.92,0,0,0,1.1-.3,4.46,4.46,0,0,0,.95-1v-7.64h3.43v11.56h-2.8l-.26-1.61h-.06a6.17,6.17,0,0,1-1.6,1.38,3.91,3.91,0,0,1-2,.51,3.1,3.1,0,0,1-2.74-1.24,6,6,0,0,1-.85-3.42Z"/><path class="cls-19" d="M360.36,211.91h2.79l.24,1.47h.09a9.24,9.24,0,0,1,1.63-1.22,4,4,0,0,1,2.07-.53,3.08,3.08,0,0,1,2.74,1.24,5.92,5.92,0,0,1,.85,3.42v7.18h-3.42v-6.74A3.17,3.17,0,0,0,367,215a1.27,1.27,0,0,0-1.09-.47,2,2,0,0,0-1.11.3,6.55,6.55,0,0,0-1,.82v7.81h-3.42Z"/><path class="cls-19" d="M374.61,214.59H373v-2.54l1.77-.14.4-3.07H378v3.07h2.77v2.68H378v4.64a2,2,0,0,0,.4,1.41,1.48,1.48,0,0,0,1.09.43,3,3,0,0,0,.57-.07,3.17,3.17,0,0,0,.52-.17l.54,2.5c-.31.09-.68.18-1.1.28a7,7,0,0,1-1.46.14,4.54,4.54,0,0,1-1.83-.33,3.21,3.21,0,0,1-1.24-.91,3.74,3.74,0,0,1-.7-1.41,7.4,7.4,0,0,1-.22-1.83Z"/><path class="cls-19" d="M382.63,217.69a6.63,6.63,0,0,1,.46-2.53,6.08,6.08,0,0,1,1.22-1.91,5.43,5.43,0,0,1,1.74-1.2,5.41,5.41,0,0,1,4.18,0,4.26,4.26,0,0,1,1.54,1.17,4.84,4.84,0,0,1,.92,1.76,7.7,7.7,0,0,1,.3,2.2,7.46,7.46,0,0,1,0,.85c0,.25-.07.45-.1.59h-6.92a2.86,2.86,0,0,0,1,1.92,3.2,3.2,0,0,0,2,.6,4.78,4.78,0,0,0,2.49-.77l1.14,2.07a7.51,7.51,0,0,1-2,1,7,7,0,0,1-2.13.35,6.43,6.43,0,0,1-2.3-.41,5.26,5.26,0,0,1-3.1-3.09A6.8,6.8,0,0,1,382.63,217.69Zm7.45-1.19a2.8,2.8,0,0,0-.44-1.63,1.7,1.7,0,0,0-1.49-.63,2.09,2.09,0,0,0-1.44.55,2.75,2.75,0,0,0-.8,1.71Z"/><path class="cls-19" d="M395.16,217.69a6.63,6.63,0,0,1,.46-2.53,5.93,5.93,0,0,1,1.23-1.91,5.28,5.28,0,0,1,1.73-1.2,5.41,5.41,0,0,1,4.18,0,4.18,4.18,0,0,1,1.54,1.17,4.84,4.84,0,0,1,.92,1.76,7.7,7.7,0,0,1,.3,2.2,7.46,7.46,0,0,1,0,.85,4.16,4.16,0,0,1-.1.59h-6.91a2.86,2.86,0,0,0,1,1.92,3.2,3.2,0,0,0,2,.6,4.78,4.78,0,0,0,2.49-.77l1.14,2.07a7.6,7.6,0,0,1-2,1,7.09,7.09,0,0,1-2.14.35,6.43,6.43,0,0,1-2.3-.41,5.16,5.16,0,0,1-1.86-1.19,5.45,5.45,0,0,1-1.24-1.9A7,7,0,0,1,395.16,217.69Zm7.45-1.19a2.8,2.8,0,0,0-.44-1.63,1.7,1.7,0,0,0-1.49-.63,2.05,2.05,0,0,0-1.43.55,2.76,2.76,0,0,0-.81,1.71Z"/><path class="cls-19" d="M408.37,211.91h2.79l.23,2h.1a4.47,4.47,0,0,1,1.51-1.75,3.32,3.32,0,0,1,1.77-.56,4.27,4.27,0,0,1,.8.06,2.62,2.62,0,0,1,.58.18l-.56,2.95-.61-.14a4.19,4.19,0,0,0-.65,0,2.46,2.46,0,0,0-1.36.46,3.36,3.36,0,0,0-1.18,1.66v6.71h-3.42Z"/><path class="cls-19" d="M418.38,220a6.86,6.86,0,0,0,1.52.9,3.62,3.62,0,0,0,1.46.31,1.9,1.9,0,0,0,1.12-.26.85.85,0,0,0,.35-.72.74.74,0,0,0-.2-.5,1.91,1.91,0,0,0-.53-.41,6,6,0,0,0-.76-.34c-.28-.1-.57-.21-.86-.34a9.31,9.31,0,0,1-1.07-.49,4.19,4.19,0,0,1-1-.68,3.11,3.11,0,0,1-.72-1,2.7,2.7,0,0,1-.28-1.27,3.42,3.42,0,0,1,.31-1.46,3.25,3.25,0,0,1,.9-1.15,4.42,4.42,0,0,1,1.4-.73,5.69,5.69,0,0,1,1.81-.27,5.47,5.47,0,0,1,2.33.46,9.36,9.36,0,0,1,1.75,1l-1.54,2.05a6.12,6.12,0,0,0-1.23-.72,3.14,3.14,0,0,0-1.21-.26c-.87,0-1.31.3-1.31.91a.65.65,0,0,0,.19.48,1.84,1.84,0,0,0,.5.36,6.21,6.21,0,0,0,.72.31l.85.32q.56.21,1.11.48a4.44,4.44,0,0,1,1,.66,3,3,0,0,1,.73,1A3,3,0,0,1,426,220a3.58,3.58,0,0,1-.3,1.47,3.21,3.21,0,0,1-.91,1.17,4.31,4.31,0,0,1-1.49.79,6.37,6.37,0,0,1-2.05.3,6.64,6.64,0,0,1-2.34-.45,7.15,7.15,0,0,1-2.09-1.16Z"/></g><rect class="cls-17" x="432.92" y="215.07" width="99.61" height="6.41" rx="1"/><rect class="cls-17" x="311.5" y="249.57" width="142.19" height="6.41" rx="1"/><rect class="cls-6" x="313.63" y="296.84" width="339.87" height="84.14" rx="4.45"/><rect class="cls-21" x="567.08" y="342.12" width="68.14" height="22.93" rx="5.13"/><rect class="cls-17" x="334.51" y="342.91" width="202.35" height="6.41" rx="1"/><rect class="cls-17" x="432.76" y="327.18" width="128.77" height="6.41" rx="1"/><rect class="cls-17" x="334.51" y="358.64" width="215.18" height="6.41" rx="1"/><g class="cls-18"><path class="cls-19" d="M337.28,328.82a7.69,7.69,0,0,0,1.81,1.14,4.79,4.79,0,0,0,1.94.44,2.6,2.6,0,0,0,1.6-.4,1.26,1.26,0,0,0,.52-1.07,1.16,1.16,0,0,0-.15-.6,1.59,1.59,0,0,0-.44-.46,5,5,0,0,0-.7-.37l-.9-.38-2-.84a6.21,6.21,0,0,1-1.13-.61,5.41,5.41,0,0,1-1-.87,4.09,4.09,0,0,1-.68-1.17,4.24,4.24,0,0,1,.14-3.26,4.29,4.29,0,0,1,1.11-1.44,5.45,5.45,0,0,1,1.72-1,6.54,6.54,0,0,1,2.17-.35,7.06,7.06,0,0,1,2.62.51,6.7,6.7,0,0,1,2.28,1.5l-1.75,2.16a6.74,6.74,0,0,0-1.49-.89,4.24,4.24,0,0,0-1.66-.32,2.45,2.45,0,0,0-1.41.36,1.18,1.18,0,0,0-.52,1,1,1,0,0,0,.18.6,1.59,1.59,0,0,0,.48.44,4.64,4.64,0,0,0,.74.37l.91.39,2,.79a5.25,5.25,0,0,1,2.2,1.54,3.91,3.91,0,0,1,.81,2.58,4.37,4.37,0,0,1-1.5,3.3,5.48,5.48,0,0,1-1.81,1,7,7,0,0,1-2.42.39,8.34,8.34,0,0,1-3-.55,7.69,7.69,0,0,1-2.65-1.64Z"/><path class="cls-19" d="M349.32,321.53h3.43v6.73a3,3,0,0,0,.35,1.72,1.27,1.27,0,0,0,1.09.47,1.85,1.85,0,0,0,1.1-.31,4.38,4.38,0,0,0,.95-1v-7.64h3.43v11.55h-2.8l-.26-1.61h-.07a6.21,6.21,0,0,1-1.59,1.39,4,4,0,0,1-2,.5,3.08,3.08,0,0,1-2.74-1.24,6,6,0,0,1-.85-3.42Z"/><path class="cls-19" d="M366.56,334v3.38h-3.42V321.53h2.79l.24,1.14h.09a6.63,6.63,0,0,1,1.52-1,4.07,4.07,0,0,1,1.76-.4,4.17,4.17,0,0,1,1.89.42,3.93,3.93,0,0,1,1.42,1.18,5.65,5.65,0,0,1,.9,1.86,8.58,8.58,0,0,1,.31,2.41,7.7,7.7,0,0,1-.41,2.64,6.08,6.08,0,0,1-1.09,2,4.88,4.88,0,0,1-1.56,1.22,4.14,4.14,0,0,1-1.81.42,3.5,3.5,0,0,1-1.44-.32,4.41,4.41,0,0,1-1.31-.89Zm0-4.17a2.79,2.79,0,0,0,.93.58,2.73,2.73,0,0,0,.91.16,1.87,1.87,0,0,0,1.52-.8,4.32,4.32,0,0,0,.62-2.6c0-2.08-.66-3.12-2-3.12a2.76,2.76,0,0,0-2,1Z"/><path class="cls-19" d="M380.37,334v3.38H377V321.53h2.8l.23,1.14h.09a6.48,6.48,0,0,1,1.53-1,4,4,0,0,1,1.76-.4,4.13,4.13,0,0,1,1.88.42,3.85,3.85,0,0,1,1.42,1.18,5.65,5.65,0,0,1,.9,1.86,8.57,8.57,0,0,1,.32,2.41,8,8,0,0,1-.41,2.64,6.1,6.1,0,0,1-1.1,2,4.88,4.88,0,0,1-1.56,1.22,4.09,4.09,0,0,1-1.8.42,3.51,3.51,0,0,1-1.45-.32,4.37,4.37,0,0,1-1.3-.89Zm0-4.17a2.93,2.93,0,0,0,.94.58,2.67,2.67,0,0,0,.9.16,1.87,1.87,0,0,0,1.52-.8,4.25,4.25,0,0,0,.63-2.6q0-3.12-2-3.12a2.79,2.79,0,0,0-2,1Z"/><path class="cls-19" d="M390.76,316.75h3.43v12.88a1.05,1.05,0,0,0,.2.75.55.55,0,0,0,.4.21h.2a.74.74,0,0,0,.22,0l.42,2.54a3.67,3.67,0,0,1-.71.2,5.91,5.91,0,0,1-1,.08,3.48,3.48,0,0,1-1.49-.28,2.43,2.43,0,0,1-1-.78,3.34,3.34,0,0,1-.52-1.21,7.14,7.14,0,0,1-.17-1.6Z"/><path class="cls-19" d="M399.59,319.83a2,2,0,0,1-1.42-.51,1.65,1.65,0,0,1-.56-1.29,1.63,1.63,0,0,1,.56-1.28,2.06,2.06,0,0,1,1.42-.49,2,2,0,0,1,1.43.49,1.62,1.62,0,0,1,.55,1.28,1.64,1.64,0,0,1-.55,1.29A2,2,0,0,1,399.59,319.83Zm-1.7,1.7h3.43v11.55h-3.43Z"/><path class="cls-19" d="M404.11,327.3a6.63,6.63,0,0,1,.47-2.53,6,6,0,0,1,1.22-1.91,5.25,5.25,0,0,1,1.73-1.19,5.13,5.13,0,0,1,2-.42,5.2,5.2,0,0,1,2.16.42,4.1,4.1,0,0,1,1.53,1.16,4.93,4.93,0,0,1,.92,1.76,7.75,7.75,0,0,1,.26,3.05c0,.26-.06.45-.09.59h-6.92a2.91,2.91,0,0,0,1,1.93,3.28,3.28,0,0,0,2,.59,4.79,4.79,0,0,0,2.5-.77l1.14,2.07a7.36,7.36,0,0,1-2,1,7,7,0,0,1-2.13.35,6.49,6.49,0,0,1-2.31-.41,5.34,5.34,0,0,1-1.86-1.19,5.45,5.45,0,0,1-1.24-1.9A7,7,0,0,1,404.11,327.3Zm7.45-1.19a2.75,2.75,0,0,0-.44-1.63,1.68,1.68,0,0,0-1.49-.63,2.12,2.12,0,0,0-1.43.55,2.87,2.87,0,0,0-.81,1.71Z"/><path class="cls-19" d="M417.83,329.61a7.12,7.12,0,0,0,1.51.91,3.83,3.83,0,0,0,1.47.3,1.93,1.93,0,0,0,1.12-.26.85.85,0,0,0,.35-.72.76.76,0,0,0-.2-.5,2.12,2.12,0,0,0-.53-.41,6,6,0,0,0-.76-.33l-.86-.34a11.4,11.4,0,0,1-1.07-.49,4.55,4.55,0,0,1-1-.69,3.39,3.39,0,0,1-.73-.95,2.86,2.86,0,0,1-.27-1.27,3.43,3.43,0,0,1,.31-1.47,3.13,3.13,0,0,1,.9-1.14,4.38,4.38,0,0,1,1.39-.74,6.11,6.11,0,0,1,1.82-.26,5.63,5.63,0,0,1,2.33.45,9.36,9.36,0,0,1,1.75,1l-1.54,2.05a6.12,6.12,0,0,0-1.23-.72,3.13,3.13,0,0,0-1.22-.25c-.87,0-1.3.3-1.3.9a.65.65,0,0,0,.19.48,1.84,1.84,0,0,0,.5.36,6.17,6.17,0,0,0,.72.32l.85.31q.56.21,1.11.48a5.09,5.09,0,0,1,1,.66,3.06,3.06,0,0,1,.73,1,3,3,0,0,1,.28,1.36,3.58,3.58,0,0,1-.3,1.47,3.32,3.32,0,0,1-.91,1.18,4.68,4.68,0,0,1-1.49.79,6.67,6.67,0,0,1-2,.29,6.85,6.85,0,0,1-2.34-.44,7.41,7.41,0,0,1-2.09-1.17Z"/></g><rect class="cls-6" x="226.4" y="406.62" width="339.87" height="84.14" rx="4.45"/><rect class="cls-22" x="482.86" y="452.61" width="68.14" height="22.93" rx="5.13"/><rect class="cls-17" x="250.83" y="469.12" width="180.04" height="6.41" rx="1"/><rect class="cls-17" x="250.83" y="453.38" width="214.7" height="6.41" rx="1"/><rect class="cls-17" x="345.67" y="434.55" width="120.37" height="6.41" rx="1"/><g class="cls-18"><path class="cls-19" d="M252.63,425.24h9.57v2.89h-6.15v3.52h5.26v2.88h-5.26v5.9h-3.42Z"/><path class="cls-19" d="M264.46,428.87h3.42v6.74a3.06,3.06,0,0,0,.35,1.72,1.3,1.3,0,0,0,1.1.47,1.89,1.89,0,0,0,1.09-.31,4.06,4.06,0,0,0,1-1v-7.64h3.42v11.56H272l-.26-1.61h-.07a6.42,6.42,0,0,1-1.6,1.39,3.94,3.94,0,0,1-2,.5,3.08,3.08,0,0,1-2.74-1.24,5.92,5.92,0,0,1-.85-3.42Z"/><path class="cls-19" d="M278.27,428.87h2.8l.23,1.47h.09a9.76,9.76,0,0,1,1.63-1.22,4,4,0,0,1,2.08-.52,3.08,3.08,0,0,1,2.73,1.23,5.92,5.92,0,0,1,.85,3.42v7.18h-3.42V433.7a3.1,3.1,0,0,0-.34-1.73,1.23,1.23,0,0,0-1.08-.46,2,2,0,0,0-1.12.29,6.52,6.52,0,0,0-1,.82v7.81h-3.43Z"/><path class="cls-19" d="M291.46,434.65a7.44,7.44,0,0,1,.4-2.54,6.25,6.25,0,0,1,1.08-1.9,4.63,4.63,0,0,1,1.53-1.2,4.09,4.09,0,0,1,1.78-.41,3.44,3.44,0,0,1,1.61.32,5.73,5.73,0,0,1,1.24.89L299,428V424.1h3.42v16.33h-2.79l-.24-1.14h-.09a5.44,5.44,0,0,1-1.42,1,3.69,3.69,0,0,1-1.65.41,4.43,4.43,0,0,1-1.95-.42,4.21,4.21,0,0,1-1.49-1.2,5.75,5.75,0,0,1-1-1.9A9,9,0,0,1,291.46,434.65Zm3.51,0a4.57,4.57,0,0,0,.55,2.52,1.77,1.77,0,0,0,1.55.79,2.24,2.24,0,0,0,1-.23,2.57,2.57,0,0,0,.88-.82v-4.72a2.75,2.75,0,0,0-1-.59,2.92,2.92,0,0,0-.95-.16,1.83,1.83,0,0,0-1.45.78A3.84,3.84,0,0,0,295,434.6Z"/><path class="cls-19" d="M307.58,427.17a2,2,0,0,1-1.43-.5,1.64,1.64,0,0,1-.55-1.29,1.62,1.62,0,0,1,.55-1.28,2.09,2.09,0,0,1,1.43-.49,2.05,2.05,0,0,1,1.43.49,1.66,1.66,0,0,1,.55,1.28,1.68,1.68,0,0,1-.55,1.29A2,2,0,0,1,307.58,427.17Zm-1.7,1.7h3.42v11.56h-3.42Z"/><path class="cls-19" d="M312.77,428.87h2.8l.23,1.47h.09a9.76,9.76,0,0,1,1.63-1.22,4,4,0,0,1,2.08-.52,3.08,3.08,0,0,1,2.73,1.23,5.92,5.92,0,0,1,.85,3.42v7.18h-3.42V433.7a3.1,3.1,0,0,0-.34-1.73,1.24,1.24,0,0,0-1.08-.46,2,2,0,0,0-1.12.29,7,7,0,0,0-1,.82v7.81h-3.42Z"/><path class="cls-19" d="M325.84,442.41a2.7,2.7,0,0,1,1.65-2.33V440a2.69,2.69,0,0,1-.77-.77,2.17,2.17,0,0,1-.3-1.19,2.14,2.14,0,0,1,.37-1.2,3.73,3.73,0,0,1,.93-1v-.09a4,4,0,0,1-1.08-1.2,3.37,3.37,0,0,1-.48-1.81,4,4,0,0,1,.4-1.82,3.88,3.88,0,0,1,1.06-1.31,4.43,4.43,0,0,1,1.53-.78,6.24,6.24,0,0,1,1.79-.25,5.39,5.39,0,0,1,1.79.27H337v2.5h-1.84a2.31,2.31,0,0,1,.27.65,3.33,3.33,0,0,1,.1.86,4.06,4.06,0,0,1-.35,1.74,3.27,3.27,0,0,1-1,1.21,4.36,4.36,0,0,1-1.45.71,6.72,6.72,0,0,1-1.78.23,4.71,4.71,0,0,1-1.4-.23,1.18,1.18,0,0,0-.32.37,1,1,0,0,0-.1.49.69.69,0,0,0,.39.65,3.07,3.07,0,0,0,1.36.21h1.86A6.38,6.38,0,0,1,336,439a2.44,2.44,0,0,1,1.13,2.25,3.19,3.19,0,0,1-.46,1.66,4,4,0,0,1-1.29,1.31,7.13,7.13,0,0,1-2,.86,10.44,10.44,0,0,1-2.68.31,10.33,10.33,0,0,1-1.9-.17,5.51,5.51,0,0,1-1.53-.53,2.71,2.71,0,0,1-1-.9A2.35,2.35,0,0,1,325.84,442.41Zm2.82-.54a1.06,1.06,0,0,0,.69,1,4.28,4.28,0,0,0,1.87.34,4,4,0,0,0,1.91-.41,1.17,1.17,0,0,0,.74-1,.7.7,0,0,0-.45-.72,3.48,3.48,0,0,0-1.32-.19h-1.18c-.41,0-.73,0-1,0a4.59,4.59,0,0,1-.65-.11A1.55,1.55,0,0,0,328.66,441.87Zm2.28-7.17a1.49,1.49,0,0,0,1.13-.48,2.06,2.06,0,0,0,.45-1.46,1.94,1.94,0,0,0-.45-1.38,1.49,1.49,0,0,0-1.13-.48,1.52,1.52,0,0,0-1.13.47,1.92,1.92,0,0,0-.46,1.39,2.06,2.06,0,0,0,.46,1.46A1.49,1.49,0,0,0,330.94,434.7Z"/></g><line class="cls-23" x1="269.19" y1="101.73" x2="269.19" y2="101.73"/><line class="cls-24" x1="282.86" y1="101.73" x2="344.36" y2="101.73"/><line class="cls-23" x1="351.19" y1="101.73" x2="351.19" y2="101.73"/></g></g></g></svg>