<svg xmlns="http://www.w3.org/2000/svg" xmlns:xlink="http://www.w3.org/1999/xlink" viewBox="0 0 743.14 600.4"><defs><style>.cls-1{fill:#b26a43;}.cls-2,.cls-30{fill:#b6d9e5;}.cls-3,.cls-33{fill:#fff;}.cls-4{fill:#a8cada;}.cls-5{isolation:isolate;}.cls-6{fill:#bf3552;}.cls-7{fill:#dba33f;}.cls-10,.cls-11,.cls-8{fill:#2a1d2a;}.cls-10,.cls-18,.cls-28,.cls-8{stroke:#2a1d2a;}.cls-10,.cls-22,.cls-25,.cls-26,.cls-27,.cls-29,.cls-8{stroke-miterlimit:10;}.cls-8{stroke-width:0.41px;}.cls-9{fill:#f2c15f;}.cls-10{stroke-width:0.3px;}.cls-12{clip-path:url(#clip-path);}.cls-13,.cls-20{fill:#bf774d;}.cls-13,.cls-17,.cls-29,.cls-30,.cls-31{mix-blend-mode:multiply;}.cls-14{clip-path:url(#clip-path-2);}.cls-15{fill:#da9e7a;}.cls-16{fill:#4dc2cb;}.cls-17{fill:#8b2b1c;opacity:0.5;}.cls-18,.cls-22,.cls-25,.cls-26,.cls-27,.cls-28,.cls-29,.cls-32,.cls-37{fill:none;}.cls-18,.cls-28,.cls-32,.cls-36,.cls-37{stroke-linecap:round;stroke-linejoin:round;}.cls-18{stroke-width:1.54px;}.cls-19{fill:#f0a68f;}.cls-21{clip-path:url(#clip-path-3);}.cls-22{stroke:#32b5c3;stroke-width:1.76px;}.cls-23{clip-path:url(#clip-path-4);}.cls-24{clip-path:url(#clip-path-5);}.cls-25,.cls-27{stroke:#8b2b1c;}.cls-25{stroke-width:0.78px;}.cls-26{stroke:#4dc2cb;stroke-width:3.29px;}.cls-27{stroke-width:0.88px;}.cls-28{stroke-width:2.56px;}.cls-29{stroke:#bf774d;stroke-width:1.02px;}.cls-32,.cls-36{stroke:#fff;}.cls-32{stroke-width:4.51px;}.cls-33{fill-rule:evenodd;}.cls-34{fill:#dcddde;opacity:0.35;}.cls-35,.cls-36{fill:#221f1f;}.cls-36,.cls-37{stroke-width:2.27px;}.cls-37{stroke:#424143;}</style><clipPath id="clip-path"><path class="cls-1" d="M352.79,311.51c-.07,4-5.31,10.37-8.83,19.09a25.6,25.6,0,0,1-3.48,6.07,28.76,28.76,0,0,1-7,6.45c-10.19,6.76-23.56,7.37-27.65,4.12a16.84,16.84,0,0,1-6.62-11.36c0-.09,0-.17,0-.26s-.07-.44-.09-.67l0-.17c-.79-7,1.38-15.83,6.89-25.21.12-.22.24-.42.34-.59l-3.5-47.51L333.37,258l12.13-1.39,4.78,51.47a3.62,3.62,0,0,1,2.45,2.67A3.25,3.25,0,0,1,352.79,311.51Z"/></clipPath><clipPath id="clip-path-2"><path class="cls-1" d="M278.93,223.41c-6.14,23.21-3.24,45.57,11.61,69.29,2.51,4,8.71,5.68,13.36,4.84H304c17.66-3.25,31.24-13.43,42.33-27.81,0,0,1.09-38.77.85-46.1-20.53-7.22-50-31-50-31S284.79,201.28,278.93,223.41Z"/></clipPath><clipPath id="clip-path-3"><rect class="cls-2" x="334.04" y="517.67" width="63.37" height="34.32" rx="17.16" transform="translate(731.45 1069.66) rotate(-180)"/></clipPath><clipPath id="clip-path-4"><path class="cls-3" d="M219.63,453.92H28.35V271.63a10,10,0,0,1,10-10h167a14.45,14.45,0,0,1,14.3,14.6Z"/></clipPath><clipPath id="clip-path-5"><path class="cls-4" d="M212.92,453.92H28.35V274.79A9.74,9.74,0,0,1,38,265H199.13c7.62,0,13.79,6.42,13.79,14.35Z"/></clipPath></defs><title>Asset 2</title><g class="cls-5"><g id="Layer_2" data-name="Layer 2"><g id="Layer_1-2" data-name="Layer 1"><path class="cls-6" d="M331.26,351.25H475.12a0,0,0,0,1,0,0V532.72a0,0,0,0,1,0,0H436.38A105.13,105.13,0,0,1,331.26,427.59V351.25A0,0,0,0,1,331.26,351.25Z" transform="translate(782.22 904.85) rotate(-176.94)"/><path class="cls-7" d="M443.69,516.67,333.1,507.11,317.19,406c-11-46.82-12.81-24.33,5.49-28,16.81-3.37,14.63-1.28,27.43-1.65,26.81-.77,24-14.89,20.31,11,0,0,13.28-15.54,23.6-13.72,11.52,48.29,53.09,130.48,53.09,130.48A12.85,12.85,0,0,1,443.69,516.67Z"/><path class="cls-8" d="M323.69,333.3c0,18.11-15.16,32.8-33.85,32.8S256,351.41,256,333.3a32.73,32.73,0,0,1,14.37-26.84c6.53-4.54,30.08-12.73,37.25-25.7C316.65,264.39,323.69,315.18,323.69,333.3Z"/><path class="cls-7" d="M309.51,485.66c-6-51.55-38.05-118.11-38.05-118.11-9.15-40.29,17.56-51.8,35.85-55.4,16.82-3.31,57.44-1.8,70.24-2.16,26.81-.75,32.95,25.29,29.27,50.73l-61.64,23.2,2.19,96.6S315.54,537.21,309.51,485.66Z"/><path class="cls-9" d="M309.51,485.66c47.56-20.23,12.43-60.47-13.54-99.61s-8.05-69.94,10.24-73.54c16.82-3.31,58.54-2.16,71.34-2.52,26.81-.75,32.95,25.29,29.27,50.73l-42.07,31.91L384.5,475S261.74,506,309.51,485.66Z"/><ellipse class="cls-10" cx="293.16" cy="207.69" rx="24.54" ry="24.98"/><path class="cls-11" d="M292.34,232.67a26.56,26.56,0,0,1-12-2.64,25.56,25.56,0,0,1-14.15-19.81,26.66,26.66,0,0,1,1.62-12.7A27.31,27.31,0,0,1,275.38,187a27.69,27.69,0,0,1,11.76-5.75,30.63,30.63,0,0,1,6.62-.62,27.82,27.82,0,0,1,18.31,7.53l-3.59,3.65a23.21,23.21,0,0,0-9.39-5.91,24.76,24.76,0,0,0-5.54-1.12,27.82,27.82,0,0,0-5.69.24,23.74,23.74,0,0,0-17.73,13.47,23.75,23.75,0,0,0,1.68,22.73,25.68,25.68,0,0,0,8.78,8.21A26.24,26.24,0,0,0,292.34,232.67Z"/><path class="cls-1" d="M352.79,311.51c-.07,4-5.31,10.37-8.83,19.09a25.6,25.6,0,0,1-3.48,6.07,28.76,28.76,0,0,1-7,6.45c-10.19,6.76-23.56,7.37-27.65,4.12a16.84,16.84,0,0,1-6.62-11.36c0-.09,0-.17,0-.26s-.07-.44-.09-.67l0-.17c-.79-7,1.38-15.83,6.89-25.21.12-.22.24-.42.34-.59l-3.5-47.51L333.37,258l12.13-1.39,4.78,51.47a3.62,3.62,0,0,1,2.45,2.67A3.25,3.25,0,0,1,352.79,311.51Z"/><g class="cls-12"><path class="cls-13" d="M302.49,311.48c-10.58,3.75-.94-12.17.85-13.82,9.49-8.78,16.26-12.36,20.57-13.76a5.08,5.08,0,0,1,6.61,5.72C329.46,295.45,324.34,305.33,302.49,311.48Z"/></g><path class="cls-1" d="M278.93,223.41c-6.14,23.21-3.24,45.57,11.61,69.29,2.51,4,8.71,5.68,13.36,4.84H304c17.66-3.25,31.24-13.43,42.33-27.81,0,0,1.09-38.77.85-46.1-20.53-7.22-50-31-50-31S284.79,201.28,278.93,223.41Z"/><g class="cls-14"><path class="cls-15" d="M268.35,200.27c0,1.66,0,3.34,0,5,0,6.49-4.8,15.09-4.29,21.83,2.12,27.91,10.58,45.66,19.72,66.24.25.2,3,7.69,3.22,7.88,2.93-.15,14.5,0,14.5,0s-25.26-45.06-10.92-94.56c2.77-5.29,6.59,4.64,13.63,4.08a114.51,114.51,0,0,1,31.71,2.09l-46.89-32Z"/></g><path class="cls-16" d="M99.14,555.62H298.59c3.78,0,6.82-2.69,6.84-6.47l.34-56.68-206.24.7Z"/><path class="cls-3" d="M99.35,544.84H290.76c3.79,0,6.85-4.43,6.87-8.23l.17-44.28H99.54Z"/><rect class="cls-4" x="185.42" y="528.42" width="17.6" height="6.49" rx="3.25"/><rect class="cls-4" x="212.02" y="528.42" width="17.6" height="6.49" rx="3.25"/><rect class="cls-4" x="238.62" y="528.42" width="17.6" height="6.49" rx="3.25"/><rect class="cls-4" x="265.21" y="528.42" width="17.6" height="6.49" rx="3.25"/><rect class="cls-4" x="132.22" y="528.42" width="17.6" height="6.49" rx="3.25"/><rect class="cls-4" x="158.82" y="528.42" width="17.6" height="6.49" rx="3.25"/><rect class="cls-4" x="185.42" y="515.43" width="17.6" height="6.49" rx="3.25"/><rect class="cls-4" x="212.02" y="515.43" width="17.6" height="6.49" rx="3.25"/><rect class="cls-4" x="238.62" y="515.43" width="17.6" height="6.49" rx="3.25"/><rect class="cls-4" x="265.21" y="515.43" width="17.6" height="6.49" rx="3.25"/><rect class="cls-4" x="132.22" y="515.43" width="17.6" height="6.49" rx="3.25"/><rect class="cls-4" x="158.82" y="515.43" width="17.6" height="6.49" rx="3.25"/><path class="cls-4" d="M225.22,508.29h-35.4c-2.42,0-4.4-1.47-4.4-3.25s2-3.25,4.4-3.25h35.4c2.42,0,4.4,1.46,4.4,3.25S227.64,508.29,225.22,508.29Z"/><rect class="cls-4" x="238.62" y="501.79" width="17.6" height="6.49" rx="3.25"/><rect class="cls-4" x="265.21" y="501.79" width="17.6" height="6.49" rx="3.25"/><rect class="cls-4" x="132.22" y="501.79" width="17.6" height="6.49" rx="3.25"/><rect class="cls-4" x="158.82" y="501.79" width="17.6" height="6.49" rx="3.25"/><path class="cls-1" d="M292.76,222c-5.72,24.07-10.33,31.49-13.18,38a3.18,3.18,0,0,0,.55,3.65l16,6.14,7.66-3.18C305.05,263.24,292.76,222,292.76,222Z"/><path class="cls-17" d="M295.86,278.62c7.81-1.55,14.3-5.3,18.18-9.94-3.07,12-17.82,21.46-25.88,10.67A37.34,37.34,0,0,0,295.86,278.62Z"/><path class="cls-18" d="M285.85,277.73c5.12,2.94,18.94,2.17,27.39-7.3"/><path class="cls-19" d="M334.37,492.77l.05,0,.09-.09A.46.46,0,0,1,334.37,492.77Z"/><path class="cls-20" d="M370.42,491s-82.87,18.86-99.78,22.61c-.32.38-12.29,7.76-21.42-4.15-7.77-3.5-16.13-6.47-19-3.93A96.11,96.11,0,0,0,218,518.26a8.22,8.22,0,0,1-10.43,2c-4.67-2.67-10.28-5.84-10.28-5.84,5.28-13.2,20.27-29.93,36.44-31.76,7.81,2.44,22.53,6.11,30,8.9,11.73-1.91,102-31.12,102-31.12"/><rect class="cls-2" x="334.04" y="517.67" width="63.37" height="34.32" rx="17.16" transform="translate(731.45 1069.66) rotate(-180)"/><g class="cls-21"><line class="cls-22" x1="355.75" y1="514.44" x2="355.75" y2="557.27"/></g><path class="cls-7" d="M304.88,311.48a31.83,31.83,0,0,0-5.14,10.92,29.83,29.83,0,0,0-.69,12A32,32,0,0,0,303,345.61a45.58,45.58,0,0,0,7.26,9.5l.19.19,0,.3,3.56,28.62L312.73,383l12.29-.21v3.08l-12.29-.21-1.21,0-.11-1.17-2.58-28.73.22.49a47.31,47.31,0,0,1-7.15-10.05,33,33,0,0,1-3.67-11.74,30.36,30.36,0,0,1,1.11-12.18A32.16,32.16,0,0,1,304.88,311.48Z"/><path class="cls-3" d="M219.63,453.92H28.35V271.63a10,10,0,0,1,10-10h167a14.45,14.45,0,0,1,14.3,14.6Z"/><g class="cls-23"><rect class="cls-3" y="182.63" width="192.07" height="288.65"/></g><path class="cls-4" d="M212.92,453.92H28.35V274.79A9.74,9.74,0,0,1,38,265H199.13c7.62,0,13.79,6.42,13.79,14.35Z"/><g class="cls-24"><rect class="cls-4" x="0.99" y="187.34" width="185.34" height="283.65"/></g><rect class="cls-4" x="75.37" y="381.29" width="57.87" height="72.63"/><rect class="cls-3" x="201.4" y="404.99" width="13.11" height="10.09"/><rect class="cls-3" x="201.4" y="422.22" width="13.11" height="10.09"/><path class="cls-7" d="M171.74,478.9c76.62-30.25,88.1-97,101.18-141.15,12-5.76,4.47,59.63,17.56,57.44-1.73,9.1,12.4,7.11,9.79,14.37-14,39-49.65,56.66-97.07,82.24a16.78,16.78,0,0,1-19-2.07Z"/><path class="cls-20" d="M157.42,468.6c7.21.29,16.43,4.11,27,7,9.57-4.31,22.86,7,9.29,14.07-.18.4-8.7,9.43-19.21,1.37-7.42-1.21-15.23-1.83-17.13,1a88.47,88.47,0,0,0-8.07,15,5.37,5.37,0,0,1-6.29,3.05c-4.79-1.26-11.64-3-11.64-3C132.84,494.63,144.05,473.86,157.42,468.6Z"/><path class="cls-25" d="M159,473.88s-15.69,3.27-23.6,33.81"/><path class="cls-25" d="M164.69,477.17s-15.23,4.34-23.33,32.48"/><path class="cls-20" d="M175.12,482.86a62.46,62.46,0,0,0-14.82,17,4.06,4.06,0,0,0,2.3,5.93h0a4,4,0,0,0,4.58-1.64c2.48-3.81,7.79-10.76,14.88-13.26"/><rect class="cls-16" x="28.35" y="444.99" width="191.28" height="10.76"/><polygon class="cls-4" points="114.14 567.1 51.21 567.1 66.69 357.63 129.63 357.63 114.14 567.1"/><polygon class="cls-4" points="117.13 556.71 110.89 556.71 124.18 381.29 130.42 381.29 117.13 556.71"/><path class="cls-4" d="M180.3,567.1H56.49V551.24H164.43A15.86,15.86,0,0,1,180.3,567.1Z"/><path class="cls-26" d="M355.6,533.79H322.82a4.58,4.58,0,0,0-4.62,4.53V580.6a18.34,18.34,0,0,1-18.51,18.16h-139c-10.23,0-18.51-8.72-18.51-24.64V545.55"/><path class="cls-20" d="M226.23,486.86A59.49,59.49,0,0,0,203.3,488a2.85,2.85,0,0,0-1.75,4.16h0a2.83,2.83,0,0,0,3.25,1.34c3.36-.93,9.95-2.34,14.39-.44C225.35,495.66,242.07,489.06,226.23,486.86Z"/><path class="cls-9" d="M264.51,488.85,353.6,462l-5.07-86.16,58.29-19.39-3,116.56a27.48,27.48,0,0,1-23,26.3L274.09,516.84Z"/><path class="cls-27" d="M237.29,486.13s-18.11-1-35.73,30.07"/><path class="cls-27" d="M242.58,491.41s-17.93.27-35.06,28.68"/><ellipse class="cls-11" cx="278.68" cy="241.76" rx="2.57" ry="3.46"/><ellipse class="cls-11" cx="307.22" cy="241.24" rx="3.29" ry="3.97"/><path class="cls-28" d="M282.35,223.07s-4.35,3.32-6.4,7.16"/><path class="cls-11" d="M373.49,284.85c-2.37-2.79-3-6.61-5.63-9.39-1.27-1.66-7.13-7.77-2.39-14,12.29-16.13,3.58-50.69,1.54-55.05-21.11-44.86-69.11-20.83-69.64-20.22-5.12,5.8-6.65,8.59-6.66,8.7-2.12,21.16,27.14,37,51,46.94.85,14.52-1,51.29-14.68,100.7C310.81,401.06,446.37,370.54,373.49,284.85Z"/><path class="cls-11" d="M363.36,270.94a154.36,154.36,0,0,1,20.87,21.81,94,94,0,0,1,8.3,12.7,58.44,58.44,0,0,1,5.54,14.18,37.9,37.9,0,0,1,.61,15.22,34.69,34.69,0,0,1-5.87,13.93,47,47,0,0,1-4.81,5.8l-2.75,2.55-.69.64-.74.58-1.48,1.15a69.92,69.92,0,0,1-6.13,4.27c-1,.71-2.15,1.25-3.22,1.88l-3.25,1.81,3.17-1.95c1-.67,2.14-1.25,3.13-2a69.57,69.57,0,0,0,5.9-4.5l1.41-1.2.71-.6.65-.65,2.59-2.63a45.49,45.49,0,0,0,4.44-5.85,33,33,0,0,0,5-13.51,35.59,35.59,0,0,0-1.19-14.29A55.92,55.92,0,0,0,389.75,307a89.82,89.82,0,0,0-8.52-11.86,148.81,148.81,0,0,0-21.16-20.29Z"/><path class="cls-11" d="M293.34,199a15,15,0,0,0-.51,3.51,14,14,0,0,0,.43,3.49c.19.58.29,1.18.53,1.75l.71,1.73c.25.57.61,1.12.9,1.68a13.17,13.17,0,0,0,1,1.65,45.82,45.82,0,0,0,5,6.16c.95.94,1.88,1.92,2.85,2.85l3.05,2.67c1,.92,2.11,1.71,3.17,2.55s2.14,1.69,3.25,2.48l3.36,2.34c1.13.77,2.23,1.58,3.41,2.29,2.32,1.43,4.61,3,7,4.33l7.15,4.09L327.13,239c-2.48-1.19-4.89-2.53-7.34-3.79-1.23-.62-2.41-1.35-3.6-2l-3.58-2.09c-1.19-.72-2.32-1.51-3.49-2.26s-2.34-1.49-3.44-2.35L302.33,224c-1.08-.89-2.13-1.83-3.2-2.74a48.78,48.78,0,0,1-5.86-6.22,16.34,16.34,0,0,1-1.27-1.78c-.39-.62-.84-1.2-1.19-1.86l-1-2c-.34-.67-.55-1.42-.83-2.13a18.42,18.42,0,0,1-.93-4.6,20.37,20.37,0,0,1,.29-4.67Z"/><path class="cls-1" d="M339.7,241.16s16.72,2.05,2.39,20.14S339.7,241.16,339.7,241.16Z"/><path class="cls-29" d="M288.83,235.7a80.48,80.48,0,0,1-9.21,25,1.43,1.43,0,0,0,.8,1.84l10.46,4.09"/><path class="cls-17" d="M342.77,250c0,2.58-1.68,4.68-3.77,4.78,0-.57,0-1.13,0-1.7q0-4-.34-7.85h.17C341,245.25,342.77,247.39,342.77,250Z"/><rect class="cls-3" x="403.27" y="179.95" width="339.87" height="84.14" rx="4.45"/><rect class="cls-6" x="656.72" y="225.23" width="68.14" height="22.93" rx="5.13"/><rect class="cls-30" x="424.14" y="226.02" width="202.35" height="6.41" rx="1"/><rect class="cls-30" x="522.39" y="210.29" width="128.77" height="6.41" rx="1"/><rect class="cls-30" x="424.14" y="241.75" width="215.18" height="6.41" rx="1"/><g class="cls-31"><path class="cls-11" d="M426.92,211.93a7.63,7.63,0,0,0,1.8,1.14,4.83,4.83,0,0,0,1.95.44,2.59,2.59,0,0,0,1.59-.4,1.27,1.27,0,0,0,.53-1.07,1.16,1.16,0,0,0-.15-.6,1.51,1.51,0,0,0-.45-.46,4.09,4.09,0,0,0-.7-.37l-.89-.38-2-.84a5.9,5.9,0,0,1-1.13-.61,5.09,5.09,0,0,1-1-.87,3.89,3.89,0,0,1-.69-1.17,4.14,4.14,0,0,1-.25-1.5,4.08,4.08,0,0,1,.39-1.76,4.45,4.45,0,0,1,1.12-1.44,5.29,5.29,0,0,1,1.71-1,6.6,6.6,0,0,1,2.18-.35,7.1,7.1,0,0,1,2.62.51,6.78,6.78,0,0,1,2.27,1.49l-1.75,2.17a6.36,6.36,0,0,0-1.49-.9,4.15,4.15,0,0,0-1.65-.31,2.45,2.45,0,0,0-1.41.36,1.16,1.16,0,0,0-.52,1,1,1,0,0,0,.17.6,1.76,1.76,0,0,0,.49.44,4.51,4.51,0,0,0,.73.37l.91.39,2,.79a5.29,5.29,0,0,1,2.2,1.54,3.9,3.9,0,0,1,.8,2.58,4.29,4.29,0,0,1-.38,1.81,4.47,4.47,0,0,1-1.12,1.49,5.43,5.43,0,0,1-1.8,1,7.12,7.12,0,0,1-2.43.39,8.66,8.66,0,0,1-3-.55,7.75,7.75,0,0,1-2.64-1.64Z"/><path class="cls-11" d="M439,204.63h3.42v6.74a3.06,3.06,0,0,0,.35,1.72,1.3,1.3,0,0,0,1.1.47,1.89,1.89,0,0,0,1.09-.31,4.19,4.19,0,0,0,1-1v-7.65h3.42v11.56h-2.79l-.26-1.61h-.07a6.56,6.56,0,0,1-1.59,1.39,4,4,0,0,1-2,.5,3.08,3.08,0,0,1-2.74-1.24,5.92,5.92,0,0,1-.85-3.42Z"/><path class="cls-11" d="M456.2,217.1v3.37h-3.43V204.63h2.8l.23,1.15h.09a6.19,6.19,0,0,1,1.53-1,4,4,0,0,1,1.76-.4,4,4,0,0,1,3.31,1.6,5.79,5.79,0,0,1,.89,1.85,8.7,8.7,0,0,1,.32,2.42,8,8,0,0,1-.41,2.64,6.27,6.27,0,0,1-1.09,2,4.8,4.8,0,0,1-1.57,1.22,4.09,4.09,0,0,1-1.8.42,3.51,3.51,0,0,1-1.45-.32,4.57,4.57,0,0,1-1.3-.89Zm0-4.17a2.79,2.79,0,0,0,.93.58,2.69,2.69,0,0,0,.91.16,1.85,1.85,0,0,0,1.51-.8,4.25,4.25,0,0,0,.63-2.6c0-2.08-.67-3.12-2-3.12a2.76,2.76,0,0,0-2,1Z"/><path class="cls-11" d="M470,217.1v3.37h-3.42V204.63h2.79l.23,1.15h.1a6.32,6.32,0,0,1,1.52-1,4.07,4.07,0,0,1,1.76-.4,4.16,4.16,0,0,1,1.89.41A4.06,4.06,0,0,1,476.3,206a5.6,5.6,0,0,1,.9,1.85,8.71,8.71,0,0,1,.31,2.42,7.7,7.7,0,0,1-.41,2.64,6.08,6.08,0,0,1-1.09,2,4.88,4.88,0,0,1-1.56,1.22,4.14,4.14,0,0,1-1.81.42,3.47,3.47,0,0,1-1.44-.32,4.61,4.61,0,0,1-1.31-.89Zm0-4.17a2.79,2.79,0,0,0,.93.58,2.73,2.73,0,0,0,.91.16,1.84,1.84,0,0,0,1.51-.8,4.25,4.25,0,0,0,.63-2.6c0-2.08-.66-3.12-2-3.12a2.76,2.76,0,0,0-2,1Z"/><path class="cls-11" d="M480.4,199.86h3.42v12.88a1.1,1.1,0,0,0,.2.75.57.57,0,0,0,.41.21h.2a.82.82,0,0,0,.22,0l.42,2.54a4.13,4.13,0,0,1-.71.2,6,6,0,0,1-1,.08,3.67,3.67,0,0,1-1.49-.28,2.47,2.47,0,0,1-1-.78,3.42,3.42,0,0,1-.53-1.21,7.17,7.17,0,0,1-.16-1.6Z"/><path class="cls-11" d="M489.23,202.93a2,2,0,0,1-1.42-.5,1.62,1.62,0,0,1-.56-1.29,1.6,1.6,0,0,1,.56-1.28,2.32,2.32,0,0,1,2.85,0,1.62,1.62,0,0,1,.55,1.28,1.64,1.64,0,0,1-.55,1.29A2,2,0,0,1,489.23,202.93Zm-1.7,1.7H491v11.56h-3.42Z"/><path class="cls-11" d="M493.75,210.41a6.63,6.63,0,0,1,.46-2.53,5.93,5.93,0,0,1,1.23-1.91,5.28,5.28,0,0,1,1.73-1.2,5.53,5.53,0,0,1,4.18,0,4.18,4.18,0,0,1,1.54,1.17,4.93,4.93,0,0,1,.92,1.76,7.7,7.7,0,0,1,.3,2.2,7.46,7.46,0,0,1,0,.85c0,.26-.07.45-.1.59h-6.92a2.86,2.86,0,0,0,1,1.92,3.2,3.2,0,0,0,2,.6,4.78,4.78,0,0,0,2.49-.77l1.14,2.07a7.21,7.21,0,0,1-2,1,7,7,0,0,1-2.13.35,6.43,6.43,0,0,1-2.3-.41,5.29,5.29,0,0,1-1.87-1.19,5.43,5.43,0,0,1-1.23-1.9A6.8,6.8,0,0,1,493.75,210.41Zm7.45-1.19a2.83,2.83,0,0,0-.44-1.63,1.7,1.7,0,0,0-1.49-.63,2.14,2.14,0,0,0-1.44.55,2.81,2.81,0,0,0-.8,1.71Z"/><path class="cls-11" d="M507.47,212.72a7.3,7.3,0,0,0,1.51.91,3.79,3.79,0,0,0,1.47.3,2,2,0,0,0,1.12-.26.85.85,0,0,0,.35-.72.74.74,0,0,0-.2-.5,2,2,0,0,0-.54-.41,6.86,6.86,0,0,0-.76-.34l-.86-.33c-.35-.14-.71-.31-1.07-.49a4.81,4.81,0,0,1-1-.69,3.56,3.56,0,0,1-.72-.95,2.73,2.73,0,0,1-.28-1.27,3.44,3.44,0,0,1,.32-1.47,3.1,3.1,0,0,1,.89-1.14,4.55,4.55,0,0,1,1.4-.74,5.76,5.76,0,0,1,1.82-.26,5.66,5.66,0,0,1,2.33.45,9.26,9.26,0,0,1,1.74,1l-1.53,2.05a5.92,5.92,0,0,0-1.24-.72,3.1,3.1,0,0,0-1.21-.26c-.87,0-1.3.31-1.3.91a.68.68,0,0,0,.18.48,2,2,0,0,0,.5.36,7.51,7.51,0,0,0,.73.32l.85.31a11.82,11.82,0,0,1,1.1.48,4.56,4.56,0,0,1,1,.66,3.09,3.09,0,0,1,.74,1,3.14,3.14,0,0,1,.28,1.36,3.43,3.43,0,0,1-.31,1.47,3.18,3.18,0,0,1-.9,1.17,4.66,4.66,0,0,1-1.5.8,6.67,6.67,0,0,1-2,.29A6.85,6.85,0,0,1,508,216a7.35,7.35,0,0,1-2.08-1.17Z"/></g><circle class="cls-6" cx="71.6" cy="263.43" r="59.76"/><polyline class="cls-32" points="26.44 243.72 43.42 243.72 61.41 281.32 95.37 281.32 108.86 253.25 58.25 253.25"/><g class="cls-5"><path class="cls-33" d="M98.67,293A5.67,5.67,0,1,1,93,287.32,5.67,5.67,0,0,1,98.67,293"/></g><g class="cls-5"><path class="cls-33" d="M68.31,293a5.68,5.68,0,1,1-5.67-5.67A5.67,5.67,0,0,1,68.31,293"/></g><path class="cls-3" d="M73.9,271.6h2.89v-7.68H74.3V262a11.11,11.11,0,0,0,1.84-.5,10,10,0,0,0,1.47-.71h2.26v10.8h2.49v2.49H73.9Z"/><polygon class="cls-34" points="476.41 85.69 460.4 98.23 504.77 100.5 516.93 86.13 476.41 85.69"/><circle class="cls-3" cx="474.42" cy="75.73" r="75.73"/><path class="cls-35" d="M434.12,57.76c-3.21-.15-11.92,16.39-8.26,28.73-.05,3.73-2.76,7.58,1,10.12,1.56,1,66.3,3,66.3,3l35.69-3.5a14.76,14.76,0,0,0-.52-9.54c-.62-4.85-13-7.94-25-13.55s-39.23-24.44-39.23-24.44S453,53.28,459.45,63c2.81,7-12.48,6.9-15.83,3.73S434.12,57.76,434.12,57.76Z"/><line class="cls-36" x1="479.34" y1="60.03" x2="474.47" y2="68.96"/><line class="cls-36" x1="486.01" y1="64.19" x2="482.41" y2="71.85"/><line class="cls-36" x1="492.58" y1="68.1" x2="488.89" y2="75.04"/><line class="cls-36" x1="499.02" y1="72.13" x2="495.47" y2="78.71"/><path class="cls-37" d="M428.32,87.92l55.44,2.54a136.3,136.3,0,0,0,18.41-.4L526,87.94"/></g></g></g></svg>