<svg fill="#EC6421" xmlns="http://www.w3.org/2000/svg" data-name="EX OutLine copy 2" viewBox="0 0 64 64" x="0px" y="0px"><title>forest-wild-fire-nature</title><path d="M57,39.25v-2c0-1.689-1.844-14-6-14-1.945,0-3.384,2.7-4.364,5.74a12.853,12.853,0,0,0-1.929-2.7A1,1,0,0,0,43,27a9.5,9.5,0,0,1-.6,3.092,26.77,26.77,0,0,0-4.628-1.459A5.979,5.979,0,0,0,38,27V25c0-1.689-1.844-14-6-14s-6,12.311-6,14v2a6.022,6.022,0,0,0,.086.975C25.424,27.721,23,26.486,23,22a1,1,0,0,0-1.7-.714,17.883,17.883,0,0,0-4.1,7.208c-.974-2.833-2.359-5.244-4.2-5.244-4.156,0-6,12.311-6,14v2A5.971,5.971,0,0,0,8.024,42.6,27.031,27.031,0,0,0,5,55H7A25.052,25.052,0,0,1,9.5,44.112,5.958,5.958,0,0,0,12,45.16v7.924c-1.754.272-4,1.293-4,3.916v2h2V57c0-1.959,2.88-2,3-2a1,1,0,0,0,1-1,8.84,8.84,0,0,1,1.33-4.433c.481,1.893,1.559,3.835,3.648,4.316A2.318,2.318,0,0,1,17,55c-3.955,0-5,3.925-5,6v1h2V61c0-.163.034-4,3-4,2.776,0,4.119-2.257,4.672-4.439A8.825,8.825,0,0,1,23,57a1,1,0,0,0,1,1c.123,0,3,.041,3,2v2h2V55.41a6.006,6.006,0,0,0,5-5.91v-2A37.545,37.545,0,0,0,32.284,39H33V32.91a6,6,0,0,0,3.873-2.423A24.855,24.855,0,0,1,41.1,31.712,2.2,2.2,0,0,1,40,32c-3.955,0-5,3.925-5,6v1h2V38c0-.163.034-4,3-4,2.776,0,4.119-2.257,4.672-4.438a9.8,9.8,0,0,1,1.1,2.655A31.79,31.79,0,0,0,45,37.25v2a6.006,6.006,0,0,0,5,5.91v7.164a7.039,7.039,0,0,0-1.047-.25,12.291,12.291,0,0,0-3.246-6.781A1,1,0,0,0,44,46c0,.051-.05,5-3,5-3.955,0-5,3.925-5,6v1h2V57c0-.163.034-4,3-4,2.776,0,4.119-2.257,4.672-4.439A8.825,8.825,0,0,1,47,53a1,1,0,0,0,1,1c.123,0,3,.041,3,2v2h2V56a3.437,3.437,0,0,0-1-2.511V45.16a5.958,5.958,0,0,0,2.5-1.048A25.052,25.052,0,0,1,57,55h2a27.047,27.047,0,0,0-3.024-12.4A5.971,5.971,0,0,0,57,39.25ZM32,13c1.307,0,3.6,7.153,3.95,11.078A5.5,5.5,0,0,0,33,25.367V18H31v3.386a5.3,5.3,0,0,0-2.255-1.171C29.618,16.684,31.062,13,32,13ZM31,30.858A4,4,0,0,1,28,27V25a16.583,16.583,0,0,1,.32-2.827C30.882,22.884,31,25.659,31,26Zm-6.865-1.687a26.591,26.591,0,0,0-5.523,2.386,16.467,16.467,0,0,1,2.642-7A7.274,7.274,0,0,0,24.135,29.171ZM13,25.25c1.417,0,4,8.414,4,12v2a4,4,0,0,1-3,3.858V30.25H12v3.386a5.3,5.3,0,0,0-2.255-1.171C10.618,28.933,12.062,25.25,13,25.25Zm-4,14v-2a16.572,16.572,0,0,1,.32-2.827C11.882,35.134,12,37.909,12,38.25v4.858A4,4,0,0,1,9,39.25ZM27,53.358A4,4,0,0,1,24,49.5v-2a16.583,16.583,0,0,1,.32-2.827C26.882,45.384,27,48.159,27,48.5ZM27,40.5v3.386a5.3,5.3,0,0,0-2.255-1.171C25.618,39.184,27.062,35.5,28,35.5c1.307,0,3.6,7.153,3.95,11.078A5.5,5.5,0,0,0,29,47.867V40.5ZM24.953,56.074a9.838,9.838,0,0,0-.3-1.6A5.957,5.957,0,0,0,27,55.41v1.321A6.337,6.337,0,0,0,24.953,56.074ZM29,53.358V52.5c0-.148.048-3.3,3-3.9v.9A4,4,0,0,1,29,53.358ZM28,33.5c-4.156,0-6,12.311-6,14v2c0,.04,0,.078.006.117-.166-.189-.276-.3-.3-.324A1,1,0,0,0,20,50a10.254,10.254,0,0,1-.25,1.975C17.056,51.693,17,47.047,17,47a1,1,0,0,0-1.707-.7A11.632,11.632,0,0,0,14,47.921V45.16a6.006,6.006,0,0,0,5-5.91v-2a24.853,24.853,0,0,0-.429-3.33,24.671,24.671,0,0,1,8.553-3.437A6,6,0,0,0,31,32.91v3.061C30.18,34.5,29.184,33.5,28,33.5Zm5-2.642V30c0-.148.048-3.3,3-3.9V27A4,4,0,0,1,33,30.858ZM47,39.25v-2c0-3.586,2.583-12,4-12,.938,0,2.382,3.684,3.255,7.215A5.3,5.3,0,0,0,52,33.636V30.25H50V43.108A4,4,0,0,1,47,39.25Zm5,3.858V38.254c0-.344.118-3.12,2.68-3.831A16.583,16.583,0,0,1,55,37.25v2A4,4,0,0,1,52,43.108Z"></path><path d="M12.984,5h-2a12.341,12.341,0,0,1-.49,3.452,3.994,3.994,0,0,0,.5,3.367l.314.471a2.011,2.011,0,0,1,.248,1.689A14.312,14.312,0,0,0,10.984,18h2a12.3,12.3,0,0,1,.491-3.452,4,4,0,0,0-.5-3.367l-.314-.471a2,2,0,0,1-.249-1.689A14.356,14.356,0,0,0,12.984,5Z"></path><path d="M19,10H17a12.3,12.3,0,0,1-.491,3.452,4,4,0,0,0,.5,3.367l.314.471a2,2,0,0,1,.248,1.689A14.356,14.356,0,0,0,17,23h2a12.3,12.3,0,0,1,.491-3.452,4,4,0,0,0-.5-3.367l-.314-.471a2,2,0,0,1-.248-1.689A14.356,14.356,0,0,0,19,10Z"></path><path d="M7.659,14h-2a12.3,12.3,0,0,1-.491,3.452,4,4,0,0,0,.5,3.367l.314.471a2.011,2.011,0,0,1,.249,1.689A14.3,14.3,0,0,0,5.659,27h2a12.286,12.286,0,0,1,.491-3.452,4,4,0,0,0-.5-3.367l-.314-.471a2.008,2.008,0,0,1-.249-1.689A14.312,14.312,0,0,0,7.659,14Z"></path><path d="M51,11.181a4,4,0,0,0-.5,3.367A12.286,12.286,0,0,1,50.99,18h2a14.3,14.3,0,0,0-.574-4.021,2.008,2.008,0,0,1,.249-1.689l.314-.471a4,4,0,0,0,.5-3.367A12.3,12.3,0,0,1,52.99,5h-2a14.356,14.356,0,0,0,.573,4.021,2,2,0,0,1-.249,1.689Z"></path><path d="M45.011,16.181a4,4,0,0,0-.5,3.367A12.3,12.3,0,0,1,45,23h2a14.312,14.312,0,0,0-.574-4.021,2,2,0,0,1,.25-1.689l.313-.471a4,4,0,0,0,.5-3.367A12.3,12.3,0,0,1,47,10H45a14.312,14.312,0,0,0,.574,4.021,2,2,0,0,1-.25,1.689Z"></path><path d="M56.042,20.181a4,4,0,0,0-.5,3.367A12.3,12.3,0,0,1,56.031,27h2a14.356,14.356,0,0,0-.573-4.021,2,2,0,0,1,.249-1.689l.313-.471a4,4,0,0,0,.5-3.367A12.3,12.3,0,0,1,58.031,14h-2a14.312,14.312,0,0,0,.574,4.021,2,2,0,0,1-.25,1.689Z"></path><rect x="10.984" y="20" width="2" height="2"></rect><rect x="56.031" y="10" width="2" height="2"></rect></svg>